STARTFONT 2.1
COMMENT
COMMENT Converted from OpenType font "PxPlus_IBM_BIOS.ttf" by "otf2bdf 3.0".
COMMENT
FONT -FreeType-PxPlus IBM BIOS-Medium-R-Normal--17-120-100-100-P-138-ISO10646-1
SIZE 12 100 100
FONTBOUNDINGBOX 17 18 0 -2
STARTPROPERTIES 19
FOUNDRY "FreeType"
FAMILY_NAME "PxPlus IBM BIOS"
WEIGHT_NAME "Medium"
SLANT "R"
SETWIDTH_NAME "Normal"
ADD_STYLE_NAME ""
PIXEL_SIZE 17
POINT_SIZE 120
RESOLUTION_X 100
RESOLUTION_Y 100
SPACING "P"
AVERAGE_WIDTH 138
CHARSET_REGISTRY "ISO10646"
CHARSET_ENCODING "1"
FONT_ASCENT 14
FONT_DESCENT 2
COPYRIGHT "Outline (vector) version by VileR, 2020"
_OTF_FONTFILE "PxPlus_IBM_BIOS.ttf"
_OTF_PSNAME "PxPlus_IBM_BIOS"
ENDPROPERTIES
CHARS 782
STARTCHAR 0000
ENCODING 0
SWIDTH 1020 0
DWIDTH 17 0
BBX 0 0 0 0
BITMAP
ENDCHAR
STARTCHAR 0001
ENCODING 1
SWIDTH 1020 0
DWIDTH 17 0
BBX 17 17 0 -2
BITMAP
3FFE00
3FFE00
C00180
C00180
C00180
CC3180
CC3180
C00180
C00180
CFF180
CFF180
C3C180
C3C180
C00180
C00180
3FFE00
3FFE00
ENDCHAR
STARTCHAR 0002
ENCODING 2
SWIDTH 1020 0
DWIDTH 17 0
BBX 17 17 0 -2
BITMAP
3FFE00
3FFE00
FFFF80
FFFF80
F3C780
F3C780
F3C780
FFFF80
FFFF80
F00780
F00780
FC1F80
FC1F80
FFFF80
FFFF80
3FFE00
3FFE00
ENDCHAR
STARTCHAR 0003
ENCODING 3
SWIDTH 1020 0
DWIDTH 17 0
BBX 15 15 0 0
BITMAP
3CF8
3CF8
FFFE
FFFE
FFFE
FFFE
FFFE
FFFE
FFFE
3FF8
3FF8
0FC0
0FC0
0300
0300
ENDCHAR
STARTCHAR 0004
ENCODING 4
SWIDTH 1020 0
DWIDTH 17 0
BBX 15 15 0 0
BITMAP
0300
0300
0FC0
0FC0
0FC0
3FF8
3FF8
FFFE
FFFE
3FF8
3FF8
0FC0
0FC0
0300
0300
ENDCHAR
STARTCHAR 0005
ENCODING 5
SWIDTH 1020 0
DWIDTH 17 0
BBX 15 17 0 -2
BITMAP
0FC0
0FC0
0FC0
3FF8
3FF8
0FC0
0FC0
FFFE
FFFE
FFFE
FFFE
3FF8
3FF8
0FC0
0FC0
3FF8
3FF8
ENDCHAR
STARTCHAR 0006
ENCODING 6
SWIDTH 1020 0
DWIDTH 17 0
BBX 15 17 0 -2
BITMAP
0300
0300
0300
0300
0300
0FC0
0FC0
3FF8
3FF8
FFFE
FFFE
3FF8
3FF8
0FC0
0FC0
3FF8
3FF8
ENDCHAR
STARTCHAR 0007
ENCODING 7
SWIDTH 1020 0
DWIDTH 17 0
BBX 8 8 4 2
BITMAP
3C
3C
FF
FF
FF
FF
3C
3C
ENDCHAR
STARTCHAR 0008
ENCODING 8
SWIDTH 1020 0
DWIDTH 17 0
BBX 17 17 0 -2
BITMAP
FFFF80
FFFF80
FFFF80
FFFF80
FC1F80
FC1F80
F00780
F00780
F00780
F00780
F00780
FC1F80
FC1F80
FFFF80
FFFF80
FFFF80
FFFF80
ENDCHAR
STARTCHAR 0009
ENCODING 9
SWIDTH 1020 0
DWIDTH 17 0
BBX 12 12 2 0
BITMAP
3FC0
3FC0
F0F0
F0F0
C030
C030
C030
C030
F0F0
F0F0
3FC0
3FC0
ENDCHAR
STARTCHAR 000A
ENCODING 10
SWIDTH 1020 0
DWIDTH 17 0
BBX 17 17 0 -2
BITMAP
FFFF80
FFFF80
F00780
F00780
C00180
C3C180
C3C180
CFF180
CFF180
CFF180
CFF180
C3C180
C3C180
F00780
F00780
FFFF80
FFFF80
ENDCHAR
STARTCHAR 000B
ENCODING 11
SWIDTH 1020 0
DWIDTH 17 0
BBX 17 17 0 -2
BITMAP
00FF80
00FF80
001F80
001F80
001F80
00FF80
00F180
3FF180
3FF180
F0F000
F0F000
F0F000
F0F000
F0F000
F0F000
3FE000
3FE000
ENDCHAR
STARTCHAR 000C
ENCODING 12
SWIDTH 1020 0
DWIDTH 17 0
BBX 12 17 2 -2
BITMAP
3FC0
3FC0
F0F0
F0F0
F0F0
F0F0
F0F0
F0F0
F0F0
3FC0
0F00
0F00
0F00
FFF0
FFF0
0F00
0F00
ENDCHAR
STARTCHAR 000D
ENCODING 13
SWIDTH 1020 0
DWIDTH 17 0
BBX 17 17 0 -2
BITMAP
0FFF80
0FFF80
0F0780
0F0780
0F0780
0FFF80
0FFF80
0F0000
0F0000
0F0000
0F0000
3F0000
3F0000
FF0000
FF0000
FC0000
FC0000
ENDCHAR
STARTCHAR 000E
ENCODING 14
SWIDTH 1020 0
DWIDTH 17 0
BBX 17 17 0 -2
BITMAP
3FFF80
3FFF80
3C0780
3C0780
3C0780
3FFF80
3FFF80
3C0780
3C0780
3C0780
3C0780
3C1F80
3C1F80
FC1E00
FC1E00
F00000
F00000
ENDCHAR
STARTCHAR 000F
ENCODING 15
SWIDTH 1020 0
DWIDTH 17 0
BBX 17 16 0 -2
BITMAP
C3E180
C3E180
33E600
33E600
0FF800
0FF800
FC1F80
FC1F80
FC1F80
FC1F80
0FF800
0FF800
33E600
33E600
C3E180
C3E180
ENDCHAR
STARTCHAR 0010
ENCODING 16
SWIDTH 1020 0
DWIDTH 17 0
BBX 15 15 0 0
BITMAP
C000
C000
FC00
FC00
FC00
FFC0
FFC0
FFFE
FFFE
FFC0
FFC0
FC00
FC00
C000
C000
ENDCHAR
STARTCHAR 0011
ENCODING 17
SWIDTH 1020 0
DWIDTH 17 0
BBX 15 15 0 0
BITMAP
0006
0006
007E
007E
007E
07FE
07FE
FFFE
FFFE
07FE
07FE
007E
007E
0006
0006
ENDCHAR
STARTCHAR 0012
ENCODING 18
SWIDTH 1020 0
DWIDTH 17 0
BBX 13 17 2 -2
BITMAP
0F00
0F00
3FC0
3FC0
3FC0
FFF8
FFF8
0F00
0F00
0F00
0F00
FFF8
FFF8
3FC0
3FC0
0F00
0F00
ENDCHAR
STARTCHAR 0013
ENCODING 19
SWIDTH 1020 0
DWIDTH 17 0
BBX 12 14 2 0
BITMAP
F0F0
F0F0
F0F0
F0F0
F0F0
F0F0
F0F0
F0F0
F0F0
F0F0
0000
0000
F0F0
F0F0
ENDCHAR
STARTCHAR 0014
ENCODING 20
SWIDTH 1020 0
DWIDTH 17 0
BBX 17 15 0 0
BITMAP
3FFF80
3FFF80
F3C780
F3C780
F3C780
F3C780
F3C780
3FC780
3FC780
03C780
03C780
03C780
03C780
03C780
03C780
ENDCHAR
STARTCHAR 0015
ENCODING 21
SWIDTH 1020 0
DWIDTH 17 0
BBX 16 17 0 -2
BITMAP
0FFC
0FFC
3C0F
3C0F
3C0F
0FC0
0FC0
3CF0
3CF0
3CF0
3CF0
0FC0
0FC0
F0F0
F0F0
3FC0
3FC0
ENDCHAR
STARTCHAR 0016
ENCODING 22
SWIDTH 1020 0
DWIDTH 17 0
BBX 13 6 2 0
BITMAP
FFF8
FFF8
FFF8
FFF8
FFF8
FFF8
ENDCHAR
STARTCHAR 0017
ENCODING 23
SWIDTH 1020 0
DWIDTH 17 0
BBX 17 17 0 -2
BITMAP
03C000
03C000
03C000
0FF800
0FF800
3FFE00
3FFE00
03C000
03C000
3FFE00
3FFE00
0FF800
0FF800
03C000
03C000
FFFF80
FFFF80
ENDCHAR
STARTCHAR 0018
ENCODING 24
SWIDTH 1020 0
DWIDTH 17 0
BBX 13 15 2 0
BITMAP
0F00
0F00
3FC0
3FC0
3FC0
FFF8
FFF8
0F00
0F00
0F00
0F00
0F00
0F00
0F00
0F00
ENDCHAR
STARTCHAR 0019
ENCODING 25
SWIDTH 1020 0
DWIDTH 17 0
BBX 13 15 2 0
BITMAP
0F00
0F00
0F00
0F00
0F00
0F00
0F00
0F00
0F00
FFF8
FFF8
3FC0
3FC0
0F00
0F00
ENDCHAR
STARTCHAR 001A
ENCODING 26
SWIDTH 1020 0
DWIDTH 17 0
BBX 15 10 0 2
BITMAP
03C0
03C0
00F8
00F8
FFFE
FFFE
00F8
00F8
03C0
03C0
ENDCHAR
STARTCHAR 001B
ENCODING 27
SWIDTH 1020 0
DWIDTH 17 0
BBX 15 10 0 2
BITMAP
0F00
0F00
3C00
3C00
FFFE
FFFE
3C00
3C00
0F00
0F00
ENDCHAR
STARTCHAR 001C
ENCODING 28
SWIDTH 1020 0
DWIDTH 17 0
BBX 15 8 0 2
BITMAP
F000
F000
F000
F000
F000
F000
FFFE
FFFE
ENDCHAR
STARTCHAR 001D
ENCODING 29
SWIDTH 1020 0
DWIDTH 17 0
BBX 17 10 0 2
BITMAP
0C3800
0C3800
3C3E00
3C3E00
FFFF80
FFFF80
3C3E00
3C3E00
0C3800
0C3800
ENDCHAR
STARTCHAR 001E
ENCODING 30
SWIDTH 1020 0
DWIDTH 17 0
BBX 17 10 0 2
BITMAP
03C000
03C000
0FF800
0FF800
3FFE00
3FFE00
FFFF80
FFFF80
FFFF80
FFFF80
ENDCHAR
STARTCHAR 001F
ENCODING 31
SWIDTH 1020 0
DWIDTH 17 0
BBX 17 10 0 2
BITMAP
FFFF80
FFFF80
FFFF80
FFFF80
3FFE00
3FFE00
0FF800
0FF800
03C000
03C000
ENDCHAR
STARTCHAR 0020
ENCODING 32
SWIDTH 1020 0
DWIDTH 17 0
BBX 0 0 0 0
BITMAP
ENDCHAR
STARTCHAR 0021
ENCODING 33
SWIDTH 1020 0
DWIDTH 17 0
BBX 8 15 2 0
BITMAP
3C
3C
FF
FF
FF
FF
3C
3C
3C
3C
3C
00
00
3C
3C
ENDCHAR
STARTCHAR 0022
ENCODING 34
SWIDTH 1020 0
DWIDTH 17 0
BBX 10 6 2 9
BITMAP
F3C0
F3C0
F3C0
F3C0
F3C0
F3C0
ENDCHAR
STARTCHAR 0023
ENCODING 35
SWIDTH 1020 0
DWIDTH 17 0
BBX 15 15 0 0
BITMAP
3CF0
3CF0
3CF0
3CF0
FFFE
FFFE
3CF0
3CF0
FFFE
FFFE
3CF0
3CF0
3CF0
3CF0
3CF0
ENDCHAR
STARTCHAR 0024
ENCODING 36
SWIDTH 1020 0
DWIDTH 17 0
BBX 12 15 0 0
BITMAP
0F00
0F00
3FF0
3FF0
F000
F000
3FC0
3FC0
00F0
00F0
00C0
FFC0
FFC0
0F00
0F00
ENDCHAR
STARTCHAR 0025
ENCODING 37
SWIDTH 1020 0
DWIDTH 17 0
BBX 14 13 0 0
BITMAP
F03C
F03C
F0F0
F0F0
03C0
03C0
0300
0F00
0C00
3C3C
3C3C
F03C
F03C
ENDCHAR
STARTCHAR 0026
ENCODING 38
SWIDTH 1020 0
DWIDTH 17 0
BBX 14 15 0 0
BITMAP
0FC0
0FC0
3CF0
3CF0
0FC0
0FC0
3F3C
3F3C
3330
F3F0
F3F0
F0F0
F0F0
3F3C
3F3C
ENDCHAR
STARTCHAR 0027
ENCODING 39
SWIDTH 1020 0
DWIDTH 17 0
BBX 6 6 0 9
BITMAP
3C
3C
3C
3C
F0
F0
ENDCHAR
STARTCHAR 0028
ENCODING 40
SWIDTH 1020 0
DWIDTH 17 0
BBX 8 15 2 0
BITMAP
0F
0F
3C
3C
F0
F0
F0
F0
F0
F0
F0
3C
3C
0F
0F
ENDCHAR
STARTCHAR 0029
ENCODING 41
SWIDTH 1020 0
DWIDTH 17 0
BBX 8 15 2 0
BITMAP
F0
F0
3C
3C
0F
0F
0F
0F
0F
0F
0F
3C
3C
F0
F0
ENDCHAR
STARTCHAR 002A
ENCODING 42
SWIDTH 1020 0
DWIDTH 17 0
BBX 17 11 0 2
BITMAP
3C1E00
3C1E00
0FF000
0FF000
0FF000
FFFF80
FFFF80
0FF000
0FF000
3C1E00
3C1E00
ENDCHAR
STARTCHAR 002B
ENCODING 43
SWIDTH 1020 0
DWIDTH 17 0
BBX 13 11 0 2
BITMAP
0F00
0F00
0F00
0F00
0F00
FFF8
FFF8
0F00
0F00
0F00
0F00
ENDCHAR
STARTCHAR 002C
ENCODING 44
SWIDTH 1020 0
DWIDTH 17 0
BBX 6 6 2 -2
BITMAP
3C
3C
3C
3C
F0
F0
ENDCHAR
STARTCHAR 002D
ENCODING 45
SWIDTH 1020 0
DWIDTH 17 0
BBX 13 2 0 7
BITMAP
FFF8
FFF8
ENDCHAR
STARTCHAR 002E
ENCODING 46
SWIDTH 1020 0
DWIDTH 17 0
BBX 4 4 4 0
BITMAP
F0
F0
F0
F0
ENDCHAR
STARTCHAR 002F
ENCODING 47
SWIDTH 1020 0
DWIDTH 17 0
BBX 15 15 0 0
BITMAP
001E
001E
00F0
00F0
03C0
03C0
0F00
0F00
0C00
3C00
3000
F000
F000
C000
C000
ENDCHAR
STARTCHAR 0030
ENCODING 48
SWIDTH 1020 0
DWIDTH 17 0
BBX 15 15 0 0
BITMAP
3FF0
3FF0
F01E
F01E
F07E
F07E
F3FE
F3FE
FF9E
FF9E
FC1E
FC1E
FC1E
3FF0
3FF0
ENDCHAR
STARTCHAR 0031
ENCODING 49
SWIDTH 1020 0
DWIDTH 17 0
BBX 13 15 0 0
BITMAP
0F00
0F00
3F00
3F00
0F00
0F00
0F00
0F00
0F00
0F00
0F00
0F00
0F00
FFF8
FFF8
ENDCHAR
STARTCHAR 0032
ENCODING 50
SWIDTH 1020 0
DWIDTH 17 0
BBX 12 15 0 0
BITMAP
3FC0
3FC0
F0F0
F0F0
00F0
00F0
0FC0
0FC0
3C00
3C00
F0F0
F0F0
F0F0
FFF0
FFF0
ENDCHAR
STARTCHAR 0033
ENCODING 51
SWIDTH 1020 0
DWIDTH 17 0
BBX 12 15 0 0
BITMAP
3FC0
3FC0
F0F0
F0F0
00F0
00F0
0FC0
0FC0
00C0
00F0
00F0
F0F0
F0F0
3FC0
3FC0
ENDCHAR
STARTCHAR 0034
ENCODING 52
SWIDTH 1020 0
DWIDTH 17 0
BBX 14 15 0 0
BITMAP
03F0
03F0
0FF0
0FF0
3CF0
3CF0
F0F0
F0F0
FFFC
FFFC
00F0
00F0
00F0
03FC
03FC
ENDCHAR
STARTCHAR 0035
ENCODING 53
SWIDTH 1020 0
DWIDTH 17 0
BBX 12 15 0 0
BITMAP
FFF0
FFF0
F000
F000
FFC0
FFC0
00F0
00F0
00F0
00F0
00F0
F0F0
F0F0
3FC0
3FC0
ENDCHAR
STARTCHAR 0036
ENCODING 54
SWIDTH 1020 0
DWIDTH 17 0
BBX 12 15 0 0
BITMAP
0FC0
0FC0
3C00
3C00
F000
F000
FFC0
FFC0
F0C0
F0F0
F0F0
F0F0
F0F0
3FC0
3FC0
ENDCHAR
STARTCHAR 0037
ENCODING 55
SWIDTH 1020 0
DWIDTH 17 0
BBX 12 15 0 0
BITMAP
FFF0
FFF0
F0F0
F0F0
00F0
00F0
03C0
03C0
0F00
0F00
0F00
0F00
0F00
0F00
0F00
ENDCHAR
STARTCHAR 0038
ENCODING 56
SWIDTH 1020 0
DWIDTH 17 0
BBX 12 15 0 0
BITMAP
3FC0
3FC0
F0F0
F0F0
F0F0
F0F0
3FC0
3FC0
30C0
F0F0
F0F0
F0F0
F0F0
3FC0
3FC0
ENDCHAR
STARTCHAR 0039
ENCODING 57
SWIDTH 1020 0
DWIDTH 17 0
BBX 12 15 0 0
BITMAP
3FC0
3FC0
F0F0
F0F0
F0F0
F0F0
3FF0
3FF0
00F0
00F0
00F0
03C0
03C0
3F00
3F00
ENDCHAR
STARTCHAR 003A
ENCODING 58
SWIDTH 1020 0
DWIDTH 17 0
BBX 4 13 4 0
BITMAP
F0
F0
F0
F0
00
00
00
00
00
F0
F0
F0
F0
ENDCHAR
STARTCHAR 003B
ENCODING 59
SWIDTH 1020 0
DWIDTH 17 0
BBX 6 13 2 0
BITMAP
3C
3C
3C
3C
00
00
00
3C
3C
3C
3C
F0
F0
ENDCHAR
STARTCHAR 003C
ENCODING 60
SWIDTH 1020 0
DWIDTH 17 0
BBX 10 15 0 0
BITMAP
03C0
03C0
0F00
0F00
3C00
3C00
F000
F000
3000
3C00
3C00
0F00
0F00
03C0
03C0
ENDCHAR
STARTCHAR 003D
ENCODING 61
SWIDTH 1020 0
DWIDTH 17 0
BBX 13 9 0 2
BITMAP
FFF8
FFF8
0000
0000
0000
0000
0000
FFF8
FFF8
ENDCHAR
STARTCHAR 003E
ENCODING 62
SWIDTH 1020 0
DWIDTH 17 0
BBX 10 15 2 0
BITMAP
F000
F000
3C00
3C00
0F00
0F00
03C0
03C0
0300
0F00
0F00
3C00
3C00
F000
F000
ENDCHAR
STARTCHAR 003F
ENCODING 63
SWIDTH 1020 0
DWIDTH 17 0
BBX 12 15 0 0
BITMAP
3FC0
3FC0
F0F0
F0F0
00F0
00F0
03C0
03C0
0F00
0F00
0000
0000
0000
0F00
0F00
ENDCHAR
STARTCHAR 0040
ENCODING 64
SWIDTH 1020 0
DWIDTH 17 0
BBX 15 15 0 0
BITMAP
3FF0
3FF0
F01E
F01E
F3FE
F3FE
F3FE
F3FE
F3FE
F3FE
F3FE
F000
F000
3FC0
3FC0
ENDCHAR
STARTCHAR 0041
ENCODING 65
SWIDTH 1020 0
DWIDTH 17 0
BBX 12 15 0 0
BITMAP
0F00
0F00
3FC0
3FC0
F0F0
F0F0
F0F0
F0F0
FFF0
FFF0
F0F0
F0F0
F0F0
F0F0
F0F0
ENDCHAR
STARTCHAR 0042
ENCODING 66
SWIDTH 1020 0
DWIDTH 17 0
BBX 16 15 0 0
BITMAP
FFF8
FFF8
1E0F
1E0F
1E0F
1E0F
1FF8
1FF8
1E08
1E0F
1E0F
1E0F
1E0F
FFF8
FFF8
ENDCHAR
STARTCHAR 0043
ENCODING 67
SWIDTH 1020 0
DWIDTH 17 0
BBX 15 15 0 0
BITMAP
0FF0
0FF0
3C1E
3C1E
F000
F000
F000
F000
F000
F000
F000
3C1E
3C1E
0FF0
0FF0
ENDCHAR
STARTCHAR 0044
ENCODING 68
SWIDTH 1020 0
DWIDTH 17 0
BBX 15 15 0 0
BITMAP
FFC0
FFC0
3CF0
3CF0
3C1E
3C1E
3C1E
3C1E
3C1E
3C1E
3C1E
3CF0
3CF0
FFC0
FFC0
ENDCHAR
STARTCHAR 0045
ENCODING 69
SWIDTH 1020 0
DWIDTH 17 0
BBX 14 15 0 0
BITMAP
FFFC
FFFC
3C0C
3C0C
3CC0
3CC0
3FC0
3FC0
3CC0
3CC0
3CC0
3C0C
3C0C
FFFC
FFFC
ENDCHAR
STARTCHAR 0046
ENCODING 70
SWIDTH 1020 0
DWIDTH 17 0
BBX 15 15 0 0
BITMAP
FFFE
FFFE
3C06
3C06
3CC0
3CC0
3FC0
3FC0
3CC0
3CC0
3CC0
3C00
3C00
FF00
FF00
ENDCHAR
STARTCHAR 0047
ENCODING 71
SWIDTH 1020 0
DWIDTH 17 0
BBX 15 15 0 0
BITMAP
0FF0
0FF0
3C1E
3C1E
F000
F000
F000
F000
F000
F07E
F07E
3C1E
3C1E
0FFE
0FFE
ENDCHAR
STARTCHAR 0048
ENCODING 72
SWIDTH 1020 0
DWIDTH 17 0
BBX 12 15 0 0
BITMAP
F0F0
F0F0
F0F0
F0F0
F0F0
F0F0
FFF0
FFF0
F0F0
F0F0
F0F0
F0F0
F0F0
F0F0
F0F0
ENDCHAR
STARTCHAR 0049
ENCODING 73
SWIDTH 1020 0
DWIDTH 17 0
BBX 8 15 2 0
BITMAP
FF
FF
3C
3C
3C
3C
3C
3C
3C
3C
3C
3C
3C
FF
FF
ENDCHAR
STARTCHAR 004A
ENCODING 74
SWIDTH 1020 0
DWIDTH 17 0
BBX 14 15 0 0
BITMAP
03FC
03FC
00F0
00F0
00F0
00F0
00F0
00F0
00F0
F0F0
F0F0
F0F0
F0F0
3FC0
3FC0
ENDCHAR
STARTCHAR 004B
ENCODING 75
SWIDTH 1020 0
DWIDTH 17 0
BBX 14 15 0 0
BITMAP
FC3C
FC3C
3C3C
3C3C
3CF0
3CF0
3FC0
3FC0
3CF0
3CF0
3CF0
3C3C
3C3C
FC3C
FC3C
ENDCHAR
STARTCHAR 004C
ENCODING 76
SWIDTH 1020 0
DWIDTH 17 0
BBX 15 15 0 0
BITMAP
FF00
FF00
3C00
3C00
3C00
3C00
3C00
3C00
3C00
3C06
3C06
3C3E
3C3E
FFFE
FFFE
ENDCHAR
STARTCHAR 004D
ENCODING 77
SWIDTH 1020 0
DWIDTH 17 0
BBX 15 15 0 0
BITMAP
F01E
F01E
FCFE
FCFE
FFFE
FFFE
FFFE
FFFE
FFFE
F31E
F31E
F01E
F01E
F01E
F01E
ENDCHAR
STARTCHAR 004E
ENCODING 78
SWIDTH 1020 0
DWIDTH 17 0
BBX 15 15 0 0
BITMAP
F01E
F01E
FC1E
FC1E
FF9E
FF9E
F3FE
F3FE
F07E
F07E
F01E
F01E
F01E
F01E
F01E
ENDCHAR
STARTCHAR 004F
ENCODING 79
SWIDTH 1020 0
DWIDTH 17 0
BBX 15 15 0 0
BITMAP
0FC0
0FC0
3CF0
3CF0
F01E
F01E
F01E
F01E
F01E
F01E
F01E
3CF0
3CF0
0FC0
0FC0
ENDCHAR
STARTCHAR 0050
ENCODING 80
SWIDTH 1020 0
DWIDTH 17 0
BBX 15 15 0 0
BITMAP
FFF8
FFF8
3C1E
3C1E
3C1E
3C1E
3FF8
3FF8
3C00
3C00
3C00
3C00
3C00
FF00
FF00
ENDCHAR
STARTCHAR 0051
ENCODING 81
SWIDTH 1020 0
DWIDTH 17 0
BBX 12 15 0 0
BITMAP
3FC0
3FC0
F0F0
F0F0
F0F0
F0F0
F0F0
F0F0
F0F0
F3F0
F3F0
3FC0
3FC0
03F0
03F0
ENDCHAR
STARTCHAR 0052
ENCODING 82
SWIDTH 1020 0
DWIDTH 17 0
BBX 15 15 0 0
BITMAP
FFF0
FFF0
3C1E
3C1E
3C1E
3C1E
3FF0
3FF0
3CF0
3CF0
3CF0
3C1E
3C1E
FC1E
FC1E
ENDCHAR
STARTCHAR 0053
ENCODING 83
SWIDTH 1020 0
DWIDTH 17 0
BBX 12 15 0 0
BITMAP
3FC0
3FC0
F0F0
F0F0
FC00
FC00
3F00
3F00
0300
03F0
00F0
F0F0
F0F0
3FC0
3FC0
ENDCHAR
STARTCHAR 0054
ENCODING 84
SWIDTH 1020 0
DWIDTH 17 0
BBX 12 15 0 0
BITMAP
FFF0
FFF0
CF30
CF30
0F00
0F00
0F00
0F00
0F00
0F00
0F00
0F00
0F00
3FC0
3FC0
ENDCHAR
STARTCHAR 0055
ENCODING 85
SWIDTH 1020 0
DWIDTH 17 0
BBX 12 15 0 0
BITMAP
F0F0
F0F0
F0F0
F0F0
F0F0
F0F0
F0F0
F0F0
F0F0
F0F0
F0F0
F0F0
F0F0
FFF0
FFF0
ENDCHAR
STARTCHAR 0056
ENCODING 86
SWIDTH 1020 0
DWIDTH 17 0
BBX 12 15 0 0
BITMAP
F0F0
F0F0
F0F0
F0F0
F0F0
F0F0
F0F0
F0F0
F0F0
F0F0
F0F0
3FC0
3FC0
0F00
0F00
ENDCHAR
STARTCHAR 0057
ENCODING 87
SWIDTH 1020 0
DWIDTH 17 0
BBX 15 15 0 0
BITMAP
F01E
F01E
F01E
F01E
F01E
F01E
F31E
F31E
F31E
FFFE
FCFE
FCFE
FCFE
F01E
F01E
ENDCHAR
STARTCHAR 0058
ENCODING 88
SWIDTH 1020 0
DWIDTH 17 0
BBX 15 15 0 0
BITMAP
F01E
F01E
F01E
F01E
3CF0
3CF0
0FC0
0FC0
0FC0
0FC0
3CF0
3CF0
3CF0
F01E
F01E
ENDCHAR
STARTCHAR 0059
ENCODING 89
SWIDTH 1020 0
DWIDTH 17 0
BBX 12 15 0 0
BITMAP
F0F0
F0F0
F0F0
F0F0
F0F0
F0F0
3FC0
3FC0
0F00
0F00
0F00
0F00
0F00
3FC0
3FC0
ENDCHAR
STARTCHAR 005A
ENCODING 90
SWIDTH 1020 0
DWIDTH 17 0
BBX 15 15 0 0
BITMAP
FFFE
FFFE
F01E
F01E
C0F0
C0F0
03C0
03C0
0F06
0F06
3C1E
3C1E
3C1E
FFFE
FFFE
ENDCHAR
STARTCHAR 005B
ENCODING 91
SWIDTH 1020 0
DWIDTH 17 0
BBX 9 15 2 0
BITMAP
FF80
FF80
F000
F000
F000
F000
F000
F000
F000
F000
F000
F000
F000
FF80
FF80
ENDCHAR
STARTCHAR 005C
ENCODING 92
SWIDTH 1020 0
DWIDTH 17 0
BBX 15 15 0 0
BITMAP
F000
F000
3C00
3C00
0F00
0F00
03C0
03C0
00C0
00F0
0030
003E
003E
0006
0006
ENDCHAR
STARTCHAR 005D
ENCODING 93
SWIDTH 1020 0
DWIDTH 17 0
BBX 8 15 2 0
BITMAP
FF
FF
0F
0F
0F
0F
0F
0F
0F
0F
0F
0F
0F
FF
FF
ENDCHAR
STARTCHAR 005E
ENCODING 94
SWIDTH 1020 0
DWIDTH 17 0
BBX 14 9 0 7
BITMAP
0300
0300
0300
0FC0
3CF0
3CF0
3CF0
F03C
F03C
ENDCHAR
STARTCHAR 005F
ENCODING 95
SWIDTH 1020 0
DWIDTH 17 0
BBX 17 2 0 -2
BITMAP
FFFF80
FFFF80
ENDCHAR
STARTCHAR 0060
ENCODING 96
SWIDTH 1020 0
DWIDTH 17 0
BBX 6 6 4 9
BITMAP
F0
F0
F0
F0
3C
3C
ENDCHAR
STARTCHAR 0061
ENCODING 97
SWIDTH 1020 0
DWIDTH 17 0
BBX 15 11 0 0
BITMAP
3FC0
3FC0
00F0
00F0
3FF0
3FF0
30F0
F0F0
F0F0
3F1E
3F1E
ENDCHAR
STARTCHAR 0062
ENCODING 98
SWIDTH 1020 0
DWIDTH 17 0
BBX 15 15 0 0
BITMAP
FC00
FC00
3C00
3C00
3C00
3C00
3FF0
3FF0
3C10
3C1E
3C1E
3C1E
3C1E
F3F0
F3F0
ENDCHAR
STARTCHAR 0063
ENCODING 99
SWIDTH 1020 0
DWIDTH 17 0
BBX 12 11 0 0
BITMAP
3FC0
3FC0
F0F0
F0F0
F000
F000
F000
F0F0
F0F0
3FC0
3FC0
ENDCHAR
STARTCHAR 0064
ENCODING 100
SWIDTH 1020 0
DWIDTH 17 0
BBX 15 15 0 0
BITMAP
03F0
03F0
00F0
00F0
00F0
00F0
3FF0
3FF0
30F0
F0F0
F0F0
F0F0
F0F0
3F1E
3F1E
ENDCHAR
STARTCHAR 0065
ENCODING 101
SWIDTH 1020 0
DWIDTH 17 0
BBX 12 11 0 0
BITMAP
3FC0
3FC0
F0F0
F0F0
FFF0
FFF0
F000
F000
F000
3FC0
3FC0
ENDCHAR
STARTCHAR 0066
ENCODING 102
SWIDTH 1020 0
DWIDTH 17 0
BBX 12 15 0 0
BITMAP
0FC0
0FC0
3CF0
3CF0
3C00
3C00
FF00
FF00
3C00
3C00
3C00
3C00
3C00
FF00
FF00
ENDCHAR
STARTCHAR 0067
ENCODING 103
SWIDTH 1020 0
DWIDTH 17 0
BBX 15 13 0 -2
BITMAP
3F1E
3F1E
F0F0
F0F0
F0F0
F0F0
3FF0
3FF0
00F0
00F0
00F0
FFC0
FFC0
ENDCHAR
STARTCHAR 0068
ENCODING 104
SWIDTH 1020 0
DWIDTH 17 0
BBX 14 15 0 0
BITMAP
FC00
FC00
3C00
3C00
3CF0
3CF0
3F3C
3F3C
3C3C
3C3C
3C3C
3C3C
3C3C
FC3C
FC3C
ENDCHAR
STARTCHAR 0069
ENCODING 105
SWIDTH 1020 0
DWIDTH 17 0
BBX 8 15 2 0
BITMAP
3C
3C
00
00
FC
FC
3C
3C
3C
3C
3C
3C
3C
FF
FF
ENDCHAR
STARTCHAR 006A
ENCODING 106
SWIDTH 1020 0
DWIDTH 17 0
BBX 12 17 0 -2
BITMAP
00F0
00F0
0000
0000
00F0
00F0
00F0
00F0
00F0
00F0
00F0
F0F0
F0F0
F0F0
F0F0
3FC0
3FC0
ENDCHAR
STARTCHAR 006B
ENCODING 107
SWIDTH 1020 0
DWIDTH 17 0
BBX 14 15 0 0
BITMAP
FC00
FC00
3C00
3C00
3C3C
3C3C
3CF0
3CF0
3FC0
3FC0
3CF0
3CF0
3CF0
FC3C
FC3C
ENDCHAR
STARTCHAR 006C
ENCODING 108
SWIDTH 1020 0
DWIDTH 17 0
BBX 8 15 2 0
BITMAP
FC
FC
3C
3C
3C
3C
3C
3C
3C
3C
3C
3C
3C
FF
FF
ENDCHAR
STARTCHAR 006D
ENCODING 109
SWIDTH 1020 0
DWIDTH 17 0
BBX 15 11 0 0
BITMAP
F0F0
F0F0
FFFE
FFFE
FFFE
FFFE
FFFE
F31E
F31E
F01E
F01E
ENDCHAR
STARTCHAR 006E
ENCODING 110
SWIDTH 1020 0
DWIDTH 17 0
BBX 12 11 0 0
BITMAP
FFC0
FFC0
F0F0
F0F0
F0F0
F0F0
F0F0
F0F0
F0F0
F0F0
F0F0
ENDCHAR
STARTCHAR 006F
ENCODING 111
SWIDTH 1020 0
DWIDTH 17 0
BBX 12 11 0 0
BITMAP
3FC0
3FC0
F0F0
F0F0
F0F0
F0F0
F0F0
F0F0
F0F0
3FC0
3FC0
ENDCHAR
STARTCHAR 0070
ENCODING 112
SWIDTH 1020 0
DWIDTH 17 0
BBX 15 13 0 -2
BITMAP
F3F0
F3F0
3C1E
3C1E
3C1E
3C1E
3FF0
3FF0
3C00
3C00
3C00
FF00
FF00
ENDCHAR
STARTCHAR 0071
ENCODING 113
SWIDTH 1020 0
DWIDTH 17 0
BBX 14 13 0 -2
BITMAP
3F3C
3F3C
F0F0
F0F0
F0F0
F0F0
3FF0
3FF0
00F0
00F0
00F0
03FC
03FC
ENDCHAR
STARTCHAR 0072
ENCODING 114
SWIDTH 1020 0
DWIDTH 17 0
BBX 15 11 0 0
BITMAP
F3F0
F3F0
3F1E
3F1E
3C1E
3C1E
3C00
3C00
3C00
FF00
FF00
ENDCHAR
STARTCHAR 0073
ENCODING 115
SWIDTH 1020 0
DWIDTH 17 0
BBX 12 11 0 0
BITMAP
3FF0
3FF0
F000
F000
3FC0
3FC0
00C0
00F0
00F0
FFC0
FFC0
ENDCHAR
STARTCHAR 0074
ENCODING 116
SWIDTH 1020 0
DWIDTH 17 0
BBX 10 15 2 0
BITMAP
0C00
0C00
3C00
3C00
FFC0
FFC0
3C00
3C00
3C00
3C00
3C00
3CC0
3CC0
0F00
0F00
ENDCHAR
STARTCHAR 0075
ENCODING 117
SWIDTH 1020 0
DWIDTH 17 0
BBX 15 11 0 0
BITMAP
F0F0
F0F0
F0F0
F0F0
F0F0
F0F0
F0F0
F0F0
F0F0
3F1E
3F1E
ENDCHAR
STARTCHAR 0076
ENCODING 118
SWIDTH 1020 0
DWIDTH 17 0
BBX 12 11 0 0
BITMAP
F0F0
F0F0
F0F0
F0F0
F0F0
F0F0
F0F0
3FC0
3FC0
0F00
0F00
ENDCHAR
STARTCHAR 0077
ENCODING 119
SWIDTH 1020 0
DWIDTH 17 0
BBX 15 11 0 0
BITMAP
F01E
F01E
F31E
F31E
FFFE
FFFE
FFFE
FFFE
FFFE
3CF0
3CF0
ENDCHAR
STARTCHAR 0078
ENCODING 120
SWIDTH 1020 0
DWIDTH 17 0
BBX 15 11 0 0
BITMAP
F01E
F01E
3CF0
3CF0
0FC0
0FC0
3CF0
3CF0
3CF0
F01E
F01E
ENDCHAR
STARTCHAR 0079
ENCODING 121
SWIDTH 1020 0
DWIDTH 17 0
BBX 12 13 0 -2
BITMAP
F0F0
F0F0
F0F0
F0F0
F0F0
F0F0
FFF0
3FF0
00F0
00F0
00F0
FFC0
FFC0
ENDCHAR
STARTCHAR 007A
ENCODING 122
SWIDTH 1020 0
DWIDTH 17 0
BBX 12 11 0 0
BITMAP
FFF0
FFF0
C3C0
C3C0
0F00
0F00
0F00
3C30
3C30
FFF0
FFF0
ENDCHAR
STARTCHAR 007B
ENCODING 123
SWIDTH 1020 0
DWIDTH 17 0
BBX 12 15 0 0
BITMAP
03F0
03F0
0F00
0F00
0F00
0F00
FC00
FC00
0F00
0F00
0F00
0F00
0F00
03F0
03F0
ENDCHAR
STARTCHAR 007C
ENCODING 124
SWIDTH 1020 0
DWIDTH 17 0
BBX 4 15 6 0
BITMAP
F0
F0
F0
F0
F0
F0
00
00
F0
F0
F0
F0
F0
F0
F0
ENDCHAR
STARTCHAR 007D
ENCODING 125
SWIDTH 1020 0
DWIDTH 17 0
BBX 12 15 0 0
BITMAP
FC00
FC00
0F00
0F00
0F00
0F00
03F0
03F0
0F00
0F00
0F00
0F00
0F00
FC00
FC00
ENDCHAR
STARTCHAR 007E
ENCODING 126
SWIDTH 1020 0
DWIDTH 17 0
BBX 15 4 0 11
BITMAP
3F1E
3F1E
F3F0
F3F0
ENDCHAR
STARTCHAR 007F
ENCODING 127
SWIDTH 1020 0
DWIDTH 17 0
BBX 14 13 0 0
BITMAP
0300
0300
0FC0
0FC0
3CF0
3CF0
F03C
F03C
F03C
F03C
F03C
FFFC
FFFC
ENDCHAR
STARTCHAR 00A0
ENCODING 160
SWIDTH 1020 0
DWIDTH 17 0
BBX 0 0 0 0
BITMAP
ENDCHAR
STARTCHAR 00A1
ENCODING 161
SWIDTH 1020 0
DWIDTH 17 0
BBX 4 15 6 0
BITMAP
F0
F0
F0
F0
00
00
F0
F0
F0
F0
F0
F0
F0
F0
F0
ENDCHAR
STARTCHAR 00A2
ENCODING 162
SWIDTH 1020 0
DWIDTH 17 0
BBX 15 17 0 -2
BITMAP
03C0
03C0
03C0
03C0
3FFE
3FFE
F000
F000
F000
F000
3FFE
3FFE
03C0
03C0
03C0
03C0
03C0
ENDCHAR
STARTCHAR 00A3
ENCODING 163
SWIDTH 1020 0
DWIDTH 17 0
BBX 14 15 0 0
BITMAP
0FC0
0FC0
3CF0
3CF0
3C30
3C30
FF00
FF00
3C00
3C00
3C00
FC3C
FC3C
FFF0
FFF0
ENDCHAR
STARTCHAR 00A4
ENCODING 164
SWIDTH 1020 0
DWIDTH 17 0
BBX 15 13 0 0
BITMAP
F01E
F01E
3FF0
3FF0
F01E
F01E
F01E
F01E
3010
3FF0
3FF0
F01E
F01E
ENDCHAR
STARTCHAR 00A5
ENCODING 165
SWIDTH 1020 0
DWIDTH 17 0
BBX 12 17 0 -2
BITMAP
F0F0
F0F0
F0F0
F0F0
3FC0
3FC0
FFF0
FFF0
0F00
0F00
FFF0
FFF0
0F00
0F00
0F00
0F00
0F00
ENDCHAR
STARTCHAR 00A6
ENCODING 166
SWIDTH 1020 0
DWIDTH 17 0
BBX 4 15 6 0
BITMAP
F0
F0
F0
F0
F0
F0
00
00
F0
F0
F0
F0
F0
F0
F0
ENDCHAR
STARTCHAR 00A7
ENCODING 167
SWIDTH 1020 0
DWIDTH 17 0
BBX 17 17 0 -2
BITMAP
0FFC00
0FFC00
3C0780
3C0780
0FC000
0FC000
3CF000
3CF000
3CF000
3CF000
0FC000
0FC000
00C000
F0F000
F0F000
3FC000
3FC000
ENDCHAR
STARTCHAR 00A8
ENCODING 168
SWIDTH 1020 0
DWIDTH 17 0
BBX 15 2 0 13
BITMAP
F01E
F01E
ENDCHAR
STARTCHAR 00A9
ENCODING 169
SWIDTH 1020 0
DWIDTH 17 0
BBX 17 18 0 -2
BITMAP
3FFE00
3FFE00
000000
C00180
C00180
C3F180
C3F180
CC0180
CC0180
CC0180
CC0180
C3F180
C3F180
C00180
C00180
C00180
3FFE00
3FFE00
ENDCHAR
STARTCHAR 00AA
ENCODING 170
SWIDTH 1020 0
DWIDTH 17 0
BBX 12 12 2 3
BITMAP
3FC0
3FC0
F3C0
F3C0
F3C0
F3C0
3FF0
3FF0
0000
0000
FFF0
FFF0
ENDCHAR
STARTCHAR 00AB
ENCODING 171
SWIDTH 1020 0
DWIDTH 17 0
BBX 17 11 0 2
BITMAP
0F0780
0F0780
3C1E00
3C1E00
3C1E00
F0F000
3C1E00
3C1E00
3C1E00
0F0780
0F0780
ENDCHAR
STARTCHAR 00AC
ENCODING 172
SWIDTH 1020 0
DWIDTH 17 0
BBX 13 7 0 2
BITMAP
FFF8
FFF8
0078
0078
0078
0078
0078
ENDCHAR
STARTCHAR 00AD
ENCODING 173
SWIDTH 1020 0
DWIDTH 17 0
BBX 13 2 2 7
BITMAP
FFF8
FFF8
ENDCHAR
STARTCHAR 00AE
ENCODING 174
SWIDTH 1020 0
DWIDTH 17 0
BBX 17 18 0 -2
BITMAP
3FFE00
3FFE00
000000
C00180
C00180
CFC180
CFC180
CC3180
CC3180
CFC180
CFC180
CC3180
CC3180
C00180
C00180
C00180
3FFE00
3FFE00
ENDCHAR
STARTCHAR 00AF
ENCODING 175
SWIDTH 1020 0
DWIDTH 17 0
BBX 17 2 0 13
BITMAP
FFFF80
FFFF80
ENDCHAR
STARTCHAR 00B0
ENCODING 176
SWIDTH 1020 0
DWIDTH 17 0
BBX 10 9 2 7
BITMAP
3F00
3F00
3300
F3C0
F3C0
F3C0
F3C0
3F00
3F00
ENDCHAR
STARTCHAR 00B1
ENCODING 177
SWIDTH 1020 0
DWIDTH 17 0
BBX 13 15 0 0
BITMAP
0F00
0F00
0F00
0F00
FFF8
FFF8
0F00
0F00
0F00
0F00
0F00
0000
0000
FFF8
FFF8
ENDCHAR
STARTCHAR 00B2
ENCODING 178
SWIDTH 1020 0
DWIDTH 17 0
BBX 8 11 2 4
BITMAP
FC
FC
0C
0F
0F
3C
3C
F0
F0
FF
FF
ENDCHAR
STARTCHAR 00B3
ENCODING 179
SWIDTH 1020 0
DWIDTH 17 0
BBX 8 11 2 4
BITMAP
FC
FC
0C
0F
0F
3C
3C
0F
0F
FC
FC
ENDCHAR
STARTCHAR 00B4
ENCODING 180
SWIDTH 1020 0
DWIDTH 17 0
BBX 8 7 4 9
BITMAP
0F
0F
3C
3C
3C
F0
F0
ENDCHAR
STARTCHAR 00B5
ENCODING 181
SWIDTH 1020 0
DWIDTH 17 0
BBX 15 15 0 -2
BITMAP
3C1E
3C1E
3C1E
3C1E
3C1E
3C1E
3C1E
3C1E
3FF8
3FF8
3C00
3C00
3C00
F000
F000
ENDCHAR
STARTCHAR 00B6
ENCODING 182
SWIDTH 1020 0
DWIDTH 17 0
BBX 17 15 0 0
BITMAP
3FFF80
3FFF80
F3C780
F3C780
F3C780
F3C780
3FC780
3FC780
03C780
03C780
03C780
03C780
03C780
03C780
03C780
ENDCHAR
STARTCHAR 00B7
ENCODING 183
SWIDTH 1020 0
DWIDTH 17 0
BBX 4 2 6 4
BITMAP
F0
F0
ENDCHAR
STARTCHAR 00B8
ENCODING 184
SWIDTH 1020 0
DWIDTH 17 0
BBX 8 7 4 -2
BITMAP
3C
3C
0C
0F
0F
FC
FC
ENDCHAR
STARTCHAR 00B9
ENCODING 185
SWIDTH 1020 0
DWIDTH 17 0
BBX 8 11 2 4
BITMAP
3C
3C
3C
FC
FC
3C
3C
3C
3C
FF
FF
ENDCHAR
STARTCHAR 00BA
ENCODING 186
SWIDTH 1020 0
DWIDTH 17 0
BBX 10 12 2 3
BITMAP
3F00
3F00
F3C0
F3C0
F3C0
F3C0
3F00
3F00
0000
0000
FFC0
FFC0
ENDCHAR
STARTCHAR 00BB
ENCODING 187
SWIDTH 1020 0
DWIDTH 17 0
BBX 17 11 0 2
BITMAP
F0F000
F0F000
3C1E00
3C1E00
3C1E00
0F0780
3C1E00
3C1E00
3C1E00
F0F000
F0F000
ENDCHAR
STARTCHAR 00BC
ENCODING 188
SWIDTH 1020 0
DWIDTH 17 0
BBX 17 18 0 -2
BITMAP
F00780
F00780
F00600
F01E00
F01E00
F0F000
F0F000
F3C780
F3C780
0F1F80
0F1F80
0C1F80
3CFF80
30FF80
F0FF80
F0FF80
000780
000780
ENDCHAR
STARTCHAR 00BD
ENCODING 189
SWIDTH 1020 0
DWIDTH 17 0
BBX 17 18 0 -2
BITMAP
F00780
F00780
F03C00
F03C00
F03C00
F0F000
F0F000
F3FC00
F3FC00
0F0780
0F0780
3C3C00
3C3C00
303000
F0F000
F0F000
00FF80
00FF80
ENDCHAR
STARTCHAR 00BE
ENCODING 190
SWIDTH 1020 0
DWIDTH 17 0
BBX 17 18 0 -2
BITMAP
FC0000
FC0000
0C0000
0F0780
0F0780
3C1E00
3C1E00
0FF000
0FF000
FFC780
FFC780
0F1F80
0F1F80
0F1F80
3CFF80
3CFF80
F00780
F00780
ENDCHAR
STARTCHAR 00BF
ENCODING 191
SWIDTH 1020 0
DWIDTH 17 0
BBX 12 15 0 0
BITMAP
0F00
0F00
0000
0000
0F00
0F00
3C00
3C00
3C00
F000
F000
F0F0
F0F0
3FC0
3FC0
ENDCHAR
STARTCHAR 00C0
ENCODING 192
SWIDTH 1020 0
DWIDTH 17 0
BBX 15 15 0 0
BITMAP
F000
F000
0FC0
0FC0
3CF0
3CF0
F01E
F01E
FFFE
FFFE
F01E
F01E
F01E
F01E
F01E
ENDCHAR
STARTCHAR 00C1
ENCODING 193
SWIDTH 1020 0
DWIDTH 17 0
BBX 15 15 0 0
BITMAP
001E
001E
0FC0
0FC0
3CF0
3CF0
F01E
F01E
FFFE
FFFE
F01E
F01E
F01E
F01E
F01E
ENDCHAR
STARTCHAR 00C2
ENCODING 194
SWIDTH 1020 0
DWIDTH 17 0
BBX 15 15 0 0
BITMAP
3FF0
3FF0
F01E
F01E
0FC0
0FC0
3CF0
3CF0
F01E
F01E
F01E
FFFE
FFFE
F01E
F01E
ENDCHAR
STARTCHAR 00C3
ENCODING 195
SWIDTH 1020 0
DWIDTH 17 0
BBX 14 15 0 0
BITMAP
3F3C
3F3C
F3F0
F3F0
0FC0
0FC0
3CF0
3CF0
F03C
F03C
F03C
FFFC
FFFC
F03C
F03C
ENDCHAR
STARTCHAR 00C4
ENCODING 196
SWIDTH 1020 0
DWIDTH 17 0
BBX 15 15 0 0
BITMAP
F01E
F01E
0FC0
0FC0
3CF0
3CF0
F01E
F01E
FFFE
FFFE
F01E
F01E
F01E
F01E
F01E
ENDCHAR
STARTCHAR 00C5
ENCODING 197
SWIDTH 1020 0
DWIDTH 17 0
BBX 12 15 0 0
BITMAP
0F00
0F00
0F00
0F00
0000
0000
3FC0
3FC0
F0F0
F0F0
F0F0
FFF0
FFF0
F0F0
F0F0
ENDCHAR
STARTCHAR 00C6
ENCODING 198
SWIDTH 1020 0
DWIDTH 17 0
BBX 14 15 0 0
BITMAP
0FFC
0FFC
3CF0
3CF0
F0F0
F0F0
FFFC
FFFC
F0F0
F0F0
F0F0
F0F0
F0F0
F0FC
F0FC
ENDCHAR
STARTCHAR 00C7
ENCODING 199
SWIDTH 1020 0
DWIDTH 17 0
BBX 12 17 0 -2
BITMAP
3FC0
3FC0
F0F0
F0F0
F000
F000
F0F0
F0F0
3FC0
3FC0
03C0
03C0
03C0
00F0
00F0
3FC0
3FC0
ENDCHAR
STARTCHAR 00C8
ENCODING 200
SWIDTH 1020 0
DWIDTH 17 0
BBX 13 15 0 0
BITMAP
FC00
FC00
0000
0000
FFF8
FFF8
3C00
3C00
3FE0
3FE0
3C00
3C00
3C00
FFF8
FFF8
ENDCHAR
STARTCHAR 00C9
ENCODING 201
SWIDTH 1020 0
DWIDTH 17 0
BBX 12 15 0 0
BITMAP
03F0
03F0
0000
0000
FFF0
FFF0
3C00
3C00
3FC0
3FC0
3C00
3C00
3C00
FFF0
FFF0
ENDCHAR
STARTCHAR 00CA
ENCODING 202
SWIDTH 1020 0
DWIDTH 17 0
BBX 12 15 0 0
BITMAP
3FC0
3FC0
F0F0
F0F0
FFF0
FFF0
3C00
3C00
3FC0
3FC0
3C00
3C00
3C00
FFF0
FFF0
ENDCHAR
STARTCHAR 00CB
ENCODING 203
SWIDTH 1020 0
DWIDTH 17 0
BBX 12 15 0 0
BITMAP
F0F0
F0F0
0000
0000
FFF0
FFF0
3C00
3C00
3FC0
3FC0
3C00
3C00
3C00
FFF0
FFF0
ENDCHAR
STARTCHAR 00CC
ENCODING 204
SWIDTH 1020 0
DWIDTH 17 0
BBX 10 15 0 0
BITMAP
FC00
FC00
0000
0000
3FC0
3FC0
0F00
0F00
0F00
0F00
0F00
0F00
0F00
3FC0
3FC0
ENDCHAR
STARTCHAR 00CD
ENCODING 205
SWIDTH 1020 0
DWIDTH 17 0
BBX 10 15 2 0
BITMAP
0FC0
0FC0
0000
0000
FF00
FF00
3C00
3C00
3C00
3C00
3C00
3C00
3C00
FF00
FF00
ENDCHAR
STARTCHAR 00CE
ENCODING 206
SWIDTH 1020 0
DWIDTH 17 0
BBX 17 15 0 0
BITMAP
3FFE00
3FFE00
F00780
F00780
0FF000
0FF000
03C000
03C000
03C000
03C000
03C000
03C000
03C000
0FF000
0FF000
ENDCHAR
STARTCHAR 00CF
ENCODING 207
SWIDTH 1020 0
DWIDTH 17 0
BBX 12 15 0 0
BITMAP
F0F0
F0F0
0000
0000
3FC0
3FC0
0F00
0F00
0F00
0F00
0F00
0F00
0F00
3FC0
3FC0
ENDCHAR
STARTCHAR 00D0
ENCODING 208
SWIDTH 1020 0
DWIDTH 17 0
BBX 15 15 0 0
BITMAP
FFC0
FFC0
3CF0
3CF0
3C1E
3C1E
FF1E
FF1E
3C1E
3C1E
3C1E
3CF0
3CF0
FFC0
FFC0
ENDCHAR
STARTCHAR 00D1
ENCODING 209
SWIDTH 1020 0
DWIDTH 17 0
BBX 12 15 0 0
BITMAP
FFF0
FFF0
0000
0000
F0F0
F0F0
FCF0
FCF0
FCF0
FFF0
F3F0
F3F0
F3F0
F0F0
F0F0
ENDCHAR
STARTCHAR 00D2
ENCODING 210
SWIDTH 1020 0
DWIDTH 17 0
BBX 15 15 0 0
BITMAP
F000
F000
0FC0
0FC0
3CF0
3CF0
F01E
F01E
F01E
F01E
3CF0
3CF0
3CF0
0FC0
0FC0
ENDCHAR
STARTCHAR 00D3
ENCODING 211
SWIDTH 1020 0
DWIDTH 17 0
BBX 15 15 0 0
BITMAP
001E
001E
0FC0
0FC0
3CF0
3CF0
F01E
F01E
F01E
F01E
3CF0
3CF0
3CF0
0FC0
0FC0
ENDCHAR
STARTCHAR 00D4
ENCODING 212
SWIDTH 1020 0
DWIDTH 17 0
BBX 15 15 0 0
BITMAP
3FF0
3FF0
F01E
F01E
0FC0
0FC0
3CF0
3CF0
F01E
F01E
3CF0
3CF0
3CF0
0FC0
0FC0
ENDCHAR
STARTCHAR 00D5
ENCODING 213
SWIDTH 1020 0
DWIDTH 17 0
BBX 14 15 0 0
BITMAP
3F3C
3F3C
F3F0
F3F0
0FC0
0FC0
3CF0
3CF0
F03C
F03C
3CF0
3CF0
3CF0
0FC0
0FC0
ENDCHAR
STARTCHAR 00D6
ENCODING 214
SWIDTH 1020 0
DWIDTH 17 0
BBX 17 15 0 0
BITMAP
F00780
F00780
03C000
03C000
0FF000
0FF000
3C1E00
3C1E00
3C1E00
3C1E00
0C1000
0FF000
0FF000
03C000
03C000
ENDCHAR
STARTCHAR 00D7
ENCODING 215
SWIDTH 1020 0
DWIDTH 17 0
BBX 15 11 0 2
BITMAP
F01E
F01E
3CF0
3CF0
3CF0
0FC0
3CF0
3CF0
3CF0
F01E
F01E
ENDCHAR
STARTCHAR 00D8
ENCODING 216
SWIDTH 1020 0
DWIDTH 17 0
BBX 15 15 0 0
BITMAP
0FC6
0FC6
3CF0
3CF0
F0FE
F0FE
F31E
F31E
FC1E
FC1E
FC1E
3CF0
3CF0
CFC0
CFC0
ENDCHAR
STARTCHAR 00D9
ENCODING 217
SWIDTH 1020 0
DWIDTH 17 0
BBX 12 15 0 0
BITMAP
FC00
FC00
0000
0000
F0F0
F0F0
F0F0
F0F0
F0F0
F0F0
F0F0
F0F0
F0F0
3FC0
3FC0
ENDCHAR
STARTCHAR 00DA
ENCODING 218
SWIDTH 1020 0
DWIDTH 17 0
BBX 12 15 0 0
BITMAP
03F0
03F0
0000
0000
F0F0
F0F0
F0F0
F0F0
F0F0
F0F0
F0F0
F0F0
F0F0
3FC0
3FC0
ENDCHAR
STARTCHAR 00DB
ENCODING 219
SWIDTH 1020 0
DWIDTH 17 0
BBX 15 15 0 0
BITMAP
3FF0
3FF0
F01E
F01E
0000
0000
F01E
F01E
F01E
F01E
F01E
F01E
F01E
3FF0
3FF0
ENDCHAR
STARTCHAR 00DC
ENCODING 220
SWIDTH 1020 0
DWIDTH 17 0
BBX 12 15 0 0
BITMAP
F0F0
F0F0
0000
0000
F0F0
F0F0
F0F0
F0F0
F0F0
F0F0
F0F0
F0F0
F0F0
3FC0
3FC0
ENDCHAR
STARTCHAR 00DD
ENCODING 221
SWIDTH 1020 0
DWIDTH 17 0
BBX 12 15 0 0
BITMAP
03F0
03F0
0000
0000
F0F0
F0F0
F0F0
F0F0
3FC0
3FC0
0F00
0F00
0F00
3FC0
3FC0
ENDCHAR
STARTCHAR 00DE
ENCODING 222
SWIDTH 1020 0
DWIDTH 17 0
BBX 15 15 0 0
BITMAP
FF00
FF00
3C00
3C00
3FF8
3FF8
3C1E
3C1E
3FF8
3FF8
3C00
3C00
3C00
FF00
FF00
ENDCHAR
STARTCHAR 00DF
ENCODING 223
SWIDTH 1020 0
DWIDTH 17 0
BBX 15 15 0 0
BITMAP
3FC0
3FC0
F0F0
F0F0
F0F0
F0F0
F3C0
F3C0
F0F0
F0F0
F0F0
F01E
F01E
F0F0
F0F0
ENDCHAR
STARTCHAR 00E0
ENCODING 224
SWIDTH 1020 0
DWIDTH 17 0
BBX 15 15 0 0
BITMAP
FC00
FC00
0000
0000
3FC0
3FC0
00F0
00F0
3FF0
3FF0
30F0
F0F0
F0F0
3FFE
3FFE
ENDCHAR
STARTCHAR 00E1
ENCODING 225
SWIDTH 1020 0
DWIDTH 17 0
BBX 15 15 0 0
BITMAP
03F0
03F0
0000
0000
3FC0
3FC0
00F0
00F0
3FF0
3FF0
30F0
F0F0
F0F0
3FFE
3FFE
ENDCHAR
STARTCHAR 00E2
ENCODING 226
SWIDTH 1020 0
DWIDTH 17 0
BBX 17 15 0 0
BITMAP
3FFE00
3FFE00
F00780
F00780
0FF000
0FF000
001E00
001E00
0FFE00
0FFE00
0C1E00
3C1E00
3C1E00
0FFF80
0FFF80
ENDCHAR
STARTCHAR 00E3
ENCODING 227
SWIDTH 1020 0
DWIDTH 17 0
BBX 15 15 0 0
BITMAP
3F1E
3F1E
F3F0
F3F0
3FC0
3FC0
00F0
00F0
3FF0
3FF0
30F0
F0F0
F0F0
3FFE
3FFE
ENDCHAR
STARTCHAR 00E4
ENCODING 228
SWIDTH 1020 0
DWIDTH 17 0
BBX 15 15 0 0
BITMAP
F0F0
F0F0
0000
0000
3FC0
3FC0
00F0
00F0
3FF0
3FF0
30F0
F0F0
F0F0
3FFE
3FFE
ENDCHAR
STARTCHAR 00E5
ENCODING 229
SWIDTH 1020 0
DWIDTH 17 0
BBX 15 15 0 0
BITMAP
0F00
0F00
0F00
0F00
3FC0
3FC0
00F0
00F0
3FF0
3FF0
30F0
F0F0
F0F0
3FFE
3FFE
ENDCHAR
STARTCHAR 00E6
ENCODING 230
SWIDTH 1020 0
DWIDTH 17 0
BBX 17 11 0 0
BITMAP
3FFF80
3FFF80
00F000
00F000
3FFF80
3FFF80
30F000
F0F000
F0F000
3FFF80
3FFF80
ENDCHAR
STARTCHAR 00E7
ENCODING 231
SWIDTH 1020 0
DWIDTH 17 0
BBX 12 13 0 -2
BITMAP
3FC0
3FC0
F000
F000
F000
F000
3FC0
3FC0
00C0
00F0
00F0
0FC0
0FC0
ENDCHAR
STARTCHAR 00E8
ENCODING 232
SWIDTH 1020 0
DWIDTH 17 0
BBX 12 15 0 0
BITMAP
FC00
FC00
0000
0000
3FC0
3FC0
F0F0
F0F0
FFF0
FFF0
F000
F000
F000
3FC0
3FC0
ENDCHAR
STARTCHAR 00E9
ENCODING 233
SWIDTH 1020 0
DWIDTH 17 0
BBX 12 15 0 0
BITMAP
03F0
03F0
0000
0000
3FC0
3FC0
F0F0
F0F0
FFF0
FFF0
F000
F000
F000
3FC0
3FC0
ENDCHAR
STARTCHAR 00EA
ENCODING 234
SWIDTH 1020 0
DWIDTH 17 0
BBX 17 15 0 0
BITMAP
3FFE00
3FFE00
F00780
F00780
0FF000
0FF000
3C1E00
3C1E00
3FFE00
3FFE00
3C0000
3C0000
3C0000
0FF000
0FF000
ENDCHAR
STARTCHAR 00EB
ENCODING 235
SWIDTH 1020 0
DWIDTH 17 0
BBX 12 15 0 0
BITMAP
F0F0
F0F0
0000
0000
3FC0
3FC0
F0F0
F0F0
FFF0
FFF0
F000
F000
F000
3FC0
3FC0
ENDCHAR
STARTCHAR 00EC
ENCODING 236
SWIDTH 1020 0
DWIDTH 17 0
BBX 10 15 0 0
BITMAP
FC00
FC00
0000
0000
3F00
3F00
0F00
0F00
0F00
0F00
0F00
0F00
0F00
3FC0
3FC0
ENDCHAR
STARTCHAR 00ED
ENCODING 237
SWIDTH 1020 0
DWIDTH 17 0
BBX 8 15 2 0
BITMAP
3F
3F
00
00
FC
FC
3C
3C
3C
3C
3C
3C
3C
FF
FF
ENDCHAR
STARTCHAR 00EE
ENCODING 238
SWIDTH 1020 0
DWIDTH 17 0
BBX 15 15 0 0
BITMAP
3FF0
3FF0
F01E
F01E
0FC0
0FC0
03C0
03C0
03C0
03C0
03C0
03C0
03C0
0FF0
0FF0
ENDCHAR
STARTCHAR 00EF
ENCODING 239
SWIDTH 1020 0
DWIDTH 17 0
BBX 12 15 0 0
BITMAP
F0F0
F0F0
0000
0000
3F00
3F00
0F00
0F00
0F00
0F00
0F00
0F00
0F00
3FC0
3FC0
ENDCHAR
STARTCHAR 00F0
ENCODING 240
SWIDTH 1020 0
DWIDTH 17 0
BBX 15 15 0 0
BITMAP
0F00
0F00
3FFE
3FFE
00F0
00F0
3FF0
3FF0
30F0
F0F0
F0F0
F0F0
F0F0
3FC0
3FC0
ENDCHAR
STARTCHAR 00F1
ENCODING 241
SWIDTH 1020 0
DWIDTH 17 0
BBX 12 13 0 0
BITMAP
FFC0
FFC0
0000
0000
FFC0
FFC0
F0F0
F0F0
F0F0
F0F0
F0F0
F0F0
F0F0
ENDCHAR
STARTCHAR 00F2
ENCODING 242
SWIDTH 1020 0
DWIDTH 17 0
BBX 12 13 0 0
BITMAP
FC00
FC00
0000
0000
3FC0
3FC0
30C0
F0F0
F0F0
F0F0
F0F0
3FC0
3FC0
ENDCHAR
STARTCHAR 00F3
ENCODING 243
SWIDTH 1020 0
DWIDTH 17 0
BBX 12 13 0 0
BITMAP
03F0
03F0
0000
0000
3FC0
3FC0
30C0
F0F0
F0F0
F0F0
F0F0
3FC0
3FC0
ENDCHAR
STARTCHAR 00F4
ENCODING 244
SWIDTH 1020 0
DWIDTH 17 0
BBX 12 15 0 0
BITMAP
3FC0
3FC0
F0F0
F0F0
0000
0000
3FC0
3FC0
30C0
F0F0
F0F0
F0F0
F0F0
3FC0
3FC0
ENDCHAR
STARTCHAR 00F5
ENCODING 245
SWIDTH 1020 0
DWIDTH 17 0
BBX 15 15 0 0
BITMAP
3F1E
3F1E
F3F0
F3F0
0000
0000
3FC0
3FC0
30C0
F0F0
F0F0
F0F0
F0F0
3FC0
3FC0
ENDCHAR
STARTCHAR 00F6
ENCODING 246
SWIDTH 1020 0
DWIDTH 17 0
BBX 12 13 0 0
BITMAP
F0F0
F0F0
0000
0000
3FC0
3FC0
30C0
F0F0
F0F0
F0F0
F0F0
3FC0
3FC0
ENDCHAR
STARTCHAR 00F7
ENCODING 247
SWIDTH 1020 0
DWIDTH 17 0
BBX 13 15 0 0
BITMAP
0F00
0F00
0F00
0F00
0000
0000
FFF8
FFF8
0000
0000
0000
0F00
0F00
0F00
0F00
ENDCHAR
STARTCHAR 00F8
ENCODING 248
SWIDTH 1020 0
DWIDTH 17 0
BBX 15 15 0 -2
BITMAP
0006
0006
3FF0
3FF0
F0FE
F0FE
F31E
F31E
FC1E
FC1E
FC1E
3FF0
3FF0
C000
C000
ENDCHAR
STARTCHAR 00F9
ENCODING 249
SWIDTH 1020 0
DWIDTH 17 0
BBX 15 13 0 0
BITMAP
FC00
FC00
0000
0000
F0F0
F0F0
F0F0
F0F0
F0F0
F0F0
F0F0
3FFE
3FFE
ENDCHAR
STARTCHAR 00FA
ENCODING 250
SWIDTH 1020 0
DWIDTH 17 0
BBX 15 13 0 0
BITMAP
03F0
03F0
0000
0000
F0F0
F0F0
F0F0
F0F0
F0F0
F0F0
F0F0
3FFE
3FFE
ENDCHAR
STARTCHAR 00FB
ENCODING 251
SWIDTH 1020 0
DWIDTH 17 0
BBX 15 15 0 0
BITMAP
3FC0
3FC0
F0F0
F0F0
0000
0000
F0F0
F0F0
F0F0
F0F0
F0F0
F0F0
F0F0
3FFE
3FFE
ENDCHAR
STARTCHAR 00FC
ENCODING 252
SWIDTH 1020 0
DWIDTH 17 0
BBX 15 13 0 0
BITMAP
F0F0
F0F0
0000
0000
F0F0
F0F0
F0F0
F0F0
F0F0
F0F0
F0F0
3FFE
3FFE
ENDCHAR
STARTCHAR 00FD
ENCODING 253
SWIDTH 1020 0
DWIDTH 17 0
BBX 12 15 0 -2
BITMAP
03F0
03F0
0000
0000
F0F0
F0F0
F0F0
F0F0
3FF0
3FF0
00F0
00F0
00F0
3FC0
3FC0
ENDCHAR
STARTCHAR 00FE
ENCODING 254
SWIDTH 1020 0
DWIDTH 17 0
BBX 15 17 0 -2
BITMAP
FC00
FC00
3C00
3C00
3FF8
3FF8
3C1E
3C1E
3C1E
3C1E
3FF8
3FF8
3C00
3C00
3C00
FF00
FF00
ENDCHAR
STARTCHAR 00FF
ENCODING 255
SWIDTH 1020 0
DWIDTH 17 0
BBX 12 15 0 -2
BITMAP
F0F0
F0F0
0000
0000
F0F0
F0F0
F0F0
F0F0
3FF0
3FF0
00F0
00F0
00F0
FFC0
FFC0
ENDCHAR
STARTCHAR 0100
ENCODING 256
SWIDTH 1020 0
DWIDTH 17 0
BBX 15 15 0 0
BITMAP
FFFE
FFFE
0000
0000
0FC0
0FC0
3CF0
3CF0
F01E
F01E
F01E
FFFE
FFFE
F01E
F01E
ENDCHAR
STARTCHAR 0101
ENCODING 257
SWIDTH 1020 0
DWIDTH 17 0
BBX 15 15 0 0
BITMAP
3FF0
3FF0
0000
0000
3FC0
3FC0
00F0
00F0
3FF0
3FF0
30F0
F0F0
F0F0
3FFE
3FFE
ENDCHAR
STARTCHAR 0102
ENCODING 258
SWIDTH 1020 0
DWIDTH 17 0
BBX 15 15 0 0
BITMAP
F01E
F01E
3FF0
3FF0
0FC0
0FC0
3CF0
3CF0
F01E
F01E
F01E
FFFE
FFFE
F01E
F01E
ENDCHAR
STARTCHAR 0103
ENCODING 259
SWIDTH 1020 0
DWIDTH 17 0
BBX 15 15 0 0
BITMAP
F0F0
F0F0
3FC0
3FC0
3FC0
3FC0
00F0
00F0
3FF0
3FF0
30F0
F0F0
F0F0
3FFE
3FFE
ENDCHAR
STARTCHAR 0104
ENCODING 260
SWIDTH 1020 0
DWIDTH 17 0
BBX 14 17 0 -2
BITMAP
0F00
0F00
3FC0
3FC0
F0F0
F0F0
F0F0
F0F0
FFF0
FFF0
F0F0
F0F0
F0F0
F3F0
F3F0
00FC
00FC
ENDCHAR
STARTCHAR 0105
ENCODING 261
SWIDTH 1020 0
DWIDTH 17 0
BBX 17 13 0 -2
BITMAP
3FC000
3FC000
00F000
00F000
3FF000
3FF000
F0F000
F0F000
30F000
3FFE00
3FFE00
001F80
001F80
ENDCHAR
STARTCHAR 0106
ENCODING 262
SWIDTH 1020 0
DWIDTH 17 0
BBX 14 15 0 0
BITMAP
00FC
00FC
0FF0
0FF0
3C3C
3C3C
F000
F000
F000
F000
3000
3C3C
3C3C
0FF0
0FF0
ENDCHAR
STARTCHAR 0107
ENCODING 263
SWIDTH 1020 0
DWIDTH 17 0
BBX 12 15 0 0
BITMAP
03F0
03F0
0000
0000
3FC0
3FC0
F0F0
F0F0
F000
F000
F000
F0F0
F0F0
3FC0
3FC0
ENDCHAR
STARTCHAR 0108
ENCODING 264
SWIDTH 1020 0
DWIDTH 17 0
BBX 17 15 0 0
BITMAP
3FFE00
3FFE00
F00780
F00780
0FF000
0FF000
3C1E00
3C1E00
F00000
F00000
300000
3C1E00
3C1E00
0FF000
0FF000
ENDCHAR
STARTCHAR 0109
ENCODING 265
SWIDTH 1020 0
DWIDTH 17 0
BBX 10 15 2 0
BITMAP
3F00
3F00
F3C0
F3C0
0000
0000
3FC0
3FC0
3000
F000
F000
F000
F000
3FC0
3FC0
ENDCHAR
STARTCHAR 010A
ENCODING 266
SWIDTH 1020 0
DWIDTH 17 0
BBX 15 15 0 0
BITMAP
03C0
03C0
0000
0000
0FF0
0FF0
3C1E
3C1E
F000
F000
3000
3C1E
3C1E
0FF0
0FF0
ENDCHAR
STARTCHAR 010B
ENCODING 267
SWIDTH 1020 0
DWIDTH 17 0
BBX 10 13 2 0
BITMAP
0F00
0F00
0000
0000
3FC0
3FC0
3000
F000
F000
F000
F000
3FC0
3FC0
ENDCHAR
STARTCHAR 010C
ENCODING 268
SWIDTH 1020 0
DWIDTH 17 0
BBX 17 15 0 0
BITMAP
F00780
F00780
3FFE00
3FFE00
0FF000
0FF000
3C1E00
3C1E00
F00000
F00000
300000
3C1E00
3C1E00
0FF000
0FF000
ENDCHAR
STARTCHAR 010D
ENCODING 269
SWIDTH 1020 0
DWIDTH 17 0
BBX 10 15 2 0
BITMAP
F3C0
F3C0
3F00
3F00
0000
0000
3FC0
3FC0
3000
F000
F000
F000
F000
3FC0
3FC0
ENDCHAR
STARTCHAR 010E
ENCODING 270
SWIDTH 1020 0
DWIDTH 17 0
BBX 15 15 0 0
BITMAP
F0F0
F0F0
3FC0
3FC0
FFF0
FFF0
3C1E
3C1E
3C1E
3C1E
3C1E
3C1E
3C1E
FFF0
FFF0
ENDCHAR
STARTCHAR 010F
ENCODING 271
SWIDTH 1020 0
DWIDTH 17 0
BBX 17 15 0 0
BITMAP
03F180
03F180
00FF80
00FF80
00FE00
00FE00
3FF000
3FF000
30F000
F0F000
F0F000
F0F000
F0F000
3F1E00
3F1E00
ENDCHAR
STARTCHAR 0110
ENCODING 272
SWIDTH 1020 0
DWIDTH 17 0
BBX 15 15 0 0
BITMAP
FFC0
FFC0
3CF0
3CF0
3C1E
3C1E
FF1E
FF1E
3C1E
3C1E
3C1E
3CF0
3CF0
FFC0
FFC0
ENDCHAR
STARTCHAR 0111
ENCODING 273
SWIDTH 1020 0
DWIDTH 17 0
BBX 14 15 0 0
BITMAP
00F0
00F0
0FFC
0FFC
00F0
00F0
3FF0
3FF0
30F0
F0F0
F0F0
F0F0
F0F0
3F3C
3F3C
ENDCHAR
STARTCHAR 0112
ENCODING 274
SWIDTH 1020 0
DWIDTH 17 0
BBX 13 15 0 0
BITMAP
FFF8
FFF8
0000
0000
FFF8
FFF8
3C00
3C00
3FE0
3FE0
3C00
3C00
3C00
FFF8
FFF8
ENDCHAR
STARTCHAR 0113
ENCODING 275
SWIDTH 1020 0
DWIDTH 17 0
BBX 12 15 0 0
BITMAP
FFF0
FFF0
0000
0000
3FC0
3FC0
F0F0
F0F0
FFF0
FFF0
F000
F000
F000
3FC0
3FC0
ENDCHAR
STARTCHAR 0114
ENCODING 276
SWIDTH 1020 0
DWIDTH 17 0
BBX 12 15 0 0
BITMAP
F0F0
F0F0
3FC0
3FC0
FFF0
FFF0
3C00
3C00
3FC0
3FC0
3C00
3C00
3C00
FFF0
FFF0
ENDCHAR
STARTCHAR 0115
ENCODING 277
SWIDTH 1020 0
DWIDTH 17 0
BBX 12 15 0 0
BITMAP
F0F0
F0F0
3FC0
3FC0
3FC0
3FC0
F0F0
F0F0
FFF0
FFF0
F000
F000
F000
3FC0
3FC0
ENDCHAR
STARTCHAR 0116
ENCODING 278
SWIDTH 1020 0
DWIDTH 17 0
BBX 13 15 0 0
BITMAP
0F00
0F00
0000
0000
FFF8
FFF8
3C00
3C00
3FE0
3FE0
3C00
3C00
3C00
FFF8
FFF8
ENDCHAR
STARTCHAR 0117
ENCODING 279
SWIDTH 1020 0
DWIDTH 17 0
BBX 12 15 0 0
BITMAP
0F00
0F00
0000
0000
3FC0
3FC0
F0F0
F0F0
FFF0
FFF0
F000
F000
F000
3FC0
3FC0
ENDCHAR
STARTCHAR 0118
ENCODING 280
SWIDTH 1020 0
DWIDTH 17 0
BBX 14 17 0 -2
BITMAP
FFFC
FFFC
3C0C
3C0C
3CC0
3CC0
3FC0
3FC0
3CC0
3CC0
3CC0
3C0C
3C0C
FFFC
FFFC
00F0
00F0
ENDCHAR
STARTCHAR 0119
ENCODING 281
SWIDTH 1020 0
DWIDTH 17 0
BBX 14 13 0 -2
BITMAP
3FC0
3FC0
F0F0
F0F0
FFF0
FFF0
F000
F000
F000
3FF0
3FF0
00FC
00FC
ENDCHAR
STARTCHAR 011A
ENCODING 282
SWIDTH 1020 0
DWIDTH 17 0
BBX 12 15 0 0
BITMAP
3CF0
3CF0
0FC0
0FC0
FFF0
FFF0
3C00
3C00
3FC0
3FC0
3C00
3C00
3C00
FFF0
FFF0
ENDCHAR
STARTCHAR 011B
ENCODING 283
SWIDTH 1020 0
DWIDTH 17 0
BBX 12 15 0 0
BITMAP
3CF0
3CF0
0FC0
0FC0
3FC0
3FC0
F0F0
F0F0
FFF0
FFF0
F000
F000
F000
3FC0
3FC0
ENDCHAR
STARTCHAR 011C
ENCODING 284
SWIDTH 1020 0
DWIDTH 17 0
BBX 17 15 0 0
BITMAP
3FFC00
3FFC00
F00780
F00780
0FFC00
0FFC00
3C0000
3C0000
F0FC00
F0FC00
3C3C00
3C3C00
3C3C00
0FFC00
0FFC00
ENDCHAR
STARTCHAR 011D
ENCODING 285
SWIDTH 1020 0
DWIDTH 17 0
BBX 15 17 0 -2
BITMAP
0FC0
0FC0
3CF0
3CF0
0000
0000
3F1E
3F1E
F0F0
F0F0
3FF0
3FF0
00F0
00F0
00F0
FFC0
FFC0
ENDCHAR
STARTCHAR 011E
ENCODING 286
SWIDTH 1020 0
DWIDTH 17 0
BBX 15 15 0 0
BITMAP
0F1E
0F1E
03F0
03F0
0FFE
0FFE
3C00
3C00
F0FE
F0FE
3C1E
3C1E
3C1E
0FFE
0FFE
ENDCHAR
STARTCHAR 011F
ENCODING 287
SWIDTH 1020 0
DWIDTH 17 0
BBX 15 17 0 -2
BITMAP
3C1E
3C1E
0FF0
0FF0
0000
0000
3F1E
3F1E
F0F0
F0F0
3FF0
3FF0
00F0
00F0
00F0
FFC0
FFC0
ENDCHAR
STARTCHAR 0120
ENCODING 288
SWIDTH 1020 0
DWIDTH 17 0
BBX 14 15 0 0
BITMAP
03C0
03C0
0000
0000
0FFC
0FFC
3C00
3C00
F0FC
F0FC
3C3C
3C3C
3C3C
0FFC
0FFC
ENDCHAR
STARTCHAR 0121
ENCODING 289
SWIDTH 1020 0
DWIDTH 17 0
BBX 15 17 0 -2
BITMAP
03C0
03C0
0000
0000
3F1E
3F1E
F0F0
F0F0
F0F0
F0F0
3FF0
3FF0
00F0
00F0
00F0
FFC0
FFC0
ENDCHAR
STARTCHAR 0122
ENCODING 290
SWIDTH 1020 0
DWIDTH 17 0
BBX 15 17 0 -2
BITMAP
0FF0
0FF0
3C1E
3C1E
F000
F000
F0FE
F0FE
3C1E
3C1E
0FFE
0FFE
00F0
00F0
00F0
0FC0
0FC0
ENDCHAR
STARTCHAR 0123
ENCODING 291
SWIDTH 1020 0
DWIDTH 17 0
BBX 15 17 0 -2
BITMAP
00FE
00FE
03C0
03C0
3F1E
3F1E
F0F0
F0F0
F0F0
F0F0
3FF0
3FF0
00F0
00F0
00F0
FFC0
FFC0
ENDCHAR
STARTCHAR 0124
ENCODING 292
SWIDTH 1020 0
DWIDTH 17 0
BBX 12 15 0 0
BITMAP
3FC0
3FC0
F0F0
F0F0
0000
0000
F0F0
F0F0
FFF0
FFF0
F0F0
F0F0
F0F0
F0F0
F0F0
ENDCHAR
STARTCHAR 0125
ENCODING 293
SWIDTH 1020 0
DWIDTH 17 0
BBX 17 15 0 0
BITMAP
FCFE00
FCFE00
3FE780
3FE780
3C0000
3C0000
3CF000
3CF000
3F1E00
3F1E00
3C1E00
3C1E00
3C1E00
FC1E00
FC1E00
ENDCHAR
STARTCHAR 0126
ENCODING 294
SWIDTH 1020 0
DWIDTH 17 0
BBX 17 15 0 0
BITMAP
3C1E00
3C1E00
FFFF80
FFFF80
3C1E00
3C1E00
3FFE00
3FFE00
3C1E00
3C1E00
3C1E00
3C1E00
3C1E00
3C1E00
3C1E00
ENDCHAR
STARTCHAR 0127
ENCODING 295
SWIDTH 1020 0
DWIDTH 17 0
BBX 15 15 0 0
BITMAP
FC00
FC00
3C00
3C00
FF00
FF00
3CF0
3CF0
3F1E
3F1E
3C1E
3C1E
3C1E
FC1E
FC1E
ENDCHAR
STARTCHAR 0128
ENCODING 296
SWIDTH 1020 0
DWIDTH 17 0
BBX 15 15 0 0
BITMAP
3F1E
3F1E
F3F0
F3F0
0000
0000
3FC0
3FC0
0F00
0F00
0F00
0F00
0F00
3FC0
3FC0
ENDCHAR
STARTCHAR 0129
ENCODING 297
SWIDTH 1020 0
DWIDTH 17 0
BBX 15 15 0 0
BITMAP
3F1E
3F1E
F3F0
F3F0
0000
0000
3F00
3F00
0F00
0F00
0F00
0F00
0F00
3FC0
3FC0
ENDCHAR
STARTCHAR 012A
ENCODING 298
SWIDTH 1020 0
DWIDTH 17 0
BBX 13 15 0 0
BITMAP
FFF8
FFF8
0000
0000
3FC0
3FC0
0F00
0F00
0F00
0F00
0F00
0F00
0F00
3FC0
3FC0
ENDCHAR
STARTCHAR 012B
ENCODING 299
SWIDTH 1020 0
DWIDTH 17 0
BBX 10 15 0 0
BITMAP
FFC0
FFC0
0000
0000
3F00
3F00
0F00
0F00
0F00
0F00
0F00
0F00
0F00
3FC0
3FC0
ENDCHAR
STARTCHAR 012C
ENCODING 300
SWIDTH 1020 0
DWIDTH 17 0
BBX 12 15 0 0
BITMAP
F0F0
F0F0
3FC0
3FC0
0000
0000
3FC0
3FC0
0F00
0F00
0F00
0F00
0F00
3FC0
3FC0
ENDCHAR
STARTCHAR 012D
ENCODING 301
SWIDTH 1020 0
DWIDTH 17 0
BBX 12 15 0 0
BITMAP
F0F0
F0F0
3FC0
3FC0
0000
0000
3F00
3F00
0F00
0F00
0F00
0F00
0F00
3FC0
3FC0
ENDCHAR
STARTCHAR 012E
ENCODING 302
SWIDTH 1020 0
DWIDTH 17 0
BBX 10 17 2 -2
BITMAP
FF00
FF00
3C00
3C00
3C00
3C00
3C00
3C00
3C00
3C00
3C00
3C00
3C00
FF00
FF00
0FC0
0FC0
ENDCHAR
STARTCHAR 012F
ENCODING 303
SWIDTH 1020 0
DWIDTH 17 0
BBX 10 17 2 -2
BITMAP
3C00
3C00
0000
0000
FC00
FC00
3C00
3C00
3C00
3C00
3C00
3C00
3C00
FF00
FF00
0FC0
0FC0
ENDCHAR
STARTCHAR 0130
ENCODING 304
SWIDTH 1020 0
DWIDTH 17 0
BBX 8 15 2 0
BITMAP
3C
3C
00
00
FF
FF
3C
3C
3C
3C
3C
3C
3C
FF
FF
ENDCHAR
STARTCHAR 0131
ENCODING 305
SWIDTH 1020 0
DWIDTH 17 0
BBX 8 11 2 0
BITMAP
FC
FC
3C
3C
3C
3C
3C
3C
3C
FF
FF
ENDCHAR
STARTCHAR 0132
ENCODING 306
SWIDTH 1020 0
DWIDTH 17 0
BBX 15 15 0 0
BITMAP
F01E
F01E
F01E
F01E
F01E
F01E
F01E
F01E
F01E
F31E
F31E
F31E
F31E
F3F8
F3F8
ENDCHAR
STARTCHAR 0133
ENCODING 307
SWIDTH 1020 0
DWIDTH 17 0
BBX 15 17 0 -2
BITMAP
F01E
F01E
0000
0000
F01E
F01E
F01E
F01E
F01E
F01E
F01E
F31E
F31E
F31E
F31E
03F8
03F8
ENDCHAR
STARTCHAR 0134
ENCODING 308
SWIDTH 1020 0
DWIDTH 17 0
BBX 17 15 0 0
BITMAP
0FFC00
0FFC00
3C0780
3C0780
03F000
03F000
00F000
00F000
00F000
00F000
00F000
F0F000
F0F000
3FC000
3FC000
ENDCHAR
STARTCHAR 0135
ENCODING 309
SWIDTH 1020 0
DWIDTH 17 0
BBX 17 17 0 -2
BITMAP
03FC00
03FC00
0F0780
0F0780
000000
000000
00F000
00F000
00F000
00F000
00F000
F0F000
F0F000
F0F000
F0F000
3FC000
3FC000
ENDCHAR
STARTCHAR 0136
ENCODING 310
SWIDTH 1020 0
DWIDTH 17 0
BBX 14 17 0 -2
BITMAP
FC3C
FC3C
3C3C
3C3C
3CF0
3CF0
3FC0
3FC0
3CF0
3CF0
3CF0
3C3C
3C3C
FC3C
FC3C
03F0
03F0
ENDCHAR
STARTCHAR 0137
ENCODING 311
SWIDTH 1020 0
DWIDTH 17 0
BBX 14 17 0 -2
BITMAP
FC00
FC00
3C00
3C00
3C3C
3C3C
3CF0
3CF0
3FC0
3FC0
3CF0
3CF0
3CF0
FC3C
FC3C
03F0
03F0
ENDCHAR
STARTCHAR 0138
ENCODING 312
SWIDTH 1020 0
DWIDTH 17 0
BBX 14 11 0 0
BITMAP
FC3C
FC3C
3CF0
3CF0
3FC0
3FC0
3CF0
3CF0
3CF0
3C3C
3C3C
ENDCHAR
STARTCHAR 0139
ENCODING 313
SWIDTH 1020 0
DWIDTH 17 0
BBX 17 15 0 0
BITMAP
FF0780
FF0780
3C1E00
3C1E00
3C0000
3C0000
3C0000
3C0000
3C0600
3C0600
3C0600
3C1E00
3C1E00
FFFE00
FFFE00
ENDCHAR
STARTCHAR 013A
ENCODING 314
SWIDTH 1020 0
DWIDTH 17 0
BBX 15 15 2 0
BITMAP
FC1E
FC1E
3CF0
3CF0
3C00
3C00
3C00
3C00
3C00
3C00
3C00
3C00
3C00
FF00
FF00
ENDCHAR
STARTCHAR 013B
ENCODING 315
SWIDTH 1020 0
DWIDTH 17 0
BBX 15 17 0 -2
BITMAP
FF00
FF00
3C00
3C00
3C00
3C00
3C00
3C06
3C06
3C3E
3C3E
FFFE
FFFE
03C0
03C0
3F00
3F00
ENDCHAR
STARTCHAR 013C
ENCODING 316
SWIDTH 1020 0
DWIDTH 17 0
BBX 8 17 2 -2
BITMAP
FC
FC
3C
3C
3C
3C
3C
3C
3C
3C
3C
FF
FF
0F
0F
FC
FC
ENDCHAR
STARTCHAR 013D
ENCODING 317
SWIDTH 1020 0
DWIDTH 17 0
BBX 15 15 0 0
BITMAP
FF1E
FF1E
3C1E
3C1E
3CF0
3CF0
3C00
3C00
3C06
3C06
3C06
3C1E
3C1E
FFFE
FFFE
ENDCHAR
STARTCHAR 013E
ENCODING 318
SWIDTH 1020 0
DWIDTH 17 0
BBX 15 15 0 0
BITMAP
FC1E
FC1E
3C1E
3C1E
3CF0
3CF0
3C00
3C00
3C00
3C00
3C00
3C00
3C00
FF00
FF00
ENDCHAR
STARTCHAR 013F
ENCODING 319
SWIDTH 1020 0
DWIDTH 17 0
BBX 15 15 0 0
BITMAP
FF00
FF00
3C00
3C00
3C1E
3C1E
3C00
3C00
3C06
3C06
3C06
3C1E
3C1E
FFFE
FFFE
ENDCHAR
STARTCHAR 0140
ENCODING 320
SWIDTH 1020 0
DWIDTH 17 0
BBX 12 15 2 0
BITMAP
FC00
FC00
3C00
3C00
3CF0
3CF0
3C00
3C00
3C00
3C00
3C00
3C00
3C00
FF00
FF00
ENDCHAR
STARTCHAR 0141
ENCODING 321
SWIDTH 1020 0
DWIDTH 17 0
BBX 15 15 0 0
BITMAP
FF00
FF00
3C00
3C00
3FC0
3FC0
3F00
3F00
FC06
FC06
3C3E
3C3E
3C3E
FFFE
FFFE
ENDCHAR
STARTCHAR 0142
ENCODING 322
SWIDTH 1020 0
DWIDTH 17 0
BBX 15 15 0 0
BITMAP
3F00
3F00
0F1E
0F1E
0FF8
0FF8
0FC0
0FC0
0F00
0F00
3F00
3F00
3F00
F3C0
F3C0
ENDCHAR
STARTCHAR 0143
ENCODING 323
SWIDTH 1020 0
DWIDTH 17 0
BBX 14 15 0 0
BITMAP
00FC
00FC
0000
0000
FC3C
FC3C
FF3C
FF3C
F33C
F3FC
F0FC
F0FC
F0FC
F03C
F03C
ENDCHAR
STARTCHAR 0144
ENCODING 324
SWIDTH 1020 0
DWIDTH 17 0
BBX 12 15 0 0
BITMAP
03F0
03F0
0000
0000
FFC0
FFC0
F0F0
F0F0
F0F0
F0F0
F0F0
F0F0
F0F0
F0F0
F0F0
ENDCHAR
STARTCHAR 0145
ENCODING 325
SWIDTH 1020 0
DWIDTH 17 0
BBX 15 17 0 -2
BITMAP
F01E
F01E
FC1E
FC1E
FF1E
FF1E
F3FE
F3FE
F0FE
F0FE
F01E
F01E
F01E
03C0
03C0
3F00
3F00
ENDCHAR
STARTCHAR 0146
ENCODING 326
SWIDTH 1020 0
DWIDTH 17 0
BBX 12 13 0 -2
BITMAP
FFC0
FFC0
F0F0
F0F0
F0F0
F0F0
F0F0
F0F0
F0F0
0F00
0F00
FC00
FC00
ENDCHAR
STARTCHAR 0147
ENCODING 327
SWIDTH 1020 0
DWIDTH 17 0
BBX 14 15 0 0
BITMAP
3CF0
3CF0
0FC0
0FC0
FC3C
FC3C
FF3C
FF3C
FF3C
F3FC
F0FC
F0FC
F0FC
F03C
F03C
ENDCHAR
STARTCHAR 0148
ENCODING 328
SWIDTH 1020 0
DWIDTH 17 0
BBX 12 15 0 0
BITMAP
F0F0
F0F0
3FC0
3FC0
0000
0000
FFC0
FFC0
F0F0
F0F0
F0F0
F0F0
F0F0
F0F0
F0F0
ENDCHAR
STARTCHAR 0149
ENCODING 329
SWIDTH 1020 0
DWIDTH 17 0
BBX 12 15 0 0
BITMAP
3C00
3C00
F000
F000
0000
0000
FFC0
FFC0
F0F0
F0F0
F0F0
F0F0
F0F0
F0F0
F0F0
ENDCHAR
STARTCHAR 014A
ENCODING 330
SWIDTH 1020 0
DWIDTH 17 0
BBX 15 17 0 -2
BITMAP
F01E
F01E
FC1E
FC1E
FF9E
FF9E
F3FE
F3FE
F07E
F07E
F01E
F01E
F01E
F01E
F01E
03F0
03F0
ENDCHAR
STARTCHAR 014B
ENCODING 331
SWIDTH 1020 0
DWIDTH 17 0
BBX 12 13 0 -2
BITMAP
FFC0
FFC0
F0F0
F0F0
F0F0
F0F0
F0F0
F0F0
F0F0
F0F0
F0F0
03C0
03C0
ENDCHAR
STARTCHAR 014C
ENCODING 332
SWIDTH 1020 0
DWIDTH 17 0
BBX 15 15 0 0
BITMAP
FFFE
FFFE
0000
0000
0FC0
0FC0
3CF0
3CF0
F01E
F01E
3CF0
3CF0
3CF0
0FC0
0FC0
ENDCHAR
STARTCHAR 014D
ENCODING 333
SWIDTH 1020 0
DWIDTH 17 0
BBX 12 13 0 0
BITMAP
FFF0
FFF0
0000
0000
3FC0
3FC0
30C0
F0F0
F0F0
F0F0
F0F0
3FC0
3FC0
ENDCHAR
STARTCHAR 014E
ENCODING 334
SWIDTH 1020 0
DWIDTH 17 0
BBX 15 15 0 0
BITMAP
F01E
F01E
3FF0
3FF0
0FC0
0FC0
3CF0
3CF0
F01E
F01E
3CF0
3CF0
3CF0
0FC0
0FC0
ENDCHAR
STARTCHAR 014F
ENCODING 335
SWIDTH 1020 0
DWIDTH 17 0
BBX 12 15 0 0
BITMAP
F0F0
F0F0
3FC0
3FC0
0000
0000
3FC0
3FC0
30C0
F0F0
F0F0
F0F0
F0F0
3FC0
3FC0
ENDCHAR
STARTCHAR 0150
ENCODING 336
SWIDTH 1020 0
DWIDTH 17 0
BBX 15 15 0 0
BITMAP
0F1E
0F1E
0000
0000
0FC0
0FC0
3CF0
3CF0
F01E
F01E
3CF0
3CF0
3CF0
0FC0
0FC0
ENDCHAR
STARTCHAR 0151
ENCODING 337
SWIDTH 1020 0
DWIDTH 17 0
BBX 15 13 0 0
BITMAP
0F1E
0F1E
0000
0000
3FC0
3FC0
30C0
F0F0
F0F0
F0F0
F0F0
3FC0
3FC0
ENDCHAR
STARTCHAR 0152
ENCODING 338
SWIDTH 1020 0
DWIDTH 17 0
BBX 14 15 0 0
BITMAP
0FFC
0FFC
3CF0
3CF0
F0F0
F0F0
F0FC
F0FC
F0F0
F0F0
F0F0
3CF0
3CF0
0FFC
0FFC
ENDCHAR
STARTCHAR 0153
ENCODING 339
SWIDTH 1020 0
DWIDTH 17 0
BBX 15 11 0 0
BITMAP
3FFE
3FFE
F3C0
F3C0
F3FE
F3FE
F3C0
F3C0
F3C0
3FFE
3FFE
ENDCHAR
STARTCHAR 0154
ENCODING 340
SWIDTH 1020 0
DWIDTH 17 0
BBX 15 15 0 0
BITMAP
00FE
00FE
0000
0000
FFF0
FFF0
3C1E
3C1E
3FF0
3FF0
3CF0
3CF0
3CF0
FC1E
FC1E
ENDCHAR
STARTCHAR 0155
ENCODING 341
SWIDTH 1020 0
DWIDTH 17 0
BBX 14 15 0 0
BITMAP
00FC
00FC
0000
0000
F3F0
F3F0
3F3C
3F3C
3C3C
3C3C
3C00
3C00
3C00
FF00
FF00
ENDCHAR
STARTCHAR 0156
ENCODING 342
SWIDTH 1020 0
DWIDTH 17 0
BBX 15 17 0 -2
BITMAP
FFF0
FFF0
3C1E
3C1E
3C1E
3C1E
3FF0
3FF0
3CF0
3CF0
FC1E
FC1E
0000
03C0
03C0
3F00
3F00
ENDCHAR
STARTCHAR 0157
ENCODING 343
SWIDTH 1020 0
DWIDTH 17 0
BBX 15 13 0 -2
BITMAP
F3F0
F3F0
3F1E
3F1E
3C00
3C00
FF00
FF00
0300
03C0
03C0
3F00
3F00
ENDCHAR
STARTCHAR 0158
ENCODING 344
SWIDTH 1020 0
DWIDTH 17 0
BBX 15 15 0 0
BITMAP
3CF0
3CF0
0FC0
0FC0
FFF0
FFF0
3C1E
3C1E
3FF0
3FF0
3CF0
3CF0
3CF0
FC1E
FC1E
ENDCHAR
STARTCHAR 0159
ENCODING 345
SWIDTH 1020 0
DWIDTH 17 0
BBX 14 15 0 0
BITMAP
3CF0
3CF0
0FC0
0FC0
F3F0
F3F0
3F3C
3F3C
3F3C
3C3C
3C00
3C00
3C00
FF00
FF00
ENDCHAR
STARTCHAR 015A
ENCODING 346
SWIDTH 1020 0
DWIDTH 17 0
BBX 17 15 0 0
BITMAP
3FC780
3FC780
F0F000
F0F000
FC0000
FC0000
3F0000
3F0000
030000
03F000
00F000
F0F000
F0F000
3FC000
3FC000
ENDCHAR
STARTCHAR 015B
ENCODING 347
SWIDTH 1020 0
DWIDTH 17 0
BBX 12 15 0 0
BITMAP
03F0
03F0
0000
0000
3FF0
3FF0
F000
F000
3FC0
3FC0
00C0
00F0
00F0
FFC0
FFC0
ENDCHAR
STARTCHAR 015C
ENCODING 348
SWIDTH 1020 0
DWIDTH 17 0
BBX 12 15 0 0
BITMAP
0FC0
0FC0
3CF0
3CF0
3FF0
3FF0
FC00
FC00
3FC0
3FC0
3FC0
03F0
03F0
FFC0
FFC0
ENDCHAR
STARTCHAR 015D
ENCODING 349
SWIDTH 1020 0
DWIDTH 17 0
BBX 12 15 0 0
BITMAP
0FC0
0FC0
3CF0
3CF0
0000
0000
3FC0
3FC0
FC00
FC00
0000
03F0
03F0
3FC0
3FC0
ENDCHAR
STARTCHAR 015E
ENCODING 350
SWIDTH 1020 0
DWIDTH 17 0
BBX 12 17 0 -2
BITMAP
3FC0
3FC0
F0F0
F0F0
FC00
FC00
3F00
3F00
03F0
03F0
F0F0
F0F0
30C0
3FC0
3FC0
FC00
FC00
ENDCHAR
STARTCHAR 015F
ENCODING 351
SWIDTH 1020 0
DWIDTH 17 0
BBX 12 13 0 -2
BITMAP
3FF0
3FF0
F000
F000
3FC0
3FC0
00F0
00F0
00C0
FFC0
FFC0
FC00
FC00
ENDCHAR
STARTCHAR 0160
ENCODING 352
SWIDTH 1020 0
DWIDTH 17 0
BBX 12 15 0 0
BITMAP
F0F0
F0F0
3FC0
3FC0
F0F0
F0F0
3C00
3C00
03C0
03C0
00C0
F0F0
F0F0
3FC0
3FC0
ENDCHAR
STARTCHAR 0161
ENCODING 353
SWIDTH 1020 0
DWIDTH 17 0
BBX 12 15 0 0
BITMAP
3CF0
3CF0
0FC0
0FC0
3FF0
3FF0
F000
F000
3FC0
3FC0
00C0
00F0
00F0
FFC0
FFC0
ENDCHAR
STARTCHAR 0162
ENCODING 354
SWIDTH 1020 0
DWIDTH 17 0
BBX 12 17 0 -2
BITMAP
FFF0
FFF0
CF30
CF30
0F00
0F00
0F00
0F00
0F00
0F00
0F00
3FC0
3FC0
03C0
03C0
FF00
FF00
ENDCHAR
STARTCHAR 0163
ENCODING 355
SWIDTH 1020 0
DWIDTH 17 0
BBX 10 17 2 -2
BITMAP
0C00
3C00
3C00
3C00
FFC0
FFC0
3C00
3C00
3C00
3C00
3CC0
3CC0
0C00
0F00
0F00
FC00
FC00
ENDCHAR
STARTCHAR 0164
ENCODING 356
SWIDTH 1020 0
DWIDTH 17 0
BBX 12 15 0 0
BITMAP
F0F0
F0F0
3FC0
3FC0
FFF0
FFF0
CF30
CF30
0F00
0F00
0F00
0F00
0F00
3FC0
3FC0
ENDCHAR
STARTCHAR 0165
ENCODING 357
SWIDTH 1020 0
DWIDTH 17 0
BBX 15 15 0 0
BITMAP
0C1E
0C1E
3C1E
3C1E
FFF8
FFF8
3C00
3C00
3C00
3C00
3C00
3CC0
3CC0
0F00
0F00
ENDCHAR
STARTCHAR 0166
ENCODING 358
SWIDTH 1020 0
DWIDTH 17 0
BBX 12 15 0 0
BITMAP
FFF0
FFF0
CF30
CF30
0F00
0F00
FFF0
FFF0
0F00
0F00
0F00
0F00
0F00
3FC0
3FC0
ENDCHAR
STARTCHAR 0167
ENCODING 359
SWIDTH 1020 0
DWIDTH 17 0
BBX 12 15 2 0
BITMAP
0C00
0C00
3C00
3C00
FFC0
FFC0
3C00
3C00
FF00
FF00
3C00
3C30
3C30
0FC0
0FC0
ENDCHAR
STARTCHAR 0168
ENCODING 360
SWIDTH 1020 0
DWIDTH 17 0
BBX 15 15 0 0
BITMAP
3F1E
3F1E
F3F0
F3F0
3C1E
3C1E
3C1E
3C1E
3C1E
3C1E
3C1E
3C1E
3C1E
0FF0
0FF0
ENDCHAR
STARTCHAR 0169
ENCODING 361
SWIDTH 1020 0
DWIDTH 17 0
BBX 15 15 0 0
BITMAP
3F1E
3F1E
F3F0
F3F0
0000
0000
F0F0
F0F0
F0F0
F0F0
F0F0
F0F0
F0F0
3FFE
3FFE
ENDCHAR
STARTCHAR 016A
ENCODING 362
SWIDTH 1020 0
DWIDTH 17 0
BBX 12 15 0 0
BITMAP
FFF0
FFF0
0000
0000
F0F0
F0F0
F0F0
F0F0
F0F0
F0F0
F0F0
F0F0
F0F0
3FC0
3FC0
ENDCHAR
STARTCHAR 016B
ENCODING 363
SWIDTH 1020 0
DWIDTH 17 0
BBX 15 13 0 0
BITMAP
FFF0
FFF0
0000
0000
F0F0
F0F0
F0F0
F0F0
F0F0
F0F0
F0F0
3FFE
3FFE
ENDCHAR
STARTCHAR 016C
ENCODING 364
SWIDTH 1020 0
DWIDTH 17 0
BBX 12 15 0 0
BITMAP
F0F0
F0F0
3FC0
3FC0
0000
0000
F0F0
F0F0
F0F0
F0F0
F0F0
F0F0
F0F0
3FC0
3FC0
ENDCHAR
STARTCHAR 016D
ENCODING 365
SWIDTH 1020 0
DWIDTH 17 0
BBX 15 15 0 0
BITMAP
F0F0
F0F0
3FC0
3FC0
0000
0000
F0F0
F0F0
F0F0
F0F0
F0F0
F0F0
F0F0
3FFE
3FFE
ENDCHAR
STARTCHAR 016E
ENCODING 366
SWIDTH 1020 0
DWIDTH 17 0
BBX 12 15 0 0
BITMAP
0F00
0F00
0000
0000
F0F0
F0F0
F0F0
F0F0
F0F0
F0F0
F0F0
F0F0
F0F0
3FC0
3FC0
ENDCHAR
STARTCHAR 016F
ENCODING 367
SWIDTH 1020 0
DWIDTH 17 0
BBX 15 15 0 0
BITMAP
0F00
0F00
0F00
0F00
0000
0000
F0F0
F0F0
F0F0
F0F0
F0F0
F0F0
F0F0
3FFE
3FFE
ENDCHAR
STARTCHAR 0170
ENCODING 368
SWIDTH 1020 0
DWIDTH 17 0
BBX 15 15 0 0
BITMAP
0F1E
0F1E
0000
0000
F0F0
F0F0
F0F0
F0F0
F0F0
F0F0
F0F0
F0F0
F0F0
3FC0
3FC0
ENDCHAR
STARTCHAR 0171
ENCODING 369
SWIDTH 1020 0
DWIDTH 17 0
BBX 15 13 0 0
BITMAP
0F1E
0F1E
0000
0000
F0F0
F0F0
F0F0
F0F0
F0F0
F0F0
F0F0
3FFE
3FFE
ENDCHAR
STARTCHAR 0172
ENCODING 370
SWIDTH 1020 0
DWIDTH 17 0
BBX 14 17 0 -2
BITMAP
F0F0
F0F0
F0F0
F0F0
F0F0
F0F0
F0F0
F0F0
F0F0
F0F0
F0F0
F0F0
F0F0
3FC0
3FC0
00FC
00FC
ENDCHAR
STARTCHAR 0173
ENCODING 371
SWIDTH 1020 0
DWIDTH 17 0
BBX 14 13 0 -2
BITMAP
F0F0
F0F0
F0F0
F0F0
F0F0
F0F0
F0F0
F0F0
F0F0
3FF0
3FF0
00FC
00FC
ENDCHAR
STARTCHAR 0174
ENCODING 372
SWIDTH 1020 0
DWIDTH 17 0
BBX 14 15 0 0
BITMAP
0FC0
0FC0
3CF0
3CF0
0000
0000
F33C
F33C
F33C
FFFC
FCFC
FCFC
FCFC
F03C
F03C
ENDCHAR
STARTCHAR 0175
ENCODING 373
SWIDTH 1020 0
DWIDTH 17 0
BBX 14 15 0 0
BITMAP
0FC0
0FC0
3CF0
3CF0
0000
0000
F03C
F03C
F03C
F33C
F33C
FFFC
FFFC
3CF0
3CF0
ENDCHAR
STARTCHAR 0176
ENCODING 374
SWIDTH 1020 0
DWIDTH 17 0
BBX 12 15 0 0
BITMAP
3FC0
3FC0
F0F0
F0F0
0000
0000
F0F0
F0F0
3FC0
3FC0
0F00
0F00
0F00
3FC0
3FC0
ENDCHAR
STARTCHAR 0177
ENCODING 375
SWIDTH 1020 0
DWIDTH 17 0
BBX 12 17 0 -2
BITMAP
3FC0
3FC0
F0F0
F0F0
0000
0000
F0F0
F0F0
F0F0
F0F0
3FF0
3FF0
00F0
00F0
00F0
3FC0
3FC0
ENDCHAR
STARTCHAR 0178
ENCODING 376
SWIDTH 1020 0
DWIDTH 17 0
BBX 12 15 0 0
BITMAP
F0F0
F0F0
0000
0000
F0F0
F0F0
F0F0
F0F0
3FC0
3FC0
0F00
0F00
0F00
3FC0
3FC0
ENDCHAR
STARTCHAR 0179
ENCODING 377
SWIDTH 1020 0
DWIDTH 17 0
BBX 17 15 0 0
BITMAP
000780
000780
FFFE00
FFFE00
F0F000
F0F000
C3C000
C3C000
0F0600
0F0600
3C3E00
3C3E00
3C3E00
FFFE00
FFFE00
ENDCHAR
STARTCHAR 017A
ENCODING 378
SWIDTH 1020 0
DWIDTH 17 0
BBX 12 15 0 0
BITMAP
03F0
03F0
0000
0000
FFF0
FFF0
C3C0
C3C0
0F00
0F00
0F00
3C30
3C30
FFF0
FFF0
ENDCHAR
STARTCHAR 017B
ENCODING 379
SWIDTH 1020 0
DWIDTH 17 0
BBX 15 15 0 0
BITMAP
0F00
0F00
FFFE
FFFE
F0F0
F0F0
C3C0
C3C0
0F06
0F06
3C3E
3C3E
3C3E
FFFE
FFFE
ENDCHAR
STARTCHAR 017C
ENCODING 380
SWIDTH 1020 0
DWIDTH 17 0
BBX 12 15 0 0
BITMAP
0F00
0F00
0000
0000
FFF0
FFF0
C3C0
C3C0
0F00
0F00
0F00
3C30
3C30
FFF0
FFF0
ENDCHAR
STARTCHAR 017D
ENCODING 381
SWIDTH 1020 0
DWIDTH 17 0
BBX 17 15 0 0
BITMAP
F00780
F00780
3FFE00
3FFE00
3C1E00
3C1E00
30F000
30F000
03C000
03C000
0F0600
0F0600
0F0600
3FFE00
3FFE00
ENDCHAR
STARTCHAR 017E
ENCODING 382
SWIDTH 1020 0
DWIDTH 17 0
BBX 12 15 0 0
BITMAP
F0F0
F0F0
3FC0
3FC0
FFF0
FFF0
C3C0
C3C0
0F00
0F00
3C30
3C30
3C30
FFF0
FFF0
ENDCHAR
STARTCHAR 017F
ENCODING 383
SWIDTH 1020 0
DWIDTH 17 0
BBX 12 15 0 0
BITMAP
0FC0
0FC0
3CF0
3CF0
3C00
3C00
3C00
3C00
3C00
3C00
3C00
3C00
3C00
FF00
FF00
ENDCHAR
STARTCHAR 0192
ENCODING 402
SWIDTH 1020 0
DWIDTH 17 0
BBX 17 17 0 -2
BITMAP
00FC00
00FC00
03C780
03C780
03C000
03C000
0FF000
0FF000
03C000
03C000
03C000
03C000
03C000
F3C000
F3C000
3F0000
3F0000
ENDCHAR
STARTCHAR 01A1
ENCODING 417
SWIDTH 1020 0
DWIDTH 17 0
BBX 15 11 0 0
BITMAP
3FFE
3FFE
F3C0
F3C0
F3C0
F3C0
F3C0
F3C0
F3C0
3F00
3F00
ENDCHAR
STARTCHAR 01B7
ENCODING 439
SWIDTH 1020 0
DWIDTH 17 0
BBX 12 15 0 0
BITMAP
FFF0
FFF0
F0F0
F0F0
03C0
03C0
0FC0
0FC0
00C0
00F0
00F0
F0F0
F0F0
3FC0
3FC0
ENDCHAR
STARTCHAR 01FA
ENCODING 506
SWIDTH 1020 0
DWIDTH 17 0
BBX 12 15 0 0
BITMAP
0FF0
0FF0
0F00
0F00
0000
0000
3FC0
3FC0
F0F0
F0F0
F0F0
FFF0
FFF0
F0F0
F0F0
ENDCHAR
STARTCHAR 01FB
ENCODING 507
SWIDTH 1020 0
DWIDTH 17 0
BBX 15 15 0 0
BITMAP
0FF0
0FF0
0F00
0F00
3FC0
3FC0
00F0
00F0
3FF0
3FF0
30F0
F0F0
F0F0
3FFE
3FFE
ENDCHAR
STARTCHAR 01FC
ENCODING 508
SWIDTH 1020 0
DWIDTH 17 0
BBX 14 15 0 0
BITMAP
00FC
00FC
0000
0000
0FFC
0FFC
3CF0
3CF0
FFFC
FFFC
F0F0
F0F0
F0F0
F0FC
F0FC
ENDCHAR
STARTCHAR 01FD
ENCODING 509
SWIDTH 1020 0
DWIDTH 17 0
BBX 17 15 0 0
BITMAP
00FC00
00FC00
000000
000000
3FFF80
3FFF80
00F000
00F000
3FFF80
3FFF80
30F000
F0F000
F0F000
3FFF80
3FFF80
ENDCHAR
STARTCHAR 01FE
ENCODING 510
SWIDTH 1020 0
DWIDTH 17 0
BBX 17 15 0 0
BITMAP
001F80
001F80
0FC600
0FC600
3CF000
3CF000
F31E00
F31E00
F31E00
F31E00
3CF000
3CF000
3CF000
CFC000
CFC000
ENDCHAR
STARTCHAR 01FF
ENCODING 511
SWIDTH 1020 0
DWIDTH 17 0
BBX 15 17 0 -2
BITMAP
03F0
03F0
0006
0006
3FF0
3FF0
F0FE
F0FE
F31E
F31E
FC1E
FC1E
FC1E
3FF0
3FF0
C000
C000
ENDCHAR
STARTCHAR 0218
ENCODING 536
SWIDTH 1020 0
DWIDTH 17 0
BBX 12 17 0 -2
BITMAP
3FC0
3FC0
F0F0
F0F0
FC00
FC00
3F00
3F00
03F0
03F0
F0F0
F0F0
30C0
3FC0
3FC0
0F00
0F00
ENDCHAR
STARTCHAR 0219
ENCODING 537
SWIDTH 1020 0
DWIDTH 17 0
BBX 12 13 0 -2
BITMAP
3FF0
3FF0
F000
F000
3FC0
3FC0
00F0
00F0
00C0
FFC0
FFC0
0F00
0F00
ENDCHAR
STARTCHAR 021A
ENCODING 538
SWIDTH 1020 0
DWIDTH 17 0
BBX 12 17 0 -2
BITMAP
FFF0
FFF0
CF30
CF30
0F00
0F00
0F00
0F00
0F00
0F00
0F00
0F00
0F00
3FC0
3FC0
0F00
0F00
ENDCHAR
STARTCHAR 021B
ENCODING 539
SWIDTH 1020 0
DWIDTH 17 0
BBX 10 17 2 -2
BITMAP
0C00
3C00
3C00
3C00
FFC0
FFC0
3C00
3C00
3C00
3C00
3CC0
3CC0
0C00
0F00
0F00
3C00
3C00
ENDCHAR
STARTCHAR 0251
ENCODING 593
SWIDTH 1020 0
DWIDTH 17 0
BBX 15 11 0 0
BITMAP
3F1E
3F1E
F3F0
F3F0
F0C0
F0C0
F0C0
F3F0
F3F0
3F1E
3F1E
ENDCHAR
STARTCHAR 0278
ENCODING 632
SWIDTH 1020 0
DWIDTH 17 0
BBX 12 17 0 -2
BITMAP
FFF0
FFF0
0F00
0F00
3FC0
3FC0
F0F0
F0F0
F0F0
F0F0
3FC0
3FC0
3FC0
0F00
0F00
FFF0
FFF0
ENDCHAR
STARTCHAR 02C6
ENCODING 710
SWIDTH 1020 0
DWIDTH 17 0
BBX 10 6 2 9
BITMAP
0C00
0C00
3F00
3F00
F3C0
F3C0
ENDCHAR
STARTCHAR 02C7
ENCODING 711
SWIDTH 1020 0
DWIDTH 17 0
BBX 10 4 0 11
BITMAP
F3C0
F3C0
3F00
3F00
ENDCHAR
STARTCHAR 02C9
ENCODING 713
SWIDTH 1020 0
DWIDTH 17 0
BBX 10 2 2 13
BITMAP
FFC0
FFC0
ENDCHAR
STARTCHAR 02D8
ENCODING 728
SWIDTH 1020 0
DWIDTH 17 0
BBX 15 4 0 11
BITMAP
F01E
F01E
3FF0
3FF0
ENDCHAR
STARTCHAR 02D9
ENCODING 729
SWIDTH 1020 0
DWIDTH 17 0
BBX 4 2 4 13
BITMAP
F0
F0
ENDCHAR
STARTCHAR 02DA
ENCODING 730
SWIDTH 1020 0
DWIDTH 17 0
BBX 10 9 2 7
BITMAP
3F00
3F00
3300
F3C0
F3C0
F3C0
F3C0
3F00
3F00
ENDCHAR
STARTCHAR 02DB
ENCODING 731
SWIDTH 1020 0
DWIDTH 17 0
BBX 7 5 6 -2
BITMAP
F0
F0
F0
FE
FE
ENDCHAR
STARTCHAR 02DC
ENCODING 732
SWIDTH 1020 0
DWIDTH 17 0
BBX 15 4 0 11
BITMAP
3F1E
3F1E
F3F0
F3F0
ENDCHAR
STARTCHAR 02DD
ENCODING 733
SWIDTH 1020 0
DWIDTH 17 0
BBX 10 2 4 13
BITMAP
F3C0
F3C0
ENDCHAR
STARTCHAR 037E
ENCODING 894
SWIDTH 1020 0
DWIDTH 17 0
BBX 6 13 2 0
BITMAP
3C
3C
3C
3C
00
00
00
3C
3C
3C
3C
F0
F0
ENDCHAR
STARTCHAR 0384
ENCODING 900
SWIDTH 1020 0
DWIDTH 17 0
BBX 6 7 4 9
BITMAP
3C
3C
30
F0
F0
C0
C0
ENDCHAR
STARTCHAR 0385
ENCODING 901
SWIDTH 1020 0
DWIDTH 17 0
BBX 17 4 0 11
BITMAP
00C000
00C000
F00780
F00780
ENDCHAR
STARTCHAR 0386
ENCODING 902
SWIDTH 1020 0
DWIDTH 17 0
BBX 15 15 0 0
BITMAP
C3C0
C3C0
CFF0
CFF0
3C1E
3C1E
3C1E
3C1E
3FFE
3FFE
3C1E
3C1E
3C1E
3C1E
3C1E
ENDCHAR
STARTCHAR 0387
ENCODING 903
SWIDTH 1020 0
DWIDTH 17 0
BBX 4 4 6 7
BITMAP
F0
F0
F0
F0
ENDCHAR
STARTCHAR 0388
ENCODING 904
SWIDTH 1020 0
DWIDTH 17 0
BBX 15 15 0 0
BITMAP
CFFE
CFFE
CF06
CF06
0F00
0F00
0FF8
0FF8
0F00
0F00
0F06
0F06
0F06
0FFE
0FFE
ENDCHAR
STARTCHAR 0389
ENCODING 905
SWIDTH 1020 0
DWIDTH 17 0
BBX 15 15 0 0
BITMAP
CF1E
CF1E
CF1E
CF1E
0F1E
0F1E
0FFE
0FFE
0F1E
0F1E
0F1E
0F1E
0F1E
0F1E
0F1E
ENDCHAR
STARTCHAR 038A
ENCODING 906
SWIDTH 1020 0
DWIDTH 17 0
BBX 12 15 0 0
BITMAP
CFF0
CFF0
C3C0
C3C0
03C0
03C0
03C0
03C0
03C0
03C0
03C0
03C0
03C0
0FF0
0FF0
ENDCHAR
STARTCHAR 038C
ENCODING 908
SWIDTH 1020 0
DWIDTH 17 0
BBX 15 15 0 0
BITMAP
CFC0
CFC0
3CF0
3CF0
F01E
F01E
F01E
F01E
F01E
F01E
F01E
3CF0
3CF0
0FC0
0FC0
ENDCHAR
STARTCHAR 038E
ENCODING 910
SWIDTH 1020 0
DWIDTH 17 0
BBX 15 15 0 0
BITMAP
CF1E
CF1E
CF1E
CF1E
0F1E
0F1E
03F0
03F0
00C0
00C0
00C0
00C0
00C0
03F0
03F0
ENDCHAR
STARTCHAR 038F
ENCODING 911
SWIDTH 1020 0
DWIDTH 17 0
BBX 15 15 0 0
BITMAP
CFC0
CFC0
3CF0
3CF0
F01E
F01E
F01E
F01E
F01E
F01E
F01E
3CF0
3CF0
FCFE
FCFE
ENDCHAR
STARTCHAR 0390
ENCODING 912
SWIDTH 1020 0
DWIDTH 17 0
BBX 17 15 0 0
BITMAP
00C000
00C000
F00780
F00780
03C000
03C000
03C000
03C000
03C000
03C000
03C000
03C000
03C000
00F000
00F000
ENDCHAR
STARTCHAR 0391
ENCODING 913
SWIDTH 1020 0
DWIDTH 17 0
BBX 12 15 0 0
BITMAP
0F00
0F00
3FC0
3FC0
F0F0
F0F0
F0F0
F0F0
FFF0
FFF0
F0F0
F0F0
F0F0
F0F0
F0F0
ENDCHAR
STARTCHAR 0392
ENCODING 914
SWIDTH 1020 0
DWIDTH 17 0
BBX 16 15 0 0
BITMAP
FFF8
FFF8
1E0F
1E0F
1E0F
1E0F
1FF8
1FF8
1E08
1E0F
1E0F
1E0F
1E0F
FFF8
FFF8
ENDCHAR
STARTCHAR 0393
ENCODING 915
SWIDTH 1020 0
DWIDTH 17 0
BBX 12 15 0 0
BITMAP
FFF0
FFF0
F0F0
F0F0
F000
F000
F000
F000
F000
F000
F000
F000
F000
F000
F000
ENDCHAR
STARTCHAR 0394
ENCODING 916
SWIDTH 1020 0
DWIDTH 17 0
BBX 14 15 0 0
BITMAP
0300
0300
0FC0
0FC0
3CF0
3CF0
F03C
F03C
F03C
F03C
F03C
F03C
F03C
FFFC
FFFC
ENDCHAR
STARTCHAR 0395
ENCODING 917
SWIDTH 1020 0
DWIDTH 17 0
BBX 14 15 0 0
BITMAP
FFFC
FFFC
3C0C
3C0C
3CC0
3CC0
3FC0
3FC0
3CC0
3CC0
3CC0
3C0C
3C0C
FFFC
FFFC
ENDCHAR
STARTCHAR 0396
ENCODING 918
SWIDTH 1020 0
DWIDTH 17 0
BBX 15 15 0 0
BITMAP
FFFE
FFFE
F01E
F01E
C0F0
C0F0
03C0
03C0
0F06
0F06
3C1E
3C1E
3C1E
FFFE
FFFE
ENDCHAR
STARTCHAR 0397
ENCODING 919
SWIDTH 1020 0
DWIDTH 17 0
BBX 12 15 0 0
BITMAP
F0F0
F0F0
F0F0
F0F0
F0F0
F0F0
FFF0
FFF0
F0F0
F0F0
F0F0
F0F0
F0F0
F0F0
F0F0
ENDCHAR
STARTCHAR 0398
ENCODING 920
SWIDTH 1020 0
DWIDTH 17 0
BBX 15 15 0 0
BITMAP
0FC0
0FC0
3CF0
3CF0
F01E
F01E
FFFE
FFFE
F01E
F01E
F01E
3CF0
3CF0
0FC0
0FC0
ENDCHAR
STARTCHAR 0399
ENCODING 921
SWIDTH 1020 0
DWIDTH 17 0
BBX 8 15 2 0
BITMAP
FF
FF
3C
3C
3C
3C
3C
3C
3C
3C
3C
3C
3C
FF
FF
ENDCHAR
STARTCHAR 039A
ENCODING 922
SWIDTH 1020 0
DWIDTH 17 0
BBX 14 15 0 0
BITMAP
FC3C
FC3C
3C3C
3C3C
3CF0
3CF0
3FC0
3FC0
3CF0
3CF0
3CF0
3C3C
3C3C
FC3C
FC3C
ENDCHAR
STARTCHAR 039B
ENCODING 923
SWIDTH 1020 0
DWIDTH 17 0
BBX 14 15 0 0
BITMAP
0300
0300
0FC0
0FC0
3CF0
3CF0
F03C
F03C
F03C
F03C
F03C
F03C
F03C
F03C
F03C
ENDCHAR
STARTCHAR 039C
ENCODING 924
SWIDTH 1020 0
DWIDTH 17 0
BBX 15 15 0 0
BITMAP
F01E
F01E
FCFE
FCFE
FFFE
FFFE
FFFE
FFFE
FFFE
F31E
F31E
F01E
F01E
F01E
F01E
ENDCHAR
STARTCHAR 039D
ENCODING 925
SWIDTH 1020 0
DWIDTH 17 0
BBX 15 15 0 0
BITMAP
F01E
F01E
FC1E
FC1E
FF9E
FF9E
F3FE
F3FE
F07E
F07E
F01E
F01E
F01E
F01E
F01E
ENDCHAR
STARTCHAR 039E
ENCODING 926
SWIDTH 1020 0
DWIDTH 17 0
BBX 15 15 0 0
BITMAP
FFFE
FFFE
F01E
F01E
0000
0000
3FF0
3FF0
0000
0000
F01E
F01E
F01E
FFFE
FFFE
ENDCHAR
STARTCHAR 039F
ENCODING 927
SWIDTH 1020 0
DWIDTH 17 0
BBX 15 15 0 0
BITMAP
0FC0
0FC0
3CF0
3CF0
F01E
F01E
F01E
F01E
F01E
F01E
F01E
3CF0
3CF0
0FC0
0FC0
ENDCHAR
STARTCHAR 03A0
ENCODING 928
SWIDTH 1020 0
DWIDTH 17 0
BBX 12 15 0 0
BITMAP
FFF0
FFF0
F0F0
F0F0
F0F0
F0F0
F0F0
F0F0
F0F0
F0F0
F0F0
F0F0
F0F0
F0F0
F0F0
ENDCHAR
STARTCHAR 03A1
ENCODING 929
SWIDTH 1020 0
DWIDTH 17 0
BBX 15 15 0 0
BITMAP
FFF8
FFF8
3C1E
3C1E
3C1E
3C1E
3FF8
3FF8
3C00
3C00
3C00
3C00
3C00
FF00
FF00
ENDCHAR
STARTCHAR 03A3
ENCODING 931
SWIDTH 1020 0
DWIDTH 17 0
BBX 14 15 0 0
BITMAP
FFFC
FFFC
3C3C
3C3C
0F00
0F00
03C0
03C0
0F00
0F00
0F00
3C3C
3C3C
FFFC
FFFC
ENDCHAR
STARTCHAR 03A4
ENCODING 932
SWIDTH 1020 0
DWIDTH 17 0
BBX 12 15 0 0
BITMAP
FFF0
FFF0
CF30
CF30
0F00
0F00
0F00
0F00
0F00
0F00
0F00
0F00
0F00
3FC0
3FC0
ENDCHAR
STARTCHAR 03A5
ENCODING 933
SWIDTH 1020 0
DWIDTH 17 0
BBX 12 15 0 0
BITMAP
F0F0
F0F0
F0F0
F0F0
F0F0
F0F0
3FC0
3FC0
0F00
0F00
0F00
0F00
0F00
3FC0
3FC0
ENDCHAR
STARTCHAR 03A6
ENCODING 934
SWIDTH 1020 0
DWIDTH 17 0
BBX 15 15 0 0
BITMAP
0300
0300
3FF0
3FF0
F31E
F31E
F31E
F31E
3FF0
3FF0
0300
0300
0300
0300
0300
ENDCHAR
STARTCHAR 03A7
ENCODING 935
SWIDTH 1020 0
DWIDTH 17 0
BBX 15 15 0 0
BITMAP
F01E
F01E
F01E
F01E
3CF0
3CF0
0FC0
0FC0
0FC0
0FC0
3CF0
3CF0
3CF0
F01E
F01E
ENDCHAR
STARTCHAR 03A8
ENCODING 936
SWIDTH 1020 0
DWIDTH 17 0
BBX 15 15 0 0
BITMAP
F01E
F01E
F31E
F31E
F31E
F31E
3FF0
3FF0
0300
0300
0300
0300
0300
0300
0300
ENDCHAR
STARTCHAR 03A9
ENCODING 937
SWIDTH 1020 0
DWIDTH 17 0
BBX 15 15 0 0
BITMAP
0FC0
0FC0
3CF0
3CF0
F01E
F01E
F01E
F01E
F01E
F01E
F01E
3CF0
3CF0
FCFE
FCFE
ENDCHAR
STARTCHAR 03AA
ENCODING 938
SWIDTH 1020 0
DWIDTH 17 0
BBX 12 15 0 0
BITMAP
F0F0
F0F0
0000
0000
3FC0
3FC0
0F00
0F00
0F00
0F00
0F00
0F00
0F00
3FC0
3FC0
ENDCHAR
STARTCHAR 03AB
ENCODING 939
SWIDTH 1020 0
DWIDTH 17 0
BBX 12 15 0 0
BITMAP
F0F0
F0F0
0000
0000
F0F0
F0F0
F0F0
F0F0
3FC0
3FC0
0F00
0F00
0F00
3FC0
3FC0
ENDCHAR
STARTCHAR 03AC
ENCODING 940
SWIDTH 1020 0
DWIDTH 17 0
BBX 15 15 0 0
BITMAP
03C0
03C0
0000
0000
3F1E
3F1E
F3F0
F3F0
F0F0
F0F0
F0F0
F3F0
F3F0
3F1E
3F1E
ENDCHAR
STARTCHAR 03AD
ENCODING 941
SWIDTH 1020 0
DWIDTH 17 0
BBX 12 15 0 0
BITMAP
0700
0700
0000
0000
3FF0
3FF0
F000
F000
3F00
3F00
3000
F000
F000
3FF0
3FF0
ENDCHAR
STARTCHAR 03AE
ENCODING 942
SWIDTH 1020 0
DWIDTH 17 0
BBX 12 15 0 0
BITMAP
0F00
0F00
0000
0000
CFC0
CFC0
FCF0
FCF0
3CF0
3CF0
3CF0
3CF0
3CF0
3CF0
3CF0
ENDCHAR
STARTCHAR 03AF
ENCODING 943
SWIDTH 1020 0
DWIDTH 17 0
BBX 6 15 4 0
BITMAP
F0
F0
00
00
F0
F0
F0
F0
F0
F0
F0
F0
F0
3C
3C
ENDCHAR
STARTCHAR 03B0
ENCODING 944
SWIDTH 1020 0
DWIDTH 17 0
BBX 17 15 0 0
BITMAP
00C000
00C000
F00780
F00780
000000
000000
3C1E00
3C1E00
3C1E00
3C1E00
3C1E00
3C1E00
3C1E00
0FF000
0FF000
ENDCHAR
STARTCHAR 03B1
ENCODING 945
SWIDTH 1020 0
DWIDTH 17 0
BBX 15 11 0 0
BITMAP
3F1E
3F1E
F3F0
F3F0
F0F0
F0F0
F0F0
F3F0
F3F0
3F1E
3F1E
ENDCHAR
STARTCHAR 03B2
ENCODING 946
SWIDTH 1020 0
DWIDTH 17 0
BBX 12 17 0 -2
BITMAP
3FC0
3FC0
F0F0
F0F0
F0F0
F0F0
FFC0
FFC0
F0F0
F0F0
FFC0
FFC0
F000
F000
F000
F000
F000
ENDCHAR
STARTCHAR 03B3
ENCODING 947
SWIDTH 1020 0
DWIDTH 17 0
BBX 12 13 0 -2
BITMAP
F0F0
F0F0
3FC0
3FC0
0F00
0F00
0F00
3FC0
3FC0
F0F0
F0F0
3FC0
3FC0
ENDCHAR
STARTCHAR 03B4
ENCODING 948
SWIDTH 1020 0
DWIDTH 17 0
BBX 12 15 0 0
BITMAP
3FC0
3FC0
F0F0
F0F0
3C00
3C00
3FC0
3FC0
30C0
F0F0
F0F0
F0F0
F0F0
3FC0
3FC0
ENDCHAR
STARTCHAR 03B5
ENCODING 949
SWIDTH 1020 0
DWIDTH 17 0
BBX 12 11 0 0
BITMAP
3FF0
3FF0
F000
F000
3F00
3F00
3000
F000
F000
3FF0
3FF0
ENDCHAR
STARTCHAR 03B6
ENCODING 950
SWIDTH 1020 0
DWIDTH 17 0
BBX 12 17 0 -2
BITMAP
FFF0
FFF0
0F00
0F00
3C00
3C00
F000
F000
F000
F000
3FC0
3FC0
00C0
00F0
00F0
0FC0
0FC0
ENDCHAR
STARTCHAR 03B7
ENCODING 951
SWIDTH 1020 0
DWIDTH 17 0
BBX 12 11 0 0
BITMAP
CFC0
CFC0
FCF0
FCF0
3CF0
3CF0
3CF0
3CF0
3CF0
3CF0
3CF0
ENDCHAR
STARTCHAR 03B8
ENCODING 952
SWIDTH 1020 0
DWIDTH 17 0
BBX 12 15 0 0
BITMAP
3FC0
3FC0
F0F0
F0F0
F0F0
F0F0
FFF0
FFF0
F0F0
F0F0
F0F0
F0F0
F0F0
3FC0
3FC0
ENDCHAR
STARTCHAR 03B9
ENCODING 953
SWIDTH 1020 0
DWIDTH 17 0
BBX 6 11 4 0
BITMAP
F0
F0
F0
F0
F0
F0
F0
F0
F0
3C
3C
ENDCHAR
STARTCHAR 03BA
ENCODING 954
SWIDTH 1020 0
DWIDTH 17 0
BBX 12 11 0 0
BITMAP
F0F0
F0F0
F3C0
F3C0
FF00
FF00
F3C0
F3C0
F3C0
F0F0
F0F0
ENDCHAR
STARTCHAR 03BB
ENCODING 955
SWIDTH 1020 0
DWIDTH 17 0
BBX 12 15 0 0
BITMAP
3F00
3F00
F3C0
F3C0
00F0
00F0
0FF0
0FF0
3CF0
3CF0
3CF0
F0F0
F0F0
F0F0
F0F0
ENDCHAR
STARTCHAR 03BC
ENCODING 956
SWIDTH 1020 0
DWIDTH 17 0
BBX 15 13 0 -2
BITMAP
F0F0
F0F0
F0F0
F0F0
F0F0
F0F0
FFFE
FFFE
F000
F000
F000
F000
F000
ENDCHAR
STARTCHAR 03BD
ENCODING 957
SWIDTH 1020 0
DWIDTH 17 0
BBX 12 11 0 0
BITMAP
F0F0
F0F0
F0F0
F0F0
F0F0
F0F0
F0F0
3FC0
3FC0
0F00
0F00
ENDCHAR
STARTCHAR 03BE
ENCODING 958
SWIDTH 1020 0
DWIDTH 17 0
BBX 12 17 0 -2
BITMAP
FFF0
FFF0
0F00
0F00
3C00
3C00
0FC0
0FC0
3C00
3C00
0FC0
0FC0
00C0
00F0
00F0
0FC0
0FC0
ENDCHAR
STARTCHAR 03BF
ENCODING 959
SWIDTH 1020 0
DWIDTH 17 0
BBX 12 11 0 0
BITMAP
3FC0
3FC0
F0F0
F0F0
F0F0
F0F0
F0F0
F0F0
F0F0
3FC0
3FC0
ENDCHAR
STARTCHAR 03C0
ENCODING 960
SWIDTH 1020 0
DWIDTH 17 0
BBX 12 11 0 0
BITMAP
FFF0
FFF0
F0F0
F0F0
F0F0
F0F0
F0F0
F0F0
F0F0
F0F0
F0F0
ENDCHAR
STARTCHAR 03C1
ENCODING 961
SWIDTH 1020 0
DWIDTH 17 0
BBX 12 13 0 -2
BITMAP
3FC0
3FC0
F0F0
F0F0
F0F0
F0F0
FFC0
FFC0
F000
F000
F000
F000
F000
ENDCHAR
STARTCHAR 03C2
ENCODING 962
SWIDTH 1020 0
DWIDTH 17 0
BBX 15 13 0 -2
BITMAP
3FF0
3FF0
F01E
F01E
F000
F000
3FF0
3FF0
0010
001E
001E
03F0
03F0
ENDCHAR
STARTCHAR 03C3
ENCODING 963
SWIDTH 1020 0
DWIDTH 17 0
BBX 12 11 0 0
BITMAP
3FF0
3FF0
F3C0
F3C0
F3C0
F0F0
F0F0
F0F0
F0F0
3FC0
3FC0
ENDCHAR
STARTCHAR 03C4
ENCODING 964
SWIDTH 1020 0
DWIDTH 17 0
BBX 13 11 0 0
BITMAP
FFF8
FFF8
0F00
0F00
0F00
0F00
0F00
0F00
0F00
03C0
03C0
ENDCHAR
STARTCHAR 03C5
ENCODING 965
SWIDTH 1020 0
DWIDTH 17 0
BBX 12 11 0 0
BITMAP
F0F0
F0F0
F0F0
F0F0
F0F0
F0F0
F0F0
F0F0
F0F0
3FC0
3FC0
ENDCHAR
STARTCHAR 03C6
ENCODING 966
SWIDTH 1020 0
DWIDTH 17 0
BBX 15 13 0 -2
BITMAP
F3F0
F3F0
F31E
F31E
F31E
F31E
3FF0
3FF0
0300
0300
0300
0300
0300
ENDCHAR
STARTCHAR 03C7
ENCODING 967
SWIDTH 1020 0
DWIDTH 17 0
BBX 12 11 0 0
BITMAP
F0F0
F0F0
3FC0
3FC0
0F00
0F00
0F00
3FC0
3FC0
F0F0
F0F0
ENDCHAR
STARTCHAR 03C8
ENCODING 968
SWIDTH 1020 0
DWIDTH 17 0
BBX 15 13 0 -2
BITMAP
F31E
F31E
F31E
F31E
F31E
F31E
FFFE
3FF0
0300
0300
0300
0300
0300
ENDCHAR
STARTCHAR 03C9
ENCODING 969
SWIDTH 1020 0
DWIDTH 17 0
BBX 15 11 0 0
BITMAP
F01E
F01E
F31E
F31E
F31E
F31E
F31E
F31E
F31E
3CF0
3CF0
ENDCHAR
STARTCHAR 03CA
ENCODING 970
SWIDTH 1020 0
DWIDTH 17 0
BBX 12 15 0 0
BITMAP
F0F0
F0F0
0000
0000
0F00
0F00
0F00
0F00
0F00
0F00
0F00
0F00
0F00
03C0
03C0
ENDCHAR
STARTCHAR 03CB
ENCODING 971
SWIDTH 1020 0
DWIDTH 17 0
BBX 12 15 0 0
BITMAP
F0F0
F0F0
0000
0000
F0F0
F0F0
F0F0
F0F0
F0F0
F0F0
F0F0
F0F0
F0F0
3FC0
3FC0
ENDCHAR
STARTCHAR 03CC
ENCODING 972
SWIDTH 1020 0
DWIDTH 17 0
BBX 12 15 0 0
BITMAP
0F00
0F00
0000
0000
3FC0
3FC0
F0F0
F0F0
F0F0
F0F0
F0F0
F0F0
F0F0
3FC0
3FC0
ENDCHAR
STARTCHAR 03CD
ENCODING 973
SWIDTH 1020 0
DWIDTH 17 0
BBX 12 15 0 0
BITMAP
0F00
0F00
0000
0000
F0F0
F0F0
F0F0
F0F0
F0F0
F0F0
F0F0
F0F0
F0F0
3FC0
3FC0
ENDCHAR
STARTCHAR 03CE
ENCODING 974
SWIDTH 1020 0
DWIDTH 17 0
BBX 15 15 0 0
BITMAP
03C0
03C0
0000
0000
F01E
F01E
F31E
F31E
F31E
F31E
F31E
F31E
F31E
3CF0
3CF0
ENDCHAR
STARTCHAR 03D0
ENCODING 976
SWIDTH 1020 0
DWIDTH 17 0
BBX 12 15 0 -2
BITMAP
3FC0
3FC0
F0F0
F0F0
FFC0
FFC0
F0F0
F0F0
FFC0
FFC0
F000
F000
F000
F000
F000
ENDCHAR
STARTCHAR 03F4
ENCODING 1012
SWIDTH 1020 0
DWIDTH 17 0
BBX 15 15 0 0
BITMAP
0FC0
0FC0
3CF0
3CF0
F01E
F01E
FFFE
FFFE
F01E
F01E
F01E
3CF0
3CF0
0FC0
0FC0
ENDCHAR
STARTCHAR 0400
ENCODING 1024
SWIDTH 1020 0
DWIDTH 17 0
BBX 14 15 0 0
BITMAP
FC00
FC00
0000
0000
FFFC
FFFC
3C0C
3C0C
3FC0
3FC0
3C0C
3C0C
3C0C
FFFC
FFFC
ENDCHAR
STARTCHAR 0401
ENCODING 1025
SWIDTH 1020 0
DWIDTH 17 0
BBX 14 15 0 0
BITMAP
3CF0
3CF0
FFFC
FFFC
3C0C
3C0C
3FC0
3FC0
3C00
3C00
3C0C
3C0C
3C0C
FFFC
FFFC
ENDCHAR
STARTCHAR 0402
ENCODING 1026
SWIDTH 1020 0
DWIDTH 17 0
BBX 15 15 0 0
BITMAP
FFF0
FFF0
3C00
3C00
3FF0
3FF0
3C1E
3C1E
3C1E
3C1E
3C1E
3C1E
3C1E
3CF0
3CF0
ENDCHAR
STARTCHAR 0403
ENCODING 1027
SWIDTH 1020 0
DWIDTH 17 0
BBX 15 15 0 0
BITMAP
0FE0
0FE0
0C00
0C00
FFFE
FFFE
F01E
F01E
F000
F000
F000
F000
F000
F000
F000
ENDCHAR
STARTCHAR 0404
ENCODING 1028
SWIDTH 1020 0
DWIDTH 17 0
BBX 15 15 0 0
BITMAP
0FF0
0FF0
3C1E
3C1E
F000
F000
FFE0
FFE0
F000
F000
F000
3C1E
3C1E
0FF0
0FF0
ENDCHAR
STARTCHAR 0405
ENCODING 1029
SWIDTH 1020 0
DWIDTH 17 0
BBX 12 15 2 0
BITMAP
3FC0
3FC0
F0F0
F0F0
FC00
FC00
3F00
3F00
0300
03F0
00F0
F0F0
F0F0
3FC0
3FC0
ENDCHAR
STARTCHAR 0406
ENCODING 1030
SWIDTH 1020 0
DWIDTH 17 0
BBX 8 15 4 0
BITMAP
FF
FF
3C
3C
3C
3C
3C
3C
3C
3C
3C
3C
3C
FF
FF
ENDCHAR
STARTCHAR 0407
ENCODING 1031
SWIDTH 1020 0
DWIDTH 17 0
BBX 12 15 2 0
BITMAP
F0F0
F0F0
0000
0000
3FC0
3FC0
0F00
0F00
0F00
0F00
0F00
0F00
0F00
3FC0
3FC0
ENDCHAR
STARTCHAR 0408
ENCODING 1032
SWIDTH 1020 0
DWIDTH 17 0
BBX 14 15 0 0
BITMAP
03FC
03FC
00F0
00F0
00F0
00F0
00F0
00F0
00F0
F0F0
F0F0
F0F0
F0F0
3FC0
3FC0
ENDCHAR
STARTCHAR 0409
ENCODING 1033
SWIDTH 1020 0
DWIDTH 17 0
BBX 14 15 0 0
BITMAP
FFC0
FFC0
33C0
33C0
33F8
33F8
33CC
33CC
33CC
33CC
33CC
33CC
33CC
F3F8
F3F8
ENDCHAR
STARTCHAR 040A
ENCODING 1034
SWIDTH 1020 0
DWIDTH 17 0
BBX 15 15 0 0
BITMAP
F3C0
F3C0
F3C0
F3C0
F3C0
F3C0
FFF8
FFF8
F3C0
F3C6
F3C6
F3C6
F3C6
F3F8
F3F8
ENDCHAR
STARTCHAR 040B
ENCODING 1035
SWIDTH 1020 0
DWIDTH 17 0
BBX 15 15 0 0
BITMAP
FFC0
FFC0
3C00
3C00
3FF8
3FF8
3C1E
3C1E
3C1E
3C1E
3C1E
3C1E
3C1E
3C1E
3C1E
ENDCHAR
STARTCHAR 040C
ENCODING 1036
SWIDTH 1020 0
DWIDTH 17 0
BBX 14 15 0 0
BITMAP
03C0
03C0
FC3C
FC3C
3CF0
3CF0
3FC0
3FC0
3CF0
3CF0
3CF0
3C3C
3C3C
FC3C
FC3C
ENDCHAR
STARTCHAR 040D
ENCODING 1037
SWIDTH 1020 0
DWIDTH 17 0
BBX 15 15 0 0
BITMAP
3F00
3F00
0300
0300
F01E
F01E
F0FE
F0FE
F0FE
F3FE
F31E
FF1E
FF1E
FC1E
FC1E
ENDCHAR
STARTCHAR 040E
ENCODING 1038
SWIDTH 1020 0
DWIDTH 17 0
BBX 15 15 0 0
BITMAP
0FC0
0FC0
0000
0000
F01E
F01E
F01E
F01E
3FFE
3FFE
001E
001E
001E
3FF0
3FF0
ENDCHAR
STARTCHAR 040F
ENCODING 1039
SWIDTH 1020 0
DWIDTH 17 0
BBX 15 17 0 -2
BITMAP
F01E
F01E
F01E
F01E
F01E
F01E
F01E
F01E
F01E
F01E
F01E
F01E
F01E
FFFE
FFFE
0300
0300
ENDCHAR
STARTCHAR 0410
ENCODING 1040
SWIDTH 1020 0
DWIDTH 17 0
BBX 12 15 0 0
BITMAP
0F00
0F00
3FC0
3FC0
F0F0
F0F0
F0F0
F0F0
FFF0
FFF0
F0F0
F0F0
F0F0
F0F0
F0F0
ENDCHAR
STARTCHAR 0411
ENCODING 1041
SWIDTH 1020 0
DWIDTH 17 0
BBX 16 15 0 0
BITMAP
FFFF
FFFF
1E0F
1E0F
1E00
1E00
1FF8
1FF8
1E08
1E0F
1E0F
1E0F
1E0F
FFF8
FFF8
ENDCHAR
STARTCHAR 0412
ENCODING 1042
SWIDTH 1020 0
DWIDTH 17 0
BBX 16 15 0 0
BITMAP
FFF8
FFF8
1E0F
1E0F
1E0F
1E0F
1FF8
1FF8
1E08
1E0F
1E0F
1E0F
1E0F
FFF8
FFF8
ENDCHAR
STARTCHAR 0413
ENCODING 1043
SWIDTH 1020 0
DWIDTH 17 0
BBX 15 15 0 0
BITMAP
FFFE
FFFE
3C3E
3C3E
3C06
3C06
3C00
3C00
3C00
3C00
3C00
3C00
3C00
FF00
FF00
ENDCHAR
STARTCHAR 0414
ENCODING 1044
SWIDTH 1020 0
DWIDTH 17 0
BBX 17 17 0 -2
BITMAP
03FE00
03FE00
0F1E00
0F1E00
3C1E00
3C1E00
3C1E00
3C1E00
3C1E00
3C1E00
3C1E00
3C1E00
3C1E00
FFFF80
FFFF80
F00780
F00780
ENDCHAR
STARTCHAR 0415
ENCODING 1045
SWIDTH 1020 0
DWIDTH 17 0
BBX 14 15 0 0
BITMAP
FFFC
FFFC
3C0C
3C0C
3CC0
3CC0
3FC0
3FC0
3CC0
3CC0
3CC0
3C0C
3C0C
FFFC
FFFC
ENDCHAR
STARTCHAR 0416
ENCODING 1046
SWIDTH 1020 0
DWIDTH 17 0
BBX 15 15 0 0
BITMAP
F31E
F31E
F31E
F31E
3FF0
3FF0
0FC0
0FC0
0FC0
3FF0
3FF0
F31E
F31E
F31E
F31E
ENDCHAR
STARTCHAR 0417
ENCODING 1047
SWIDTH 1020 0
DWIDTH 17 0
BBX 15 15 0 0
BITMAP
3FF0
3FF0
F01E
F01E
001E
001E
0FF0
0FF0
0010
001E
001E
F01E
F01E
3FF0
3FF0
ENDCHAR
STARTCHAR 0418
ENCODING 1048
SWIDTH 1020 0
DWIDTH 17 0
BBX 15 15 0 0
BITMAP
F01E
F01E
F01E
F01E
F07E
F07E
F3FE
F3FE
F39E
FF9E
FC1E
FC1E
FC1E
F01E
F01E
ENDCHAR
STARTCHAR 0419
ENCODING 1049
SWIDTH 1020 0
DWIDTH 17 0
BBX 15 15 0 0
BITMAP
0FC0
0FC0
F01E
F01E
F0FE
F0FE
F3FE
F3FE
F31E
FF1E
FC1E
FC1E
FC1E
F01E
F01E
ENDCHAR
STARTCHAR 041A
ENCODING 1050
SWIDTH 1020 0
DWIDTH 17 0
BBX 14 15 0 0
BITMAP
FC3C
FC3C
3C3C
3C3C
3CF0
3CF0
3FC0
3FC0
3CF0
3CF0
3CF0
3C3C
3C3C
FC3C
FC3C
ENDCHAR
STARTCHAR 041B
ENCODING 1051
SWIDTH 1020 0
DWIDTH 17 0
BBX 15 15 0 0
BITMAP
03FE
03FE
0F1E
0F1E
3C1E
3C1E
3C1E
3C1E
3C1E
3C1E
3C1E
3C1E
3C1E
F01E
F01E
ENDCHAR
STARTCHAR 041C
ENCODING 1052
SWIDTH 1020 0
DWIDTH 17 0
BBX 15 15 0 0
BITMAP
F01E
F01E
FCFE
FCFE
FFFE
FFFE
FFFE
FFFE
FFFE
F31E
F31E
F01E
F01E
F01E
F01E
ENDCHAR
STARTCHAR 041D
ENCODING 1053
SWIDTH 1020 0
DWIDTH 17 0
BBX 12 15 2 0
BITMAP
F0F0
F0F0
F0F0
F0F0
F0F0
F0F0
FFF0
FFF0
F0F0
F0F0
F0F0
F0F0
F0F0
F0F0
F0F0
ENDCHAR
STARTCHAR 041E
ENCODING 1054
SWIDTH 1020 0
DWIDTH 17 0
BBX 15 15 0 0
BITMAP
0FC0
0FC0
3CF0
3CF0
F01E
F01E
F01E
F01E
F01E
F01E
F01E
3CF0
3CF0
0FC0
0FC0
ENDCHAR
STARTCHAR 041F
ENCODING 1055
SWIDTH 1020 0
DWIDTH 17 0
BBX 12 15 2 0
BITMAP
FFF0
FFF0
F0F0
F0F0
F0F0
F0F0
F0F0
F0F0
F0F0
F0F0
F0F0
F0F0
F0F0
F0F0
F0F0
ENDCHAR
STARTCHAR 0420
ENCODING 1056
SWIDTH 1020 0
DWIDTH 17 0
BBX 15 15 0 0
BITMAP
FFF8
FFF8
3C1E
3C1E
3C1E
3C1E
3C1E
3C1E
3FF8
3FF8
3C00
3C00
3C00
FF00
FF00
ENDCHAR
STARTCHAR 0421
ENCODING 1057
SWIDTH 1020 0
DWIDTH 17 0
BBX 15 15 0 0
BITMAP
0FF0
0FF0
3C1E
3C1E
F000
F000
F000
F000
F000
F000
F000
3C1E
3C1E
0FF0
0FF0
ENDCHAR
STARTCHAR 0422
ENCODING 1058
SWIDTH 1020 0
DWIDTH 17 0
BBX 12 15 2 0
BITMAP
FFF0
FFF0
CF30
CF30
0F00
0F00
0F00
0F00
0F00
0F00
0F00
0F00
0F00
3FC0
3FC0
ENDCHAR
STARTCHAR 0423
ENCODING 1059
SWIDTH 1020 0
DWIDTH 17 0
BBX 12 15 2 0
BITMAP
F0F0
F0F0
F0F0
F0F0
F0F0
F0F0
3FF0
3FF0
00F0
00F0
00F0
F0F0
F0F0
3FC0
3FC0
ENDCHAR
STARTCHAR 0424
ENCODING 1060
SWIDTH 1020 0
DWIDTH 17 0
BBX 15 15 0 0
BITMAP
3FF0
3FF0
F31E
F31E
F31E
F31E
F31E
F31E
3FF0
3FF0
0300
0300
0300
0FC0
0FC0
ENDCHAR
STARTCHAR 0425
ENCODING 1061
SWIDTH 1020 0
DWIDTH 17 0
BBX 15 15 0 0
BITMAP
F01E
F01E
F01E
F01E
3CF0
3CF0
0FC0
0FC0
0FC0
0FC0
3CF0
3CF0
3CF0
F01E
F01E
ENDCHAR
STARTCHAR 0426
ENCODING 1062
SWIDTH 1020 0
DWIDTH 17 0
BBX 15 17 0 -2
BITMAP
F0F0
F0F0
F0F0
F0F0
F0F0
F0F0
F0F0
F0F0
F0F0
F0F0
F0F0
F0F0
F0F0
FFFE
FFFE
001E
001E
ENDCHAR
STARTCHAR 0427
ENCODING 1063
SWIDTH 1020 0
DWIDTH 17 0
BBX 12 15 2 0
BITMAP
F0F0
F0F0
F0F0
F0F0
F0F0
F0F0
3FF0
3FF0
00F0
00F0
00F0
00F0
00F0
00F0
00F0
ENDCHAR
STARTCHAR 0428
ENCODING 1064
SWIDTH 1020 0
DWIDTH 17 0
BBX 15 15 0 0
BITMAP
F31E
F31E
F31E
F31E
F31E
F31E
F31E
F31E
F31E
F31E
F31E
F31E
F31E
FFFE
FFFE
ENDCHAR
STARTCHAR 0429
ENCODING 1065
SWIDTH 1020 0
DWIDTH 17 0
BBX 17 17 0 -2
BITMAP
F31E00
F31E00
F31E00
F31E00
F31E00
F31E00
F31E00
F31E00
F31E00
F31E00
F31E00
F31E00
F31E00
FFFF80
FFFF80
000780
000780
ENDCHAR
STARTCHAR 042A
ENCODING 1066
SWIDTH 1020 0
DWIDTH 17 0
BBX 15 15 0 0
BITMAP
FF00
FF00
CF00
CF00
CF00
CF00
0FF8
0FF8
0F18
0F1E
0F1E
0F1E
0F1E
0FF8
0FF8
ENDCHAR
STARTCHAR 042B
ENCODING 1067
SWIDTH 1020 0
DWIDTH 17 0
BBX 15 15 0 0
BITMAP
F01E
F01E
F01E
F01E
F01E
F01E
FF9E
FF9E
F39E
F3FE
F3FE
F3FE
F3FE
FF9E
FF9E
ENDCHAR
STARTCHAR 042C
ENCODING 1068
SWIDTH 1020 0
DWIDTH 17 0
BBX 15 15 0 0
BITMAP
FF00
FF00
3C00
3C00
3C00
3C00
3FF8
3FF8
3C18
3C1E
3C1E
3C1E
3C1E
3FF8
3FF8
ENDCHAR
STARTCHAR 042D
ENCODING 1069
SWIDTH 1020 0
DWIDTH 17 0
BBX 15 15 0 0
BITMAP
3FC0
3FC0
C0F0
C0F0
001E
001E
0FFE
0FFE
001E
001E
001E
C0F0
C0F0
3FC0
3FC0
ENDCHAR
STARTCHAR 042E
ENCODING 1070
SWIDTH 1020 0
DWIDTH 17 0
BBX 15 15 0 0
BITMAP
F0F0
F0F0
F31E
F31E
F31E
F31E
FF1E
FF1E
F31E
F31E
F31E
F31E
F31E
F0F0
F0F0
ENDCHAR
STARTCHAR 042F
ENCODING 1071
SWIDTH 1020 0
DWIDTH 17 0
BBX 13 15 2 0
BITMAP
3FF8
3FF8
F0F8
F0F8
F0F8
F0F8
F0F8
F0F8
3FF8
3FF8
3CF8
3CF8
3CF8
F0F8
F0F8
ENDCHAR
STARTCHAR 0430
ENCODING 1072
SWIDTH 1020 0
DWIDTH 17 0
BBX 15 11 0 0
BITMAP
3FC0
3FC0
00F0
00F0
3FF0
3FF0
30F0
F0F0
F0F0
3F1E
3F1E
ENDCHAR
STARTCHAR 0431
ENCODING 1073
SWIDTH 1020 0
DWIDTH 17 0
BBX 12 15 2 0
BITMAP
00F0
00F0
3FC0
3FC0
F000
F000
3FC0
3FC0
30C0
F0F0
F0F0
F0F0
F0F0
3FC0
3FC0
ENDCHAR
STARTCHAR 0432
ENCODING 1074
SWIDTH 1020 0
DWIDTH 17 0
BBX 16 11 0 0
BITMAP
FFF8
FFF8
1E0F
1E0F
1FF8
1FF8
1E08
1E0F
1E0F
FFF8
FFF8
ENDCHAR
STARTCHAR 0433
ENCODING 1075
SWIDTH 1020 0
DWIDTH 17 0
BBX 15 11 0 0
BITMAP
FFFE
FFFE
3C1E
3C1E
3C00
3C00
3C00
3C00
3C00
FF00
FF00
ENDCHAR
STARTCHAR 0434
ENCODING 1076
SWIDTH 1020 0
DWIDTH 17 0
BBX 15 13 0 -2
BITMAP
0FF0
0FF0
3CF0
3CF0
3CF0
3CF0
3CF0
3CF0
3CF0
FFFE
FFFE
F01E
F01E
ENDCHAR
STARTCHAR 0435
ENCODING 1077
SWIDTH 1020 0
DWIDTH 17 0
BBX 12 11 2 0
BITMAP
3FC0
3FC0
F0F0
F0F0
FFF0
FFF0
F000
F000
F000
3FC0
3FC0
ENDCHAR
STARTCHAR 0436
ENCODING 1078
SWIDTH 1020 0
DWIDTH 17 0
BBX 15 11 0 0
BITMAP
F31E
F31E
3FF0
3FF0
0FC0
0FC0
0FC0
3FF0
3FF0
F31E
F31E
ENDCHAR
STARTCHAR 0437
ENCODING 1079
SWIDTH 1020 0
DWIDTH 17 0
BBX 15 11 0 0
BITMAP
3FF0
3FF0
F01E
F01E
03F0
03F0
0010
F01E
F01E
3FF0
3FF0
ENDCHAR
STARTCHAR 0438
ENCODING 1080
SWIDTH 1020 0
DWIDTH 17 0
BBX 15 11 0 0
BITMAP
F01E
F01E
F07E
F07E
F07E
F3FE
F39E
FF9E
FF9E
FC1E
FC1E
ENDCHAR
STARTCHAR 0439
ENCODING 1081
SWIDTH 1020 0
DWIDTH 17 0
BBX 14 15 0 0
BITMAP
3CF0
3CF0
0FC0
0FC0
F03C
F03C
F0FC
F0FC
F0FC
F3FC
F33C
FF3C
FF3C
FC3C
FC3C
ENDCHAR
STARTCHAR 043A
ENCODING 1082
SWIDTH 1020 0
DWIDTH 17 0
BBX 14 11 0 0
BITMAP
FC3C
FC3C
3CF0
3CF0
3FC0
3FC0
3CF0
3CF0
3CF0
FC3C
FC3C
ENDCHAR
STARTCHAR 043B
ENCODING 1083
SWIDTH 1020 0
DWIDTH 17 0
BBX 14 11 0 0
BITMAP
0FFC
0FFC
3C3C
3C3C
3C3C
3C3C
3C3C
3C3C
3C3C
FC3C
FC3C
ENDCHAR
STARTCHAR 043C
ENCODING 1084
SWIDTH 1020 0
DWIDTH 17 0
BBX 15 11 0 0
BITMAP
F01E
F01E
FFFE
FFFE
FFFE
FFFE
F31E
F31E
F31E
F01E
F01E
ENDCHAR
STARTCHAR 043D
ENCODING 1085
SWIDTH 1020 0
DWIDTH 17 0
BBX 12 11 2 0
BITMAP
F0F0
F0F0
F0F0
F0F0
FFF0
FFF0
F0F0
F0F0
F0F0
F0F0
F0F0
ENDCHAR
STARTCHAR 043E
ENCODING 1086
SWIDTH 1020 0
DWIDTH 17 0
BBX 12 11 2 0
BITMAP
3FC0
3FC0
F0F0
F0F0
F0F0
F0F0
F0F0
F0F0
F0F0
3FC0
3FC0
ENDCHAR
STARTCHAR 043F
ENCODING 1087
SWIDTH 1020 0
DWIDTH 17 0
BBX 12 11 2 0
BITMAP
FFF0
FFF0
F0F0
F0F0
F0F0
F0F0
F0F0
F0F0
F0F0
F0F0
F0F0
ENDCHAR
STARTCHAR 0440
ENCODING 1088
SWIDTH 1020 0
DWIDTH 17 0
BBX 15 13 0 -2
BITMAP
FFF8
FFF8
3C1E
3C1E
3C1E
3C1E
3FF8
3FF8
3C00
3C00
3C00
FF00
FF00
ENDCHAR
STARTCHAR 0441
ENCODING 1089
SWIDTH 1020 0
DWIDTH 17 0
BBX 12 11 2 0
BITMAP
3FC0
3FC0
F0F0
F0F0
F000
F000
F000
F0F0
F0F0
3FC0
3FC0
ENDCHAR
STARTCHAR 0442
ENCODING 1090
SWIDTH 1020 0
DWIDTH 17 0
BBX 12 11 2 0
BITMAP
FFF0
FFF0
CF30
CF30
0F00
0F00
0F00
0F00
0F00
3FC0
3FC0
ENDCHAR
STARTCHAR 0443
ENCODING 1091
SWIDTH 1020 0
DWIDTH 17 0
BBX 12 13 2 -2
BITMAP
F0F0
F0F0
F0F0
F0F0
F0F0
F0F0
FFF0
3FF0
00F0
00F0
00F0
FFC0
FFC0
ENDCHAR
STARTCHAR 0444
ENCODING 1092
SWIDTH 1020 0
DWIDTH 17 0
BBX 15 13 0 -2
BITMAP
3FF0
3FF0
F31E
F31E
F31E
F31E
3FF0
3FF0
0300
0300
0300
0FC0
0FC0
ENDCHAR
STARTCHAR 0445
ENCODING 1093
SWIDTH 1020 0
DWIDTH 17 0
BBX 15 11 0 0
BITMAP
F01E
F01E
3CF0
3CF0
0FC0
0FC0
3CF0
3CF0
3CF0
F01E
F01E
ENDCHAR
STARTCHAR 0446
ENCODING 1094
SWIDTH 1020 0
DWIDTH 17 0
BBX 15 13 0 -2
BITMAP
F0F0
F0F0
F0F0
F0F0
F0F0
F0F0
F0F0
F0F0
F0F0
FFFE
FFFE
001E
001E
ENDCHAR
STARTCHAR 0447
ENCODING 1095
SWIDTH 1020 0
DWIDTH 17 0
BBX 12 11 2 0
BITMAP
F0F0
F0F0
F0F0
F0F0
3FF0
3FF0
00F0
00F0
00F0
00F0
00F0
ENDCHAR
STARTCHAR 0448
ENCODING 1096
SWIDTH 1020 0
DWIDTH 17 0
BBX 15 11 0 0
BITMAP
F31E
F31E
F31E
F31E
F31E
F31E
F31E
F31E
F31E
FFFE
FFFE
ENDCHAR
STARTCHAR 0449
ENCODING 1097
SWIDTH 1020 0
DWIDTH 17 0
BBX 17 13 0 -2
BITMAP
F31E00
F31E00
F31E00
F31E00
F31E00
F31E00
F31E00
F31E00
F31E00
FFFF80
FFFF80
000780
000780
ENDCHAR
STARTCHAR 044A
ENCODING 1098
SWIDTH 1020 0
DWIDTH 17 0
BBX 15 11 0 0
BITMAP
FF00
FF00
CF00
CF00
0FF8
0FF8
0F18
0F1E
0F1E
0FF8
0FF8
ENDCHAR
STARTCHAR 044B
ENCODING 1099
SWIDTH 1020 0
DWIDTH 17 0
BBX 15 11 0 0
BITMAP
F01E
F01E
F01E
F01E
FF9E
FF9E
F39E
F3FE
F3FE
FF9E
FF9E
ENDCHAR
STARTCHAR 044C
ENCODING 1100
SWIDTH 1020 0
DWIDTH 17 0
BBX 15 11 0 0
BITMAP
FF00
FF00
3C00
3C00
3FF8
3FF8
3C18
3C1E
3C1E
FFF8
FFF8
ENDCHAR
STARTCHAR 044D
ENCODING 1101
SWIDTH 1020 0
DWIDTH 17 0
BBX 15 11 0 0
BITMAP
3FF0
3FF0
F01E
F01E
03FE
03FE
001E
F01E
F01E
3FF0
3FF0
ENDCHAR
STARTCHAR 044E
ENCODING 1102
SWIDTH 1020 0
DWIDTH 17 0
BBX 15 11 0 0
BITMAP
F0F0
F0F0
F31E
F31E
FF1E
FF1E
F31E
F31E
F31E
F0F0
F0F0
ENDCHAR
STARTCHAR 044F
ENCODING 1103
SWIDTH 1020 0
DWIDTH 17 0
BBX 13 11 2 0
BITMAP
3FF8
3FF8
F0F8
F0F8
3FF8
3FF8
3CF8
3CF8
3CF8
F0F8
F0F8
ENDCHAR
STARTCHAR 0450
ENCODING 1104
SWIDTH 1020 0
DWIDTH 17 0
BBX 12 15 2 0
BITMAP
FC00
FC00
0000
0000
3FC0
3FC0
F0F0
F0F0
FFF0
FFF0
F000
F000
F000
3FC0
3FC0
ENDCHAR
STARTCHAR 0451
ENCODING 1105
SWIDTH 1020 0
DWIDTH 17 0
BBX 12 15 2 0
BITMAP
F0F0
F0F0
0000
0000
3FC0
3FC0
F0F0
F0F0
FFF0
FFF0
F000
F000
F000
3FC0
3FC0
ENDCHAR
STARTCHAR 0452
ENCODING 1106
SWIDTH 1020 0
DWIDTH 17 0
BBX 15 17 0 -2
BITMAP
3C00
3C00
FF00
FF00
3C00
3C00
3FF0
3FF0
3C1E
3C1E
3C1E
3C1E
3C1E
3C1E
3C1E
00F0
00F0
ENDCHAR
STARTCHAR 0453
ENCODING 1107
SWIDTH 1020 0
DWIDTH 17 0
BBX 13 15 2 0
BITMAP
0FE0
0FE0
0C00
0C00
0000
0000
FFF8
FFF8
F000
F000
F000
F000
F000
F000
F000
ENDCHAR
STARTCHAR 0454
ENCODING 1108
SWIDTH 1020 0
DWIDTH 17 0
BBX 15 11 0 0
BITMAP
3FF0
3FF0
F01E
F01E
FF80
FF80
F000
F01E
F01E
3FF0
3FF0
ENDCHAR
STARTCHAR 0455
ENCODING 1109
SWIDTH 1020 0
DWIDTH 17 0
BBX 12 11 2 0
BITMAP
3FF0
3FF0
F000
F000
3FC0
3FC0
00C0
00F0
00F0
FFC0
FFC0
ENDCHAR
STARTCHAR 0456
ENCODING 1110
SWIDTH 1020 0
DWIDTH 17 0
BBX 8 15 4 0
BITMAP
3C
3C
00
00
FC
FC
3C
3C
3C
3C
3C
3C
3C
FF
FF
ENDCHAR
STARTCHAR 0457
ENCODING 1111
SWIDTH 1020 0
DWIDTH 17 0
BBX 12 15 2 0
BITMAP
F0F0
F0F0
0000
0000
3F00
3F00
0F00
0F00
0F00
0F00
0F00
0F00
0F00
3FC0
3FC0
ENDCHAR
STARTCHAR 0458
ENCODING 1112
SWIDTH 1020 0
DWIDTH 17 0
BBX 12 17 2 -2
BITMAP
00F0
00F0
0000
0000
00F0
00F0
00F0
00F0
00F0
00F0
00F0
F0F0
F0F0
F0F0
F0F0
3FC0
3FC0
ENDCHAR
STARTCHAR 0459
ENCODING 1113
SWIDTH 1020 0
DWIDTH 17 0
BBX 14 11 0 0
BITMAP
FFC0
FFC0
33C0
33C0
33F8
33F8
33C0
33CC
33CC
F3F8
F3F8
ENDCHAR
STARTCHAR 045A
ENCODING 1114
SWIDTH 1020 0
DWIDTH 17 0
BBX 15 11 0 0
BITMAP
F3C0
F3C0
F3C0
F3C0
FFF8
FFF8
F3C0
F3C6
F3C6
F3F8
F3F8
ENDCHAR
STARTCHAR 045B
ENCODING 1115
SWIDTH 1020 0
DWIDTH 17 0
BBX 15 15 0 0
BITMAP
3C00
3C00
FF00
FF00
3C00
3C00
3FF8
3FF8
3C1E
3C1E
3C1E
3C1E
3C1E
3C1E
3C1E
ENDCHAR
STARTCHAR 045C
ENCODING 1116
SWIDTH 1020 0
DWIDTH 17 0
BBX 14 15 0 0
BITMAP
03F0
03F0
0300
0300
FC3C
FC3C
3CF0
3CF0
3FC0
3FC0
3CF0
3CF0
3CF0
FC3C
FC3C
ENDCHAR
STARTCHAR 045D
ENCODING 1117
SWIDTH 1020 0
DWIDTH 17 0
BBX 12 15 2 0
BITMAP
3F00
3F00
0300
0300
0000
0000
F0F0
F0F0
F0F0
F3F0
F3F0
FFF0
FFF0
FCF0
FCF0
ENDCHAR
STARTCHAR 045E
ENCODING 1118
SWIDTH 1020 0
DWIDTH 17 0
BBX 15 17 0 -2
BITMAP
3CF0
3CF0
0FC0
0FC0
F01E
F01E
F01E
F01E
F01E
F01E
FFFE
3FFE
001E
001E
001E
3FF0
3FF0
ENDCHAR
STARTCHAR 045F
ENCODING 1119
SWIDTH 1020 0
DWIDTH 17 0
BBX 15 13 0 -2
BITMAP
F01E
F01E
F01E
F01E
F01E
F01E
F01E
F01E
F01E
FFFE
FFFE
0300
0300
ENDCHAR
STARTCHAR 0490
ENCODING 1168
SWIDTH 1020 0
DWIDTH 17 0
BBX 15 15 0 0
BITMAP
001E
001E
FFFE
FFFE
3C00
3C00
3C00
3C00
3C00
3C00
3C00
3C00
3C00
FF00
FF00
ENDCHAR
STARTCHAR 0491
ENCODING 1169
SWIDTH 1020 0
DWIDTH 17 0
BBX 15 13 0 0
BITMAP
001E
001E
FFFE
FFFE
3C00
3C00
3C00
3C00
3C00
3C00
3C00
FF00
FF00
ENDCHAR
STARTCHAR 05BE
ENCODING 1470
SWIDTH 1020 0
DWIDTH 17 0
BBX 13 2 2 10
BITMAP
FFF8
FFF8
ENDCHAR
STARTCHAR 05D0
ENCODING 1488
SWIDTH 1020 0
DWIDTH 17 0
BBX 15 13 0 0
BITMAP
F01E
F01E
301E
3C1E
3C1E
3F9E
3F9E
F3F8
F3F8
F078
F078
F01E
F01E
ENDCHAR
STARTCHAR 05D1
ENCODING 1489
SWIDTH 1020 0
DWIDTH 17 0
BBX 15 13 0 0
BITMAP
FFC0
FFC0
00F0
00F0
00F0
00F0
00F0
00F0
00F0
00F0
00F0
FFFE
FFFE
ENDCHAR
STARTCHAR 05D2
ENCODING 1490
SWIDTH 1020 0
DWIDTH 17 0
BBX 15 13 0 0
BITMAP
0FC0
0FC0
00F0
00F0
00F0
00F0
00F0
03F0
03F0
0F30
0F30
FC3E
FC3E
ENDCHAR
STARTCHAR 05D3
ENCODING 1491
SWIDTH 1020 0
DWIDTH 17 0
BBX 15 13 0 0
BITMAP
FFFE
FFFE
00F0
00F0
00F0
00F0
00F0
00F0
00F0
00F0
00F0
00F0
00F0
ENDCHAR
STARTCHAR 05D4
ENCODING 1492
SWIDTH 1020 0
DWIDTH 17 0
BBX 15 13 0 0
BITMAP
FFF8
FFF8
0018
001E
001E
001E
001E
F01E
F01E
F01E
F01E
F01E
F01E
ENDCHAR
STARTCHAR 05D5
ENCODING 1493
SWIDTH 1020 0
DWIDTH 17 0
BBX 8 13 2 0
BITMAP
FC
FC
0C
0F
0F
0F
0F
0F
0F
0F
0F
0F
0F
ENDCHAR
STARTCHAR 05D6
ENCODING 1494
SWIDTH 1020 0
DWIDTH 17 0
BBX 8 13 4 0
BITMAP
FF
FF
3C
3C
3C
3C
3C
0F
0F
3C
3C
F0
F0
ENDCHAR
STARTCHAR 05D7
ENCODING 1495
SWIDTH 1020 0
DWIDTH 17 0
BBX 15 13 0 0
BITMAP
FFF8
FFF8
3C18
3C1E
3C1E
F01E
F01E
F01E
F01E
F01E
F01E
F01E
F01E
ENDCHAR
STARTCHAR 05D8
ENCODING 1496
SWIDTH 1020 0
DWIDTH 17 0
BBX 15 13 0 0
BITMAP
F0F8
F0F8
F018
F31E
F31E
F31E
F31E
F01E
F01E
F0F8
30C0
3FC0
3FC0
ENDCHAR
STARTCHAR 05D9
ENCODING 1497
SWIDTH 1020 0
DWIDTH 17 0
BBX 8 8 4 5
BITMAP
FC
FC
0F
0F
0F
0F
3C
3C
ENDCHAR
STARTCHAR 05DA
ENCODING 1498
SWIDTH 1020 0
DWIDTH 17 0
BBX 15 15 0 -2
BITMAP
FFF0
FFF0
0010
001E
001E
001E
001E
00F0
00F0
00F0
00F0
00F0
00F0
00FE
00FE
ENDCHAR
STARTCHAR 05DB
ENCODING 1499
SWIDTH 1020 0
DWIDTH 17 0
BBX 15 13 0 0
BITMAP
FFF8
FFF8
0018
001E
001E
001E
001E
001E
001E
001E
001E
FFF8
FFF8
ENDCHAR
STARTCHAR 05DC
ENCODING 1500
SWIDTH 1020 0
DWIDTH 17 0
BBX 15 15 0 0
BITMAP
F000
F000
FFF0
FFF0
0010
001E
001E
001E
001E
00F0
00F0
03C0
03C0
03C0
03C0
ENDCHAR
STARTCHAR 05DD
ENCODING 1501
SWIDTH 1020 0
DWIDTH 17 0
BBX 15 13 0 0
BITMAP
FFF8
FFF8
3C1E
3C1E
F01E
F01E
F01E
F01E
F01E
F01E
F01E
FFFE
FFFE
ENDCHAR
STARTCHAR 05DE
ENCODING 1502
SWIDTH 1020 0
DWIDTH 17 0
BBX 15 13 0 0
BITMAP
F3F8
F3F8
3398
3F9E
3F9E
3C1E
3C1E
F01E
F01E
F01E
F01E
F3FE
F3FE
ENDCHAR
STARTCHAR 05DF
ENCODING 1503
SWIDTH 1020 0
DWIDTH 17 0
BBX 8 15 4 -2
BITMAP
FC
FC
0C
0F
0F
3C
3C
3C
3C
3C
3C
3C
3C
3F
3F
ENDCHAR
STARTCHAR 05E0
ENCODING 1504
SWIDTH 1020 0
DWIDTH 17 0
BBX 10 13 2 0
BITMAP
3F00
3F00
03C0
03C0
03C0
03C0
03C0
03C0
03C0
03C0
03C0
FFC0
FFC0
ENDCHAR
STARTCHAR 05E1
ENCODING 1505
SWIDTH 1020 0
DWIDTH 17 0
BBX 15 13 0 0
BITMAP
FFF8
FFF8
3C18
3C1E
3C1E
F01E
F01E
F01E
F01E
F0F8
F0F8
3FC0
3FC0
ENDCHAR
STARTCHAR 05E2
ENCODING 1506
SWIDTH 1020 0
DWIDTH 17 0
BBX 15 13 0 0
BITMAP
3C1E
3C1E
3C1E
3C1E
3C1E
3C1E
3C1E
3C1E
0F1E
0F1E
0F18
FFF8
FFF8
ENDCHAR
STARTCHAR 05E3
ENCODING 1507
SWIDTH 1020 0
DWIDTH 17 0
BBX 15 15 0 -2
BITMAP
FFC0
FFC0
30F0
30F0
F0F0
F0F0
F0F0
FCF0
FCF0
00F0
00F0
00F0
00F0
00FE
00FE
ENDCHAR
STARTCHAR 05E4
ENCODING 1508
SWIDTH 1020 0
DWIDTH 17 0
BBX 15 13 0 0
BITMAP
FFF8
FFF8
301E
301E
F01E
F01E
F01E
FC1E
FC1E
001E
001E
FFFE
FFFE
ENDCHAR
STARTCHAR 05E5
ENCODING 1509
SWIDTH 1020 0
DWIDTH 17 0
BBX 13 15 2 -2
BITMAP
F0F8
F0F8
F0F8
F0F8
F0F8
F0F8
F0E0
FFE0
FFE0
F000
F000
F000
F000
FE00
FE00
ENDCHAR
STARTCHAR 05E6
ENCODING 1510
SWIDTH 1020 0
DWIDTH 17 0
BBX 12 13 2 0
BITMAP
F0F0
F0F0
30F0
3CF0
0CC0
0FC0
0FC0
03C0
03C0
00F0
00F0
FFF0
FFF0
ENDCHAR
STARTCHAR 05E7
ENCODING 1511
SWIDTH 1020 0
DWIDTH 17 0
BBX 15 15 0 -2
BITMAP
FFF0
FFF0
0010
001E
001E
3C1E
3C1E
3CF0
3CF0
3CFE
3CFE
3C00
3C00
3C00
3C00
ENDCHAR
STARTCHAR 05E8
ENCODING 1512
SWIDTH 1020 0
DWIDTH 17 0
BBX 15 13 0 0
BITMAP
FFF8
FFF8
0018
001E
001E
001E
001E
001E
001E
001E
001E
001E
001E
ENDCHAR
STARTCHAR 05E9
ENCODING 1513
SWIDTH 1020 0
DWIDTH 17 0
BBX 15 13 0 0
BITMAP
F31E
F31E
F31E
F31E
F31E
F31E
F31E
FF1E
FF1E
F01E
3010
3FF0
3FF0
ENDCHAR
STARTCHAR 05EA
ENCODING 1514
SWIDTH 1020 0
DWIDTH 17 0
BBX 16 13 0 0
BITMAP
FFFC
FFFC
1E0C
1E0F
1E0F
1E0F
1E0F
1E0F
1E0F
FE0F
FE0F
FE0F
FE0F
ENDCHAR
STARTCHAR 05F0
ENCODING 1520
SWIDTH 1020 0
DWIDTH 17 0
BBX 15 13 0 0
BITMAP
F0F8
F0F8
3038
3C3E
3C3E
3C3E
3C3E
3C3E
3C3E
3C3E
3C3E
3C3E
3C3E
ENDCHAR
STARTCHAR 05F1
ENCODING 1521
SWIDTH 1020 0
DWIDTH 17 0
BBX 15 13 0 0
BITMAP
F078
F078
3018
3C1E
3C1E
3C1E
3C1E
001E
001E
001E
001E
001E
001E
ENDCHAR
STARTCHAR 05F2
ENCODING 1522
SWIDTH 1020 0
DWIDTH 17 0
BBX 15 6 0 7
BITMAP
F0F8
F0F8
3C3E
3C3E
3C3E
3C3E
ENDCHAR
STARTCHAR 05F3
ENCODING 1523
SWIDTH 1020 0
DWIDTH 17 0
BBX 6 6 4 8
BITMAP
3C
3C
3C
3C
F0
F0
ENDCHAR
STARTCHAR 05F4
ENCODING 1524
SWIDTH 1020 0
DWIDTH 17 0
BBX 15 6 0 8
BITMAP
3C3E
3C3E
3C3E
3C3E
F0F8
F0F8
ENDCHAR
STARTCHAR 1D1B
ENCODING 7451
SWIDTH 1020 0
DWIDTH 17 0
BBX 15 13 0 0
BITMAP
3F1E
3F1E
F3F8
F3F8
03C0
03C0
03C0
03C0
03C0
03C0
03C0
03C0
03C0
ENDCHAR
STARTCHAR 1D26
ENCODING 7462
SWIDTH 1020 0
DWIDTH 17 0
BBX 12 13 0 0
BITMAP
FFF0
FFF0
F0F0
F0F0
F000
F000
F000
F000
F000
F000
F000
F000
F000
ENDCHAR
STARTCHAR 1D28
ENCODING 7464
SWIDTH 1020 0
DWIDTH 17 0
BBX 15 13 0 0
BITMAP
FFFE
FFFE
3CF0
3CF0
3CF0
3CF0
3CF0
3CF0
3CF0
3CF0
3CF0
3CF0
3CF0
ENDCHAR
STARTCHAR 1E80
ENCODING 7808
SWIDTH 1020 0
DWIDTH 17 0
BBX 15 15 0 0
BITMAP
FC00
FC00
0000
0000
F01E
F01E
F31E
F31E
F31E
FFFE
FCFE
FCFE
FCFE
F01E
F01E
ENDCHAR
STARTCHAR 1E81
ENCODING 7809
SWIDTH 1020 0
DWIDTH 17 0
BBX 15 15 0 0
BITMAP
FC00
FC00
0000
0000
F01E
F01E
F31E
F31E
FFFE
FFFE
FFFE
FFFE
FFFE
3CF0
3CF0
ENDCHAR
STARTCHAR 1E82
ENCODING 7810
SWIDTH 1020 0
DWIDTH 17 0
BBX 14 15 0 0
BITMAP
00FC
00FC
0000
0000
F03C
F03C
F33C
F33C
F33C
FFFC
FCFC
FCFC
FCFC
F03C
F03C
ENDCHAR
STARTCHAR 1E83
ENCODING 7811
SWIDTH 1020 0
DWIDTH 17 0
BBX 15 15 0 0
BITMAP
00FE
00FE
0000
0000
F01E
F01E
F31E
F31E
FFFE
FFFE
FFFE
FFFE
FFFE
3CF0
3CF0
ENDCHAR
STARTCHAR 1E84
ENCODING 7812
SWIDTH 1020 0
DWIDTH 17 0
BBX 15 15 0 0
BITMAP
F01E
F01E
0000
0000
F01E
F01E
F31E
F31E
F31E
FFFE
FCFE
FCFE
FCFE
F01E
F01E
ENDCHAR
STARTCHAR 1E85
ENCODING 7813
SWIDTH 1020 0
DWIDTH 17 0
BBX 15 15 0 0
BITMAP
F01E
F01E
0000
0000
F01E
F01E
F31E
F31E
FFFE
FFFE
FFFE
FFFE
FFFE
3CF0
3CF0
ENDCHAR
STARTCHAR 1E9F
ENCODING 7839
SWIDTH 1020 0
DWIDTH 17 0
BBX 12 15 0 0
BITMAP
03F0
03F0
0F00
0F00
03C0
03C0
3FF0
3FF0
30F0
F0F0
F0F0
F0F0
F0F0
3FC0
3FC0
ENDCHAR
STARTCHAR 1EF2
ENCODING 7922
SWIDTH 1020 0
DWIDTH 17 0
BBX 12 15 0 0
BITMAP
FC00
FC00
0000
0000
F0F0
F0F0
F0F0
F0F0
3FC0
3FC0
0F00
0F00
0F00
3FC0
3FC0
ENDCHAR
STARTCHAR 1EF3
ENCODING 7923
SWIDTH 1020 0
DWIDTH 17 0
BBX 12 15 0 -2
BITMAP
FC00
FC00
0000
0000
F0F0
F0F0
F0F0
F0F0
3FF0
3FF0
00F0
00F0
00F0
FFC0
FFC0
ENDCHAR
STARTCHAR 2010
ENCODING 8208
SWIDTH 1020 0
DWIDTH 17 0
BBX 13 2 0 7
BITMAP
FFF8
FFF8
ENDCHAR
STARTCHAR 2012
ENCODING 8210
SWIDTH 1020 0
DWIDTH 17 0
BBX 10 2 2 7
BITMAP
FFC0
FFC0
ENDCHAR
STARTCHAR 2013
ENCODING 8211
SWIDTH 1020 0
DWIDTH 17 0
BBX 10 2 2 7
BITMAP
FFC0
FFC0
ENDCHAR
STARTCHAR 2014
ENCODING 8212
SWIDTH 1020 0
DWIDTH 17 0
BBX 17 2 0 7
BITMAP
FFFF80
FFFF80
ENDCHAR
STARTCHAR 2015
ENCODING 8213
SWIDTH 1020 0
DWIDTH 17 0
BBX 17 2 0 7
BITMAP
FFFF80
FFFF80
ENDCHAR
STARTCHAR 2017
ENCODING 8215
SWIDTH 1020 0
DWIDTH 17 0
BBX 17 7 0 -2
BITMAP
FFFF80
FFFF80
000000
000000
000000
FFFF80
FFFF80
ENDCHAR
STARTCHAR 2018
ENCODING 8216
SWIDTH 1020 0
DWIDTH 17 0
BBX 6 6 4 9
BITMAP
3C
3C
F0
F0
F0
F0
ENDCHAR
STARTCHAR 2019
ENCODING 8217
SWIDTH 1020 0
DWIDTH 17 0
BBX 6 6 2 9
BITMAP
3C
3C
3C
3C
F0
F0
ENDCHAR
STARTCHAR 201A
ENCODING 8218
SWIDTH 1020 0
DWIDTH 17 0
BBX 6 6 2 -2
BITMAP
3C
3C
3C
3C
F0
F0
ENDCHAR
STARTCHAR 201B
ENCODING 8219
SWIDTH 1020 0
DWIDTH 17 0
BBX 6 6 4 9
BITMAP
F0
F0
F0
F0
3C
3C
ENDCHAR
STARTCHAR 201C
ENCODING 8220
SWIDTH 1020 0
DWIDTH 17 0
BBX 15 6 0 9
BITMAP
3C1E
3C1E
F0F0
F0F0
F0F0
F0F0
ENDCHAR
STARTCHAR 201D
ENCODING 8221
SWIDTH 1020 0
DWIDTH 17 0
BBX 15 6 0 9
BITMAP
3C1E
3C1E
3C1E
3C1E
F0F0
F0F0
ENDCHAR
STARTCHAR 201E
ENCODING 8222
SWIDTH 1020 0
DWIDTH 17 0
BBX 15 6 0 -2
BITMAP
3C1E
3C1E
3C1E
3C1E
F0F0
F0F0
ENDCHAR
STARTCHAR 201F
ENCODING 8223
SWIDTH 1020 0
DWIDTH 17 0
BBX 15 6 0 9
BITMAP
F0F0
F0F0
F0F0
F0F0
3C1E
3C1E
ENDCHAR
STARTCHAR 2020
ENCODING 8224
SWIDTH 1020 0
DWIDTH 17 0
BBX 13 17 0 -2
BITMAP
0F00
0F00
0F00
0F00
FFF8
FFF8
0F00
0F00
0F00
0F00
0F00
0F00
0F00
0F00
0F00
0F00
0F00
ENDCHAR
STARTCHAR 2021
ENCODING 8225
SWIDTH 1020 0
DWIDTH 17 0
BBX 13 17 0 -2
BITMAP
0F00
0F00
0F00
0F00
FFF8
FFF8
0F00
0F00
0F00
0F00
FFF8
FFF8
0F00
0F00
0F00
0F00
0F00
ENDCHAR
STARTCHAR 2022
ENCODING 8226
SWIDTH 1020 0
DWIDTH 17 0
BBX 8 9 4 2
BITMAP
3C
3C
3C
FF
FF
FF
FF
3C
3C
ENDCHAR
STARTCHAR 2026
ENCODING 8230
SWIDTH 1020 0
DWIDTH 17 0
BBX 16 4 0 0
BITMAP
F3CF
F3CF
F3CF
F3CF
ENDCHAR
STARTCHAR 2027
ENCODING 8231
SWIDTH 1020 0
DWIDTH 17 0
BBX 4 4 6 4
BITMAP
F0
F0
F0
F0
ENDCHAR
STARTCHAR 2030
ENCODING 8240
SWIDTH 1020 0
DWIDTH 17 0
BBX 17 13 0 0
BITMAP
F0F000
F0F000
F3C000
F3C000
0F0000
0F0000
0C0000
3C0000
300000
F3C780
F3C780
C3C780
C3C780
ENDCHAR
STARTCHAR 2032
ENCODING 8242
SWIDTH 1020 0
DWIDTH 17 0
BBX 8 6 2 9
BITMAP
0F
0F
3C
3C
F0
F0
ENDCHAR
STARTCHAR 2033
ENCODING 8243
SWIDTH 1020 0
DWIDTH 17 0
BBX 14 6 0 9
BITMAP
0F3C
0F3C
3CF0
3CF0
F3C0
F3C0
ENDCHAR
STARTCHAR 2035
ENCODING 8245
SWIDTH 1020 0
DWIDTH 17 0
BBX 8 6 2 9
BITMAP
F0
F0
3C
3C
0F
0F
ENDCHAR
STARTCHAR 2039
ENCODING 8249
SWIDTH 1020 0
DWIDTH 17 0
BBX 8 11 2 2
BITMAP
0F
0F
3C
3C
3C
F0
3C
3C
3C
0F
0F
ENDCHAR
STARTCHAR 203A
ENCODING 8250
SWIDTH 1020 0
DWIDTH 17 0
BBX 8 11 2 2
BITMAP
F0
F0
3C
3C
3C
0F
3C
3C
3C
F0
F0
ENDCHAR
STARTCHAR 203C
ENCODING 8252
SWIDTH 1020 0
DWIDTH 17 0
BBX 12 15 2 0
BITMAP
F0F0
F0F0
F0F0
F0F0
F0F0
F0F0
F0F0
F0F0
F0F0
F0F0
F0F0
0000
0000
F0F0
F0F0
ENDCHAR
STARTCHAR 203E
ENCODING 8254
SWIDTH 1020 0
DWIDTH 17 0
BBX 17 2 0 13
BITMAP
FFFF80
FFFF80
ENDCHAR
STARTCHAR 203F
ENCODING 8255
SWIDTH 1020 0
DWIDTH 17 0
BBX 15 4 0 -2
BITMAP
F01E
F01E
3FF0
3FF0
ENDCHAR
STARTCHAR 2040
ENCODING 8256
SWIDTH 1020 0
DWIDTH 17 0
BBX 15 4 0 11
BITMAP
3FF0
3FF0
F01E
F01E
ENDCHAR
STARTCHAR 2044
ENCODING 8260
SWIDTH 1020 0
DWIDTH 17 0
BBX 15 15 0 0
BITMAP
001E
001E
00F0
00F0
03C0
03C0
0F00
0F00
0C00
3C00
3000
F000
F000
C000
C000
ENDCHAR
STARTCHAR 2054
ENCODING 8276
SWIDTH 1020 0
DWIDTH 17 0
BBX 15 4 0 -2
BITMAP
3FF0
3FF0
F01E
F01E
ENDCHAR
STARTCHAR 2074
ENCODING 8308
SWIDTH 1020 0
DWIDTH 17 0
BBX 11 11 2 4
BITMAP
0F00
0F00
3F00
3F00
3F00
FF00
FF00
FFE0
FFE0
0F00
0F00
ENDCHAR
STARTCHAR 2075
ENCODING 8309
SWIDTH 1020 0
DWIDTH 17 0
BBX 8 11 2 4
BITMAP
FF
FF
F0
F0
FC
FC
FC
0F
0F
FC
FC
ENDCHAR
STARTCHAR 2076
ENCODING 8310
SWIDTH 1020 0
DWIDTH 17 0
BBX 10 11 2 4
BITMAP
3F00
3F00
3000
F000
F000
FF00
FF00
F3C0
F3C0
3F00
3F00
ENDCHAR
STARTCHAR 2077
ENCODING 8311
SWIDTH 1020 0
DWIDTH 17 0
BBX 10 11 2 4
BITMAP
FFC0
FFC0
03C0
03C0
0F00
0F00
0F00
3C00
3C00
3C00
3C00
ENDCHAR
STARTCHAR 2078
ENCODING 8312
SWIDTH 1020 0
DWIDTH 17 0
BBX 10 11 2 4
BITMAP
3F00
3F00
3300
F3C0
F3C0
3F00
3F00
F3C0
F3C0
3F00
3F00
ENDCHAR
STARTCHAR 2079
ENCODING 8313
SWIDTH 1020 0
DWIDTH 17 0
BBX 10 11 2 4
BITMAP
3F00
3F00
3300
F3C0
F3C0
3FC0
3FC0
03C0
03C0
3F00
3F00
ENDCHAR
STARTCHAR 207A
ENCODING 8314
SWIDTH 1020 0
DWIDTH 17 0
BBX 13 11 0 4
BITMAP
0F00
0F00
0F00
0F00
0F00
FFF8
FFF8
0F00
0F00
0F00
0F00
ENDCHAR
STARTCHAR 207B
ENCODING 8315
SWIDTH 1020 0
DWIDTH 17 0
BBX 8 2 2 8
BITMAP
FF
FF
ENDCHAR
STARTCHAR 207F
ENCODING 8319
SWIDTH 1020 0
DWIDTH 17 0
BBX 10 11 2 4
BITMAP
FF00
FF00
F300
F3C0
F3C0
F3C0
F3C0
F3C0
F3C0
F3C0
F3C0
ENDCHAR
STARTCHAR 2081
ENCODING 8321
SWIDTH 1020 0
DWIDTH 17 0
BBX 8 10 2 -2
BITMAP
3C
3C
FC
FC
3C
3C
3C
3C
FF
FF
ENDCHAR
STARTCHAR 2082
ENCODING 8322
SWIDTH 1020 0
DWIDTH 17 0
BBX 8 10 2 -2
BITMAP
FC
FC
0F
0F
3C
3C
F0
F0
FF
FF
ENDCHAR
STARTCHAR 2083
ENCODING 8323
SWIDTH 1020 0
DWIDTH 17 0
BBX 8 10 2 -2
BITMAP
FC
FC
0F
0F
3C
3C
0F
0F
FC
FC
ENDCHAR
STARTCHAR 2084
ENCODING 8324
SWIDTH 1020 0
DWIDTH 17 0
BBX 11 10 2 -2
BITMAP
0F00
0F00
3F00
3F00
FF00
FF00
FFE0
FFE0
0F00
0F00
ENDCHAR
STARTCHAR 2085
ENCODING 8325
SWIDTH 1020 0
DWIDTH 17 0
BBX 8 10 2 -2
BITMAP
FF
FF
F0
F0
FC
FC
0F
0F
FC
FC
ENDCHAR
STARTCHAR 2086
ENCODING 8326
SWIDTH 1020 0
DWIDTH 17 0
BBX 10 10 2 -2
BITMAP
3F00
3F00
F000
F000
FF00
FF00
F3C0
F3C0
3F00
3F00
ENDCHAR
STARTCHAR 2087
ENCODING 8327
SWIDTH 1020 0
DWIDTH 17 0
BBX 10 10 2 -2
BITMAP
FFC0
FFC0
03C0
03C0
0F00
0F00
3C00
3C00
3C00
3C00
ENDCHAR
STARTCHAR 2088
ENCODING 8328
SWIDTH 1020 0
DWIDTH 17 0
BBX 10 10 2 -2
BITMAP
3F00
3F00
F3C0
F3C0
3F00
3F00
F3C0
F3C0
3F00
3F00
ENDCHAR
STARTCHAR 2089
ENCODING 8329
SWIDTH 1020 0
DWIDTH 17 0
BBX 10 10 2 -2
BITMAP
3F00
3F00
F3C0
F3C0
3FC0
3FC0
03C0
03C0
3F00
3F00
ENDCHAR
STARTCHAR 208A
ENCODING 8330
SWIDTH 1020 0
DWIDTH 17 0
BBX 13 10 0 -2
BITMAP
0F00
0F00
0F00
0F00
FFF8
FFF8
0F00
0F00
0F00
0F00
ENDCHAR
STARTCHAR 208B
ENCODING 8331
SWIDTH 1020 0
DWIDTH 17 0
BBX 8 2 2 2
BITMAP
FF
FF
ENDCHAR
STARTCHAR 20A3
ENCODING 8355
SWIDTH 1020 0
DWIDTH 17 0
BBX 15 17 0 -2
BITMAP
FFFE
FFFE
3C06
3C06
3CC0
3CC0
3FC0
3FC0
3CC0
3CC0
3CC0
3C00
3C00
FF00
FF00
3C00
3C00
ENDCHAR
STARTCHAR 20A4
ENCODING 8356
SWIDTH 1020 0
DWIDTH 17 0
BBX 15 15 0 0
BITMAP
0FF0
0FF0
3C1E
3C1E
FF06
FF06
3C00
3C00
FF00
FF00
3C00
3C1E
3C1E
FFF0
FFF0
ENDCHAR
STARTCHAR 20A7
ENCODING 8359
SWIDTH 1020 0
DWIDTH 17 0
BBX 16 17 0 -2
BITMAP
FFE0
FFE0
F0F0
F0F0
F0F0
F0F0
FFE6
FFE6
F01E
F01E
F0FF
F0FF
F01E
F01E
F01E
F01F
F01F
ENDCHAR
STARTCHAR 20AA
ENCODING 8362
SWIDTH 1020 0
DWIDTH 17 0
BBX 15 13 0 0
BITMAP
FFC6
FFC6
C0C6
C0C6
CCC6
CCC6
CCC6
CCC6
CCC6
CC06
CC06
CFFE
CFFE
ENDCHAR
STARTCHAR 20AC
ENCODING 8364
SWIDTH 1020 0
DWIDTH 17 0
BBX 15 15 0 0
BITMAP
0FF0
0FF0
3C06
3C06
FFC0
FFC0
3C00
3C00
FFC0
FFC0
3C00
3C06
3C06
0FF0
0FF0
ENDCHAR
STARTCHAR 2105
ENCODING 8453
SWIDTH 1020 0
DWIDTH 17 0
BBX 17 17 0 -2
BITMAP
3F0780
3F0780
F03E00
F03E00
F03800
F0F800
F0F800
3FC000
0FFE00
0FFE00
0FFE00
3FC780
3FC780
F3C780
F3C780
00FE00
00FE00
ENDCHAR
STARTCHAR 2113
ENCODING 8467
SWIDTH 1020 0
DWIDTH 17 0
BBX 10 14 2 0
BITMAP
0C00
0C00
3F00
3F00
F3C0
F3C0
F3C0
F3C0
3F00
3F00
3CC0
3CC0
CF00
CF00
ENDCHAR
STARTCHAR 2116
ENCODING 8470
SWIDTH 1020 0
DWIDTH 17 0
BBX 17 15 0 0
BITMAP
F0FF80
F0FF80
FCF180
FCF180
FCF180
FFFF80
FFFF80
F3F000
F3F000
F0FF80
F0FF80
F0F000
F0F000
F0F000
F0F000
ENDCHAR
STARTCHAR 2122
ENCODING 8482
SWIDTH 1020 0
DWIDTH 17 0
BBX 17 8 0 6
BITMAP
FF0180
FF0180
33C780
33C780
333180
333180
330180
330180
ENDCHAR
STARTCHAR 2126
ENCODING 8486
SWIDTH 1020 0
DWIDTH 17 0
BBX 14 15 0 0
BITMAP
0FC0
0FC0
3CF0
3CF0
3030
F03C
F03C
F03C
F03C
3CF0
3CF0
3CF0
3CF0
FCFC
FCFC
ENDCHAR
STARTCHAR 212E
ENCODING 8494
SWIDTH 1020 0
DWIDTH 17 0
BBX 12 10 0 0
BITMAP
3FC0
3FC0
F0F0
F0F0
FFF0
FFF0
F000
F000
3FC0
3FC0
ENDCHAR
STARTCHAR 2150
ENCODING 8528
SWIDTH 1020 0
DWIDTH 17 0
BBX 17 17 0 -2
BITMAP
F00780
F00780
F01E00
F01E00
F0F000
F0F000
F3C000
F3C000
FFFF80
0FFF80
3C0780
3C0780
300600
F01E00
F01E00
001E00
001E00
ENDCHAR
STARTCHAR 2151
ENCODING 8529
SWIDTH 1020 0
DWIDTH 17 0
BBX 17 17 0 -2
BITMAP
F00780
F03F80
F03C00
F03C00
F0F000
F0F000
F3FC00
F3FC00
0FC780
0FC780
3CFF80
3CFF80
300780
F00780
F00780
00FC00
00FC00
ENDCHAR
STARTCHAR 2153
ENCODING 8531
SWIDTH 1020 0
DWIDTH 17 0
BBX 17 17 0 -2
BITMAP
F00780
F00780
F03C00
F03C00
F0F000
F0F000
F3FC00
F3FC00
0F0780
0F0780
3C3C00
3C3C00
300400
F00780
F00780
00FC00
00FC00
ENDCHAR
STARTCHAR 2154
ENCODING 8532
SWIDTH 1020 0
DWIDTH 17 0
BBX 17 17 0 -2
BITMAP
F00780
F00780
3C1E00
3C1E00
F0F000
F0F000
FFFE00
FFFE00
0F0780
0F0780
3C1E00
3C1E00
300600
F00780
F00780
00FE00
00FE00
ENDCHAR
STARTCHAR 2155
ENCODING 8533
SWIDTH 1020 0
DWIDTH 17 0
BBX 16 17 0 -2
BITMAP
F00F
F00F
F01E
F01E
F0F0
F0F0
F3FF
F3FF
03F0
0FF0
3CFE
3CFE
3CFE
F00F
F00F
00FE
00FE
ENDCHAR
STARTCHAR 2156
ENCODING 8534
SWIDTH 1020 0
DWIDTH 17 0
BBX 17 17 0 -2
BITMAP
F00780
F00780
3C1E00
3C1E00
F0F000
F0F000
FFFF80
FFFF80
0FF000
0FF000
3CFE00
3CFE00
3CFE00
F00780
F00780
00FE00
00FE00
ENDCHAR
STARTCHAR 2157
ENCODING 8535
SWIDTH 1020 0
DWIDTH 17 0
BBX 17 17 0 -2
BITMAP
FC0780
FC0780
0F1E00
0F1E00
3CF000
3CF000
0FFF80
0FFF80
FFF000
FFF000
3CFE00
3CFE00
3CFE00
F00780
F00780
00FE00
00FE00
ENDCHAR
STARTCHAR 2158
ENCODING 8536
SWIDTH 1020 0
DWIDTH 17 0
BBX 17 17 0 -2
BITMAP
0F0780
0F0780
3F3C00
3F3C00
FFF000
FFF000
0FFF80
0FFF80
0FF000
0FF000
0FF000
3CFC00
3CFC00
F00780
F00780
00FC00
00FC00
ENDCHAR
STARTCHAR 2159
ENCODING 8537
SWIDTH 1020 0
DWIDTH 17 0
BBX 17 17 0 -2
BITMAP
F00780
F00780
F01E00
F01E00
F0F000
F0F000
F3FE00
F3FE00
0FC000
0FC000
3FFE00
3FFE00
33C600
F3C780
F3C780
00FE00
00FE00
ENDCHAR
STARTCHAR 215A
ENCODING 8538
SWIDTH 1020 0
DWIDTH 17 0
BBX 17 17 0 -2
BITMAP
FF0780
FF0780
F01E00
F01E00
FCF000
FCF000
07FE00
07FE00
FFC000
FFC000
3FC000
3FFE00
3FFE00
F3C780
F3C780
00FE00
00FE00
ENDCHAR
STARTCHAR 215B
ENCODING 8539
SWIDTH 1020 0
DWIDTH 17 0
BBX 17 17 0 -2
BITMAP
F00780
F01F80
F01E00
F01E00
F0F000
F0F000
F3FE00
F3FE00
0FC780
0FC780
3CFE00
3CFE00
30C600
F3C780
F3C780
00FE00
00FE00
ENDCHAR
STARTCHAR 215C
ENCODING 8540
SWIDTH 1020 0
DWIDTH 17 0
BBX 17 17 0 -2
BITMAP
FC0780
FF1F80
0F1E00
0C1000
3CF000
3CF000
0FFE00
0FFE00
FFC780
FFC780
3CFE00
3CFE00
30C600
F3C780
F3C780
00FE00
00FE00
ENDCHAR
STARTCHAR 215D
ENCODING 8541
SWIDTH 1020 0
DWIDTH 17 0
BBX 17 17 0 -2
BITMAP
FF0780
FF3F80
F03C00
F03C00
FCF000
FCF000
0FFC00
0FFC00
FFC780
FFC780
3CC400
3CFC00
3CFC00
F3C780
F3C780
00FC00
00FC00
ENDCHAR
STARTCHAR 215E
ENCODING 8542
SWIDTH 1020 0
DWIDTH 17 0
BBX 17 17 0 -2
BITMAP
FF0780
FF1F80
0F1E00
0F1E00
3CF000
3CF000
F3FE00
F3FE00
0FC780
0FC780
3CFE00
3CFE00
30C600
F3C780
F3C780
00FE00
00FE00
ENDCHAR
STARTCHAR 2190
ENCODING 8592
SWIDTH 1020 0
DWIDTH 17 0
BBX 15 10 0 2
BITMAP
0F00
0F00
3C00
3C00
FFFE
FFFE
3C00
3C00
0F00
0F00
ENDCHAR
STARTCHAR 2191
ENCODING 8593
SWIDTH 1020 0
DWIDTH 17 0
BBX 13 15 2 0
BITMAP
0F00
0F00
3FC0
3FC0
3FC0
FFF8
FFF8
0F00
0F00
0F00
0F00
0F00
0F00
0F00
0F00
ENDCHAR
STARTCHAR 2192
ENCODING 8594
SWIDTH 1020 0
DWIDTH 17 0
BBX 15 10 0 2
BITMAP
03C0
03C0
00F8
00F8
FFFE
FFFE
00F8
00F8
03C0
03C0
ENDCHAR
STARTCHAR 2193
ENCODING 8595
SWIDTH 1020 0
DWIDTH 17 0
BBX 13 15 2 0
BITMAP
0F00
0F00
0F00
0F00
0F00
0F00
0F00
0F00
0F00
FFF8
FFF8
3FC0
3FC0
0F00
0F00
ENDCHAR
STARTCHAR 2194
ENCODING 8596
SWIDTH 1020 0
DWIDTH 17 0
BBX 17 10 0 2
BITMAP
0C3800
0C3800
3C3E00
3C3E00
FFFF80
FFFF80
3C3E00
3C3E00
0C3800
0C3800
ENDCHAR
STARTCHAR 2195
ENCODING 8597
SWIDTH 1020 0
DWIDTH 17 0
BBX 13 17 2 -2
BITMAP
0F00
0F00
3FC0
3FC0
3FC0
FFF8
FFF8
0F00
0F00
0F00
0F00
FFF8
FFF8
3FC0
3FC0
0F00
0F00
ENDCHAR
STARTCHAR 21A8
ENCODING 8616
SWIDTH 1020 0
DWIDTH 17 0
BBX 17 17 0 -2
BITMAP
03C000
03C000
03C000
0FF800
0FF800
3FFE00
3FFE00
03C000
03C000
3FFE00
3FFE00
0FF800
0FF800
03C000
03C000
FFFF80
FFFF80
ENDCHAR
STARTCHAR 2202
ENCODING 8706
SWIDTH 1020 0
DWIDTH 17 0
BBX 12 14 0 0
BITMAP
0FC0
0FC0
3CF0
3CF0
00F0
00F0
3FF0
3FF0
F0F0
F0F0
F0F0
F0F0
3FC0
3FC0
ENDCHAR
STARTCHAR 2205
ENCODING 8709
SWIDTH 1020 0
DWIDTH 17 0
BBX 17 17 0 -2
BITMAP
003E00
003E00
003800
00F800
00F800
3FFE00
3FFE00
F3C780
F3C780
F3C780
F3C780
3FFE00
3FFE00
0F0000
0F0000
3C0000
3C0000
ENDCHAR
STARTCHAR 2206
ENCODING 8710
SWIDTH 1020 0
DWIDTH 17 0
BBX 14 14 0 0
BITMAP
0300
0300
0FC0
0FC0
3CF0
3CF0
F03C
F03C
F03C
F03C
F03C
F03C
FFFC
FFFC
ENDCHAR
STARTCHAR 2208
ENCODING 8712
SWIDTH 1020 0
DWIDTH 17 0
BBX 10 15 0 0
BITMAP
0FC0
0FC0
3C00
3C00
3000
F000
F000
FFC0
FFC0
F000
F000
3C00
3C00
0FC0
0FC0
ENDCHAR
STARTCHAR 220F
ENCODING 8719
SWIDTH 1020 0
DWIDTH 17 0
BBX 15 17 0 -2
BITMAP
FFFE
FFFE
F01E
F01E
F01E
F01E
F01E
F01E
F01E
F01E
F01E
F01E
F01E
F01E
F01E
F01E
F01E
ENDCHAR
STARTCHAR 2211
ENCODING 8721
SWIDTH 1020 0
DWIDTH 17 0
BBX 12 15 0 0
BITMAP
FFF0
FFF0
F0F0
F0F0
3000
3C00
0F00
0F00
0F00
3C00
3C00
F0F0
F0F0
FFF0
FFF0
ENDCHAR
STARTCHAR 2212
ENCODING 8722
SWIDTH 1020 0
DWIDTH 17 0
BBX 13 2 0 6
BITMAP
FFF8
FFF8
ENDCHAR
STARTCHAR 2215
ENCODING 8725
SWIDTH 1020 0
DWIDTH 17 0
BBX 15 15 0 0
BITMAP
001E
001E
00F8
00F8
00E0
03E0
03E0
0F00
0F00
3C00
3C00
F000
F000
C000
C000
ENDCHAR
STARTCHAR 2219
ENCODING 8729
SWIDTH 1020 0
DWIDTH 17 0
BBX 4 4 6 4
BITMAP
F0
F0
F0
F0
ENDCHAR
STARTCHAR 221A
ENCODING 8730
SWIDTH 1020 0
DWIDTH 17 0
BBX 16 17 0 -2
BITMAP
00FF
00FF
00F0
00F0
00F0
00F0
00F0
00F0
00F0
FCF0
FCF0
3CF0
3CF0
0FF0
0FF0
03F0
03F0
ENDCHAR
STARTCHAR 221E
ENCODING 8734
SWIDTH 1020 0
DWIDTH 17 0
BBX 17 8 0 2
BITMAP
3FFE00
3FFE00
F3C780
F3C780
F3C780
F3C780
3FFE00
3FFE00
ENDCHAR
STARTCHAR 221F
ENCODING 8735
SWIDTH 1020 0
DWIDTH 17 0
BBX 15 8 0 2
BITMAP
F000
F000
F000
F000
F000
F000
FFFE
FFFE
ENDCHAR
STARTCHAR 2229
ENCODING 8745
SWIDTH 1020 0
DWIDTH 17 0
BBX 12 15 0 0
BITMAP
3FC0
3FC0
FFF0
F0F0
F0F0
F0F0
F0F0
F0F0
F0F0
F0F0
F0F0
F0F0
F0F0
F0F0
F0F0
ENDCHAR
STARTCHAR 222B
ENCODING 8747
SWIDTH 1020 0
DWIDTH 17 0
BBX 17 16 0 -2
BITMAP
00FE00
00FE00
03C780
03C780
03C780
03C780
03C000
03C000
03C000
03C000
F3C000
F3C000
F3C000
F3C000
3F0000
3F0000
ENDCHAR
STARTCHAR 2248
ENCODING 8776
SWIDTH 1020 0
DWIDTH 17 0
BBX 14 10 0 2
BITMAP
3F3C
3F3C
F3F0
F3F0
0000
0000
3F3C
3F3C
F3F0
F3F0
ENDCHAR
STARTCHAR 2260
ENCODING 8800
SWIDTH 1020 0
DWIDTH 17 0
BBX 15 12 0 0
BITMAP
00F8
00F8
FFFE
FFFE
03C0
03C0
0F00
0F00
FFFE
FFFE
3C00
3C00
ENDCHAR
STARTCHAR 2261
ENCODING 8801
SWIDTH 1020 0
DWIDTH 17 0
BBX 13 10 0 2
BITMAP
FFF8
FFF8
0000
0000
FFF8
FFF8
0000
0000
FFF8
FFF8
ENDCHAR
STARTCHAR 2264
ENCODING 8804
SWIDTH 1020 0
DWIDTH 17 0
BBX 13 15 0 0
BITMAP
03C0
03C0
0F00
0F00
3C00
3C00
3C00
0F00
0F00
03C0
03C0
0000
0000
FFF8
FFF8
ENDCHAR
STARTCHAR 2265
ENCODING 8805
SWIDTH 1020 0
DWIDTH 17 0
BBX 13 15 0 0
BITMAP
3C00
3C00
0F00
0F00
03C0
03C0
03C0
0F00
0F00
3C00
3C00
0000
0000
FFF8
FFF8
ENDCHAR
STARTCHAR 2299
ENCODING 8857
SWIDTH 1020 0
DWIDTH 17 0
BBX 15 15 0 0
BITMAP
3FF8
3FF8
F01E
F01E
F01E
F01E
F01E
F31E
F31E
F01E
F01E
F01E
F01E
3FF8
3FF8
ENDCHAR
STARTCHAR 2300
ENCODING 8960
SWIDTH 1020 0
DWIDTH 17 0
BBX 15 15 0 0
BITMAP
3FF8
3FF8
F01E
F01E
F01E
F07E
F07E
F31E
F31E
FC1E
FC1E
F01E
F01E
3FF8
3FF8
ENDCHAR
STARTCHAR 2302
ENCODING 8962
SWIDTH 1020 0
DWIDTH 17 0
BBX 14 12 0 0
BITMAP
0300
0300
0FC0
0FC0
3CF0
3CF0
F03C
F03C
F03C
F03C
FFFC
FFFC
ENDCHAR
STARTCHAR 2310
ENCODING 8976
SWIDTH 1020 0
DWIDTH 17 0
BBX 13 6 0 2
BITMAP
FFF8
FFF8
F000
F000
F000
F000
ENDCHAR
STARTCHAR 2320
ENCODING 8992
SWIDTH 1020 0
DWIDTH 17 0
BBX 10 17 6 -2
BITMAP
3F00
3F00
F3C0
F3C0
F3C0
F3C0
F3C0
F000
F000
F000
F000
F000
F000
F000
F000
F000
F000
ENDCHAR
STARTCHAR 2321
ENCODING 8993
SWIDTH 1020 0
DWIDTH 17 0
BBX 10 17 0 -2
BITMAP
03C0
03C0
03C0
03C0
03C0
03C0
03C0
03C0
03C0
03C0
03C0
F3C0
F3C0
F3C0
F3C0
3F00
3F00
ENDCHAR
STARTCHAR 2500
ENCODING 9472
SWIDTH 1020 0
DWIDTH 17 0
BBX 17 2 0 4
BITMAP
FFFF80
FFFF80
ENDCHAR
STARTCHAR 2502
ENCODING 9474
SWIDTH 1020 0
DWIDTH 17 0
BBX 4 17 6 -2
BITMAP
F0
F0
F0
F0
F0
F0
F0
F0
F0
F0
F0
F0
F0
F0
F0
F0
F0
ENDCHAR
STARTCHAR 250C
ENCODING 9484
SWIDTH 1020 0
DWIDTH 17 0
BBX 10 8 6 -2
BITMAP
FFC0
FFC0
F000
F000
F000
F000
F000
F000
ENDCHAR
STARTCHAR 2510
ENCODING 9488
SWIDTH 1020 0
DWIDTH 17 0
BBX 10 8 0 -2
BITMAP
FFC0
FFC0
03C0
03C0
03C0
03C0
03C0
03C0
ENDCHAR
STARTCHAR 2514
ENCODING 9492
SWIDTH 1020 0
DWIDTH 17 0
BBX 10 10 6 4
BITMAP
F000
F000
F000
F000
F000
F000
F000
F000
FFC0
FFC0
ENDCHAR
STARTCHAR 2518
ENCODING 9496
SWIDTH 1020 0
DWIDTH 17 0
BBX 10 10 0 4
BITMAP
03C0
03C0
03C0
03C0
03C0
03C0
03C0
03C0
FFC0
FFC0
ENDCHAR
STARTCHAR 251C
ENCODING 9500
SWIDTH 1020 0
DWIDTH 17 0
BBX 10 17 6 -2
BITMAP
F000
F000
F000
F000
F000
F000
F000
F000
F000
FFC0
FFC0
F000
F000
F000
F000
F000
F000
ENDCHAR
STARTCHAR 2524
ENCODING 9508
SWIDTH 1020 0
DWIDTH 17 0
BBX 10 17 0 -2
BITMAP
03C0
03C0
03C0
03C0
03C0
03C0
03C0
03C0
03C0
FFC0
FFC0
03C0
03C0
03C0
03C0
03C0
03C0
ENDCHAR
STARTCHAR 252C
ENCODING 9516
SWIDTH 1020 0
DWIDTH 17 0
BBX 17 8 0 -2
BITMAP
FFFF80
FFFF80
03C000
03C000
03C000
03C000
03C000
03C000
ENDCHAR
STARTCHAR 2534
ENCODING 9524
SWIDTH 1020 0
DWIDTH 17 0
BBX 17 10 0 4
BITMAP
03C000
03C000
03C000
03C000
03C000
03C000
03C000
03C000
FFFF80
FFFF80
ENDCHAR
STARTCHAR 253C
ENCODING 9532
SWIDTH 1020 0
DWIDTH 17 0
BBX 17 17 0 -2
BITMAP
03C000
03C000
03C000
03C000
03C000
03C000
03C000
03C000
03C000
FFFF80
FFFF80
03C000
03C000
03C000
03C000
03C000
03C000
ENDCHAR
STARTCHAR 2550
ENCODING 9552
SWIDTH 1020 0
DWIDTH 17 0
BBX 17 6 0 4
BITMAP
FFFF80
FFFF80
000000
000000
FFFF80
FFFF80
ENDCHAR
STARTCHAR 2551
ENCODING 9553
SWIDTH 1020 0
DWIDTH 17 0
BBX 10 17 4 -2
BITMAP
F3C0
F3C0
F3C0
F3C0
F3C0
F3C0
F3C0
F3C0
F3C0
F3C0
F3C0
F3C0
F3C0
F3C0
F3C0
F3C0
F3C0
ENDCHAR
STARTCHAR 2552
ENCODING 9554
SWIDTH 1020 0
DWIDTH 17 0
BBX 10 12 6 -2
BITMAP
FFC0
FFC0
F000
F000
FFC0
FFC0
F000
F000
F000
F000
F000
F000
ENDCHAR
STARTCHAR 2553
ENCODING 9555
SWIDTH 1020 0
DWIDTH 17 0
BBX 13 8 4 -2
BITMAP
FFF8
FFF8
F3C0
F3C0
F3C0
F3C0
F3C0
F3C0
ENDCHAR
STARTCHAR 2554
ENCODING 9556
SWIDTH 1020 0
DWIDTH 17 0
BBX 12 12 4 -2
BITMAP
FFF0
FFF0
F000
F000
F3F0
F3F0
F3C0
F3C0
F3C0
F3C0
F3C0
F3C0
ENDCHAR
STARTCHAR 2555
ENCODING 9557
SWIDTH 1020 0
DWIDTH 17 0
BBX 10 12 0 -2
BITMAP
FFC0
FFC0
03C0
03C0
FFC0
FFC0
03C0
03C0
03C0
03C0
03C0
03C0
ENDCHAR
STARTCHAR 2556
ENCODING 9558
SWIDTH 1020 0
DWIDTH 17 0
BBX 14 8 0 -2
BITMAP
FFFC
FFFC
0F3C
0F3C
0F3C
0F3C
0F3C
0F3C
ENDCHAR
STARTCHAR 2557
ENCODING 9559
SWIDTH 1020 0
DWIDTH 17 0
BBX 14 12 0 -2
BITMAP
FFFC
FFFC
003C
003C
FF3C
FF3C
0F3C
0F3C
0F3C
0F3C
0F3C
0F3C
ENDCHAR
STARTCHAR 2558
ENCODING 9560
SWIDTH 1020 0
DWIDTH 17 0
BBX 10 10 6 4
BITMAP
F000
F000
F000
F000
FFC0
FFC0
F000
F000
FFC0
FFC0
ENDCHAR
STARTCHAR 2559
ENCODING 9561
SWIDTH 1020 0
DWIDTH 17 0
BBX 13 10 4 4
BITMAP
F3C0
F3C0
F3C0
F3C0
F3C0
F3C0
F3C0
F3C0
FFF8
FFF8
ENDCHAR
STARTCHAR 255A
ENCODING 9562
SWIDTH 1020 0
DWIDTH 17 0
BBX 12 10 4 4
BITMAP
F3C0
F3C0
F3C0
F3C0
F3F0
F3F0
F000
F000
FFF0
FFF0
ENDCHAR
STARTCHAR 255B
ENCODING 9563
SWIDTH 1020 0
DWIDTH 17 0
BBX 10 10 0 4
BITMAP
03C0
03C0
03C0
03C0
FFC0
FFC0
03C0
03C0
FFC0
FFC0
ENDCHAR
STARTCHAR 255C
ENCODING 9564
SWIDTH 1020 0
DWIDTH 17 0
BBX 14 10 0 4
BITMAP
0F3C
0F3C
0F3C
0F3C
0F3C
0F3C
0F3C
0F3C
FFFC
FFFC
ENDCHAR
STARTCHAR 255D
ENCODING 9565
SWIDTH 1020 0
DWIDTH 17 0
BBX 14 10 0 4
BITMAP
0F3C
0F3C
0F3C
0F3C
FF3C
FF3C
003C
003C
FFFC
FFFC
ENDCHAR
STARTCHAR 255E
ENCODING 9566
SWIDTH 1020 0
DWIDTH 17 0
BBX 10 17 6 -2
BITMAP
F000
F000
F000
F000
FFC0
FFC0
FFC0
F000
F000
FFC0
FFC0
F000
F000
F000
F000
F000
F000
ENDCHAR
STARTCHAR 255F
ENCODING 9567
SWIDTH 1020 0
DWIDTH 17 0
BBX 12 17 4 -2
BITMAP
F3C0
F3C0
F3C0
F3C0
F3C0
F3C0
F3C0
F3C0
F3C0
F3F0
F3F0
F3C0
F3C0
F3C0
F3C0
F3C0
F3C0
ENDCHAR
STARTCHAR 2560
ENCODING 9568
SWIDTH 1020 0
DWIDTH 17 0
BBX 12 17 4 -2
BITMAP
F3C0
F3C0
F3C0
F3C0
F3F0
F3F0
F3F0
F000
F000
F3F0
F3F0
F3C0
F3C0
F3C0
F3C0
F3C0
F3C0
ENDCHAR
STARTCHAR 2561
ENCODING 9569
SWIDTH 1020 0
DWIDTH 17 0
BBX 10 17 0 -2
BITMAP
03C0
03C0
03C0
03C0
FFC0
FFC0
FFC0
03C0
03C0
FFC0
FFC0
03C0
03C0
03C0
03C0
03C0
03C0
ENDCHAR
STARTCHAR 2562
ENCODING 9570
SWIDTH 1020 0
DWIDTH 17 0
BBX 14 17 0 -2
BITMAP
0F3C
0F3C
0F3C
0F3C
0F3C
0F3C
0F3C
0F3C
0F3C
FF3C
FF3C
0F3C
0F3C
0F3C
0F3C
0F3C
0F3C
ENDCHAR
STARTCHAR 2563
ENCODING 9571
SWIDTH 1020 0
DWIDTH 17 0
BBX 14 17 0 -2
BITMAP
0F3C
0F3C
0F3C
0F3C
FF3C
FF3C
FF3C
003C
003C
FF3C
FF3C
0F3C
0F3C
0F3C
0F3C
0F3C
0F3C
ENDCHAR
STARTCHAR 2564
ENCODING 9572
SWIDTH 1020 0
DWIDTH 17 0
BBX 17 12 0 -2
BITMAP
FFFF80
FFFF80
000000
000000
FFFF80
FFFF80
03C000
03C000
03C000
03C000
03C000
03C000
ENDCHAR
STARTCHAR 2565
ENCODING 9573
SWIDTH 1020 0
DWIDTH 17 0
BBX 17 8 0 -2
BITMAP
FFFF80
FFFF80
0F3E00
0F3E00
0F3E00
0F3E00
0F3E00
0F3E00
ENDCHAR
STARTCHAR 2566
ENCODING 9574
SWIDTH 1020 0
DWIDTH 17 0
BBX 17 12 0 -2
BITMAP
FFFF80
FFFF80
000000
000000
FF3F80
FF3F80
0F3E00
0F3E00
0F3E00
0F3E00
0F3E00
0F3E00
ENDCHAR
STARTCHAR 2567
ENCODING 9575
SWIDTH 1020 0
DWIDTH 17 0
BBX 17 10 0 4
BITMAP
03C000
03C000
03C000
03C000
FFFF80
FFFF80
000000
000000
FFFF80
FFFF80
ENDCHAR
STARTCHAR 2568
ENCODING 9576
SWIDTH 1020 0
DWIDTH 17 0
BBX 17 10 0 4
BITMAP
0F3E00
0F3E00
0F3E00
0F3E00
0F3E00
0F3E00
0F3E00
0F3E00
FFFF80
FFFF80
ENDCHAR
STARTCHAR 2569
ENCODING 9577
SWIDTH 1020 0
DWIDTH 17 0
BBX 17 10 0 4
BITMAP
0F3E00
0F3E00
0F3E00
0F3E00
FF3F80
FF3F80
000000
000000
FFFF80
FFFF80
ENDCHAR
STARTCHAR 256A
ENCODING 9578
SWIDTH 1020 0
DWIDTH 17 0
BBX 17 17 0 -2
BITMAP
03C000
03C000
03C000
03C000
FFFF80
FFFF80
FFFF80
03C000
03C000
FFFF80
FFFF80
03C000
03C000
03C000
03C000
03C000
03C000
ENDCHAR
STARTCHAR 256B
ENCODING 9579
SWIDTH 1020 0
DWIDTH 17 0
BBX 17 17 0 -2
BITMAP
0F3E00
0F3E00
0F3E00
0F3E00
0F3E00
0F3E00
0F3E00
0F3E00
0F3E00
FFFF80
FFFF80
0F3E00
0F3E00
0F3E00
0F3E00
0F3E00
0F3E00
ENDCHAR
STARTCHAR 256C
ENCODING 9580
SWIDTH 1020 0
DWIDTH 17 0
BBX 16 16 0 -2
BITMAP
0F3C
0F3C
0F3C
0F3C
FF3F
FF3F
0000
0000
FF3F
FF3F
0F3C
0F3C
0F3C
0F3C
0F3C
0F3C
ENDCHAR
STARTCHAR 2580
ENCODING 9600
SWIDTH 1020 0
DWIDTH 17 0
BBX 17 8 0 6
BITMAP
FFFF80
FFFF80
FFFF80
FFFF80
FFFF80
FFFF80
FFFF80
FFFF80
ENDCHAR
STARTCHAR 2581
ENCODING 9601
SWIDTH 1020 0
DWIDTH 17 0
BBX 17 4 0 -2
BITMAP
FFFF80
FFFF80
FFFF80
FFFF80
ENDCHAR
STARTCHAR 2584
ENCODING 9604
SWIDTH 1020 0
DWIDTH 17 0
BBX 17 8 0 -2
BITMAP
FFFF80
FFFF80
FFFF80
FFFF80
FFFF80
FFFF80
FFFF80
FFFF80
ENDCHAR
STARTCHAR 2588
ENCODING 9608
SWIDTH 1020 0
DWIDTH 17 0
BBX 17 17 0 -2
BITMAP
FFFF80
FFFF80
FFFF80
FFFF80
FFFF80
FFFF80
FFFF80
FFFF80
FFFF80
FFFF80
FFFF80
FFFF80
FFFF80
FFFF80
FFFF80
FFFF80
FFFF80
ENDCHAR
STARTCHAR 258C
ENCODING 9612
SWIDTH 1020 0
DWIDTH 17 0
BBX 8 17 0 -2
BITMAP
FF
FF
FF
FF
FF
FF
FF
FF
FF
FF
FF
FF
FF
FF
FF
FF
FF
ENDCHAR
STARTCHAR 2590
ENCODING 9616
SWIDTH 1020 0
DWIDTH 17 0
BBX 8 17 9 -2
BITMAP
FF
FF
FF
FF
FF
FF
FF
FF
FF
FF
FF
FF
FF
FF
FF
FF
FF
ENDCHAR
STARTCHAR 2591
ENCODING 9617
SWIDTH 1020 0
DWIDTH 17 0
BBX 15 16 0 -2
BITMAP
0C06
0C06
C0C0
C0C0
0C06
0C06
C0C0
C0C0
0C06
0C06
C0C0
C0C0
0C06
0C06
C0C0
C0C0
ENDCHAR
STARTCHAR 2592
ENCODING 9618
SWIDTH 1020 0
DWIDTH 17 0
BBX 17 16 0 -2
BITMAP
333980
333980
CCC600
CCC600
333980
333980
CCC600
CCC600
333980
333980
CCC600
CCC600
333980
333980
CCC600
CCC600
ENDCHAR
STARTCHAR 2593
ENCODING 9619
SWIDTH 1020 0
DWIDTH 17 0
BBX 17 16 0 -2
BITMAP
F3C780
F3C780
3F1F80
3F1F80
F3C780
F3C780
FCFE00
FCFE00
F3C780
F3C780
3F1F80
3F1F80
F3C780
F3C780
FCFE00
FCFE00
ENDCHAR
STARTCHAR 25A0
ENCODING 9632
SWIDTH 1020 0
DWIDTH 17 0
BBX 8 8 4 2
BITMAP
FF
FF
FF
FF
FF
FF
FF
FF
ENDCHAR
STARTCHAR 25A1
ENCODING 9633
SWIDTH 1020 0
DWIDTH 17 0
BBX 10 8 2 2
BITMAP
FFC0
FFC0
F3C0
F3C0
F3C0
F3C0
FFC0
FFC0
ENDCHAR
STARTCHAR 25AA
ENCODING 9642
SWIDTH 1020 0
DWIDTH 17 0
BBX 8 6 4 2
BITMAP
FF
FF
FF
FF
FF
FF
ENDCHAR
STARTCHAR 25AB
ENCODING 9643
SWIDTH 1020 0
DWIDTH 17 0
BBX 10 6 2 2
BITMAP
FFC0
FFC0
F3C0
F3C0
FFC0
FFC0
ENDCHAR
STARTCHAR 25AC
ENCODING 9644
SWIDTH 1020 0
DWIDTH 17 0
BBX 13 6 2 0
BITMAP
FFF8
FFF8
FFF8
FFF8
FFF8
FFF8
ENDCHAR
STARTCHAR 25B2
ENCODING 9650
SWIDTH 1020 0
DWIDTH 17 0
BBX 17 10 0 2
BITMAP
03C000
03C000
0FF800
0FF800
3FFE00
3FFE00
FFFF80
FFFF80
FFFF80
FFFF80
ENDCHAR
STARTCHAR 25BA
ENCODING 9658
SWIDTH 1020 0
DWIDTH 17 0
BBX 15 15 0 0
BITMAP
C000
C000
FC00
FC00
FC00
FFC0
FFC0
FFFE
FFFE
FFC0
FFC0
FC00
FC00
C000
C000
ENDCHAR
STARTCHAR 25BC
ENCODING 9660
SWIDTH 1020 0
DWIDTH 17 0
BBX 17 10 0 2
BITMAP
FFFF80
FFFF80
FFFF80
FFFF80
3FFE00
3FFE00
0FF800
0FF800
03C000
03C000
ENDCHAR
STARTCHAR 25C4
ENCODING 9668
SWIDTH 1020 0
DWIDTH 17 0
BBX 15 15 0 0
BITMAP
0006
0006
007E
007E
007E
07FE
07FE
FFFE
FFFE
07FE
07FE
007E
007E
0006
0006
ENDCHAR
STARTCHAR 25C6
ENCODING 9670
SWIDTH 1020 0
DWIDTH 17 0
BBX 15 17 0 -2
BITMAP
0300
0300
0300
0FC0
0FC0
3FF8
3FF8
FFFE
FFFE
3FF8
3FF8
0FC0
0FC0
0300
0300
00C0
00C0
ENDCHAR
STARTCHAR 25CA
ENCODING 9674
SWIDTH 1020 0
DWIDTH 17 0
BBX 14 14 0 0
BITMAP
0300
0300
0FC0
0FC0
3CF0
3CF0
F03C
F03C
3CF0
3CF0
0FC0
0FC0
0300
0300
ENDCHAR
STARTCHAR 25CB
ENCODING 9675
SWIDTH 1020 0
DWIDTH 17 0
BBX 12 12 2 0
BITMAP
3FC0
3FC0
F0F0
F0F0
C030
C030
C030
C030
F0F0
F0F0
3FC0
3FC0
ENDCHAR
STARTCHAR 25CF
ENCODING 9679
SWIDTH 1020 0
DWIDTH 17 0
BBX 13 13 2 0
BITMAP
3FC0
3FC0
3FC0
FFF8
FFF8
FFF8
FFF8
FFF8
FFF8
FFF8
FFF8
3FC0
3FC0
ENDCHAR
STARTCHAR 25D8
ENCODING 9688
SWIDTH 1020 0
DWIDTH 17 0
BBX 17 17 0 -2
BITMAP
FFFF80
FFFF80
FFFF80
FFFF80
FC1F80
FC1F80
F00780
F00780
F00780
F00780
F00780
FC1F80
FC1F80
FFFF80
FFFF80
FFFF80
FFFF80
ENDCHAR
STARTCHAR 25D9
ENCODING 9689
SWIDTH 1020 0
DWIDTH 17 0
BBX 17 17 0 -2
BITMAP
FFFF80
FFFF80
F00780
F00780
C00180
C3C180
C3C180
CFF180
CFF180
CFF180
CFF180
C3C180
C3C180
F00780
F00780
FFFF80
FFFF80
ENDCHAR
STARTCHAR 25E6
ENCODING 9702
SWIDTH 1020 0
DWIDTH 17 0
BBX 10 8 2 2
BITMAP
3F00
3F00
F3C0
F3C0
F3C0
F3C0
3F00
3F00
ENDCHAR
STARTCHAR 263A
ENCODING 9786
SWIDTH 1020 0
DWIDTH 17 0
BBX 17 17 0 -2
BITMAP
3FFE00
3FFE00
C00180
C00180
C00180
CC3180
CC3180
C00180
C00180
CFF180
CFF180
C3C180
C3C180
C00180
C00180
3FFE00
3FFE00
ENDCHAR
STARTCHAR 263B
ENCODING 9787
SWIDTH 1020 0
DWIDTH 17 0
BBX 17 17 0 -2
BITMAP
3FFE00
3FFE00
FFFF80
FFFF80
F3C780
F3C780
F3C780
FFFF80
FFFF80
F00780
F00780
FC1F80
FC1F80
FFFF80
FFFF80
3FFE00
3FFE00
ENDCHAR
STARTCHAR 263C
ENCODING 9788
SWIDTH 1020 0
DWIDTH 17 0
BBX 17 16 0 -2
BITMAP
C3E180
C3E180
33E600
33E600
0FF800
0FF800
FC1F80
FC1F80
FC1F80
FC1F80
0FF800
0FF800
33E600
33E600
C3E180
C3E180
ENDCHAR
STARTCHAR 2640
ENCODING 9792
SWIDTH 1020 0
DWIDTH 17 0
BBX 12 17 2 -2
BITMAP
3FC0
3FC0
F0F0
F0F0
F0F0
F0F0
F0F0
F0F0
F0F0
3FC0
0F00
0F00
0F00
FFF0
FFF0
0F00
0F00
ENDCHAR
STARTCHAR 2642
ENCODING 9794
SWIDTH 1020 0
DWIDTH 17 0
BBX 17 17 0 -2
BITMAP
00FF80
00FF80
001F80
001F80
001F80
00FF80
00F180
3FF180
3FF180
F0F000
F0F000
F0F000
F0F000
F0F000
F0F000
3FE000
3FE000
ENDCHAR
STARTCHAR 2660
ENCODING 9824
SWIDTH 1020 0
DWIDTH 17 0
BBX 15 17 0 -2
BITMAP
0300
0300
0300
0300
0300
0FC0
0FC0
3FF8
3FF8
FFFE
FFFE
3FF8
3FF8
0FC0
0FC0
3FF8
3FF8
ENDCHAR
STARTCHAR 2663
ENCODING 9827
SWIDTH 1020 0
DWIDTH 17 0
BBX 15 17 0 -2
BITMAP
0FC0
0FC0
0FC0
3FF8
3FF8
0FC0
0FC0
FFFE
FFFE
FFFE
FFFE
3FF8
3FF8
0FC0
0FC0
3FF8
3FF8
ENDCHAR
STARTCHAR 2665
ENCODING 9829
SWIDTH 1020 0
DWIDTH 17 0
BBX 15 15 0 0
BITMAP
3CF8
3CF8
FFFE
FFFE
FFFE
FFFE
FFFE
FFFE
FFFE
3FF8
3FF8
0FC0
0FC0
0300
0300
ENDCHAR
STARTCHAR 2666
ENCODING 9830
SWIDTH 1020 0
DWIDTH 17 0
BBX 15 15 0 0
BITMAP
0300
0300
0FC0
0FC0
0FC0
3FF8
3FF8
FFFE
FFFE
3FF8
3FF8
0FC0
0FC0
0300
0300
ENDCHAR
STARTCHAR 266A
ENCODING 9834
SWIDTH 1020 0
DWIDTH 17 0
BBX 17 17 0 -2
BITMAP
0FFF80
0FFF80
0F0780
0F0780
0F0780
0FFF80
0FFF80
0F0000
0F0000
0F0000
0F0000
3F0000
3F0000
FF0000
FF0000
FC0000
FC0000
ENDCHAR
STARTCHAR 266B
ENCODING 9835
SWIDTH 1020 0
DWIDTH 17 0
BBX 17 17 0 -2
BITMAP
3FFF80
3FFF80
3C0780
3C0780
3C0780
3FFF80
3FFF80
3C0780
3C0780
3C0780
3C0780
3C1F80
3C1F80
FC1E00
FC1E00
F00000
F00000
ENDCHAR
STARTCHAR 2713
ENCODING 10003
SWIDTH 1020 0
DWIDTH 17 0
BBX 17 17 0 -2
BITMAP
000780
000780
000780
000780
003E00
003E00
003E00
003E00
003E00
F03E00
F03E00
3CF800
3CF800
0FF800
0FF800
03C000
03C000
ENDCHAR
STARTCHAR FB01
ENCODING 64257
SWIDTH 1020 0
DWIDTH 17 0
BBX 17 15 0 0
BITMAP
0FFC00
0FFC00
3CFC00
3CFC00
3C0000
3C0000
FFFC00
FFFC00
3C3C00
3C3C00
3C3C00
3C3C00
3C3C00
FF3F80
FF3F80
ENDCHAR
STARTCHAR FB02
ENCODING 64258
SWIDTH 1020 0
DWIDTH 17 0
BBX 17 15 0 0
BITMAP
0FFE00
0FFE00
3C1E00
3C1E00
3C1E00
3C1E00
FF1E00
FF1E00
3C1E00
3C1E00
3C1E00
3C1E00
3C1E00
FF1F80
FF1F80
ENDCHAR
STARTCHAR FFFD
ENCODING 65533
SWIDTH 1020 0
DWIDTH 17 0
BBX 17 16 0 -2
BITMAP
F00780
F00780
C3C180
C3C180
FFC180
FFC180
FF0780
FF0780
FC1F80
FC1F80
FFFF80
FFFF80
FC1F80
FC1F80
FFFF80
FFFF80
ENDCHAR
ENDFONT
